<mxfile host="app.diagrams.net" modified="2022-12-15T04:17:02.377Z" agent="5.0 (Macintosh; Intel Mac OS X 10_15_7) AppleWebKit/605.1.15 (KHTML, like Gecko) Version/15.6.1 Safari/605.1.15" etag="gldjDabHbLIH3VKlCL30" version="20.6.0" type="github">
  <diagram id="d8wHi3Kl1Fs5X_AD0kG6" name="Page-1">
    <mxGraphModel dx="705" dy="535" grid="1" gridSize="10" guides="1" tooltips="1" connect="1" arrows="1" fold="1" page="1" pageScale="1" pageWidth="827" pageHeight="1169" math="0" shadow="0">
      <root>
        <mxCell id="0" />
        <mxCell id="1" parent="0" />
        <mxCell id="8wmx1nXhgL71GgYih72c-2" value="" style="rounded=1;whiteSpace=wrap;html=1;fillColor=#ffe6cc;strokeColor=#d79b00;shadow=1;" parent="1" vertex="1">
          <mxGeometry x="61" y="407.5" width="120" height="60" as="geometry" />
        </mxCell>
        <mxCell id="8wmx1nXhgL71GgYih72c-3" value="" style="rounded=0;whiteSpace=wrap;html=1;fillColor=#f5f5f5;fontColor=#333333;strokeColor=#666666;shadow=1;" parent="1" vertex="1">
          <mxGeometry x="440" y="460" width="120" height="60" as="geometry" />
        </mxCell>
        <mxCell id="8wmx1nXhgL71GgYih72c-5" value="" style="endArrow=classic;html=1;rounded=0;exitX=1;exitY=0.5;exitDx=0;exitDy=0;" parent="1" source="8wmx1nXhgL71GgYih72c-23" edge="1">
          <mxGeometry width="50" height="50" relative="1" as="geometry">
            <mxPoint x="190" y="540" as="sourcePoint" />
            <mxPoint x="280" y="500" as="targetPoint" />
            <Array as="points">
              <mxPoint x="250" y="543" />
              <mxPoint x="250" y="500" />
            </Array>
          </mxGeometry>
        </mxCell>
        <mxCell id="8wmx1nXhgL71GgYih72c-6" value="" style="endArrow=classic;html=1;rounded=0;" parent="1" edge="1">
          <mxGeometry width="50" height="50" relative="1" as="geometry">
            <mxPoint x="333" y="489.5" as="sourcePoint" />
            <mxPoint x="433" y="489.5" as="targetPoint" />
          </mxGeometry>
        </mxCell>
        <mxCell id="8wmx1nXhgL71GgYih72c-8" value="" style="dashed=0;outlineConnect=0;html=1;align=center;labelPosition=center;verticalLabelPosition=bottom;verticalAlign=top;shape=mxgraph.weblogos.mongodb" parent="1" vertex="1">
          <mxGeometry x="669" y="578" width="30" height="45.5" as="geometry" />
        </mxCell>
        <mxCell id="8wmx1nXhgL71GgYih72c-9" value="" style="endArrow=classic;html=1;rounded=0;exitX=1;exitY=1;exitDx=0;exitDy=0;" parent="1" edge="1">
          <mxGeometry width="50" height="50" relative="1" as="geometry">
            <mxPoint x="560" y="511" as="sourcePoint" />
            <mxPoint x="680" y="561" as="targetPoint" />
            <Array as="points">
              <mxPoint x="600" y="511" />
              <mxPoint x="680" y="511" />
            </Array>
          </mxGeometry>
        </mxCell>
        <mxCell id="8wmx1nXhgL71GgYih72c-10" value="1. Event Email/SMS" style="text;html=1;strokeColor=none;fillColor=none;align=center;verticalAlign=middle;whiteSpace=wrap;rounded=0;" parent="1" vertex="1">
          <mxGeometry x="156" y="475" width="130" height="30" as="geometry" />
        </mxCell>
        <mxCell id="8wmx1nXhgL71GgYih72c-11" value="&lt;h1&gt;&lt;font style=&quot;font-size: 12px;&quot;&gt;MongoDB&lt;/font&gt;&lt;br&gt;&lt;/h1&gt;" style="text;html=1;strokeColor=none;fillColor=none;spacing=5;spacingTop=-20;whiteSpace=wrap;overflow=hidden;rounded=0;fontColor=#000000;" parent="1" vertex="1">
          <mxGeometry x="649" y="608" width="70" height="50" as="geometry" />
        </mxCell>
        <mxCell id="8wmx1nXhgL71GgYih72c-12" value="&lt;font style=&quot;font-size: 12px;&quot;&gt;2. Forward to webhooks service&lt;/font&gt;" style="text;html=1;strokeColor=none;fillColor=none;align=center;verticalAlign=middle;whiteSpace=wrap;rounded=0;fontSize=14;fontColor=#000000;" parent="1" vertex="1">
          <mxGeometry x="335" y="490" width="110" height="30" as="geometry" />
        </mxCell>
        <mxCell id="8wmx1nXhgL71GgYih72c-13" value="Webhook Service" style="text;html=1;strokeColor=none;fillColor=none;align=center;verticalAlign=middle;whiteSpace=wrap;rounded=0;fontSize=12;fontColor=#000000;" parent="1" vertex="1">
          <mxGeometry x="445" y="475" width="110" height="30" as="geometry" />
        </mxCell>
        <mxCell id="8wmx1nXhgL71GgYih72c-18" value="3. Publishes request POJO in rabbitmq" style="text;html=1;strokeColor=none;fillColor=none;align=center;verticalAlign=middle;whiteSpace=wrap;rounded=0;fontSize=12;fontColor=#000000;" parent="1" vertex="1">
          <mxGeometry x="407" y="356.5" width="170" height="50" as="geometry" />
        </mxCell>
        <mxCell id="8wmx1nXhgL71GgYih72c-19" value="&lt;font style=&quot;font-size: 10px;&quot;&gt;Yes&lt;/font&gt;" style="text;html=1;strokeColor=none;fillColor=none;align=center;verticalAlign=middle;whiteSpace=wrap;rounded=0;fontSize=12;fontColor=#000000;" parent="1" vertex="1">
          <mxGeometry x="695" y="455.5" width="40" height="12" as="geometry" />
        </mxCell>
        <mxCell id="8wmx1nXhgL71GgYih72c-20" value="4. b) Saving MgEmailStatus/MgSmsStatus&lt;br&gt;in mongo" style="text;html=1;strokeColor=none;fillColor=none;align=center;verticalAlign=middle;whiteSpace=wrap;rounded=0;fontSize=12;fontColor=#000000;" parent="1" vertex="1">
          <mxGeometry x="530" y="533.5" width="160" height="80" as="geometry" />
        </mxCell>
        <mxCell id="8wmx1nXhgL71GgYih72c-21" value="Service Provider1" style="text;html=1;strokeColor=none;fillColor=none;align=center;verticalAlign=middle;whiteSpace=wrap;rounded=0;fontSize=12;fontColor=#000000;" parent="1" vertex="1">
          <mxGeometry x="71" y="422.5" width="100" height="30" as="geometry" />
        </mxCell>
        <mxCell id="8wmx1nXhgL71GgYih72c-22" value="" style="shape=image;verticalLabelPosition=bottom;verticalAlign=top;imageAspect=0;aspect=fixed;image=data:image/png,iVBORw0KGgoAAAANSUhEUgAAAggAAAIICAYAAAAL/BZjAAAAAXNSR0IArs4c6QAAAERlWElmTU0AKgAAAAgAAYdpAAQAAAABAAAAGgAAAAAAA6ABAAMAAAABAAEAAKACAAQAAAABAAACCKADAAQAAAABAAACCAAAAADdmLHaAABAAElEQVR4Aey9CbwdxXkn2t3n3E0LizGYzQZssLFlBEJIQkiCy2YMwXvwOHEc23HiBccLGNsYb0JIxjjzy5uXvDczmZk3mV9eJj8PyczL6kwmcXDGK4vAbDY2tlm0IbEagXR17z2n3/dVd1VXV1dVd99z7r1n+Zd0blV931dfffXvPlXfqa6qDgIEIAAEgAAQAAJAAAgAASAABIAAEAACQAAIAAEgAASAABAAAkAACAABIAAEgAAQAAJAAAgAASAABIAAEAACQAAIAAEgAASAABAAAkAACAABIAAEgAAQAAJAAAgAASAABIAAEAACQAAIAAEgAASAABAAAkAACAABIAAEgAAQAAJAAAgAASAABIAAEAACQAAIAAEgAASAABAAAkAACAABIAAEgAAQAAJAAAgAASAABIAAEAACQAAIAAEgAASAABAAAkAACAABIAAEgAAQAAJAAAgAASAABIAAEAACQAAIAAEgAASAABAAAkAACAABIAAEgAAQAAJAAAgAASAABIAAEAACQAAIAAEgAASAABAAAkAACAABIAAEgAAQAAJAAAgAASAABIAAEAACQAAIAAEgAASAABAAAkAACAABIAAEgAAQAAJAAAgAASAABIAAEAACQAAIAAEgAASAABAAAkAACAABIAAEgAAQAAJAAAgAASAABIAAEAACQAAIAAEgAASAABAAAkAACAABIAAEgAAQAAJAAAgAASAABIAAEAACQAAIAAEgAASAABAAAkAACAABIAAEgAAQAAJAAAgAASAABIAAEAACQAAIAAEgAASAABAAAkAACAABIAAEgAAQAAJAAAgAASAABIAAEAACQAAIAAEgAASAABAAAkAACAABIAAEgAAQAAJAAAgAASAABIAAEAACQAAIAAEgAASAABAAAkAACAABIAAEgAAQAAJAAAgAASAABIAAEAACQAAIAAEgAASAABAAAkAACAABIAAEgAAQAAJAAAgAASAABIAAEAACQAAIAAEgAASAABAAAkAACAABIAAEgAAQAAJAAAgAASAABIAAEAACQAAIAAEgAASAABAAAkBgnhD42eSmt27fuHH1PKmHWiAABPoEgahP7ISZQAAILAACOy5b/5Llzcb/dWB2ditVFy5AlagCCACBHkUADkKPXhiYBQQWA4Fme/Szy5rRCeQkXPbHK86+cjFsQJ1AAAj0BgJwEHrjOsAKILDoCOy7dPKsZhD87sFWOzhipBEuHQlv+qPVq5csumEwAAgAgUVBAA7CosCOSoFAbyEQX3VVo92OvzYSRktm4zgYjcLgiGbzzOUz8Qd7y1JYAwSAwEIhAAdhoZBGPUCghxHY89y+Xx9rRJdOtdvCyhHqGZY0Q1qEEF7/V6tWHd/DpsM0IAAE5gkBOAjzBCzUAoF+QWDPpk1HN4JgS5tmDmTg1OEjjWAsil421Yo+L+mIgQAQGB4E4CAMz7VGS4GAFYFwLLxhImqcPKM7COQhHEYOQhDEQRiGv3Xr2Wdj26MVPRCBwOAiAAdhcK8tWgYEShHYc/EFaxph9OGpVisnyzMI47QOYUkzChphOB63wm2bgwD9RQ4lZIDAYCOAL/xgX1+0Dgg4Ebhr9eoRWmRACxPD8WTlQV6U/IPgyNFGME3rEppheNlrV656W14COSAABAYZATgIg3x10TYg4EHguCOW/uZEFE3KhYmmKM8i0HbHgB0FEcJwy60rJpelOURAAAgMOAJwEAb8AqN5QMCGwL7JyWNHomgzb2l0hTax6NAkWqgYBrw+YSxqvC5u7v+oSx50IAAEBgsBOAiDdT3RGiBQCYG4GX9xPIpO9DkIrGiEnAPezcB+BDsJYRhc919XrTqpUiUQAgJAoK8RgIPQ15cPxgOB+gjsvej882hh4m8fNBYm2jTx0wVeh8DzDLwNcjSMXtpoR1+0yYIGBIDAYCEAB2GwridaAwS8CDx41YrROAq+RmcgjfKgXxb4MQPPIPDBSRzSBYvvuXXVqvUJBX+BABAYVATgIAzqlUW7gIAFgZc8+9IPjDcaG1wLE80i7ESMN6JgCX04zR/a9jjabkfbNk9O0qsbEIAAEBhUBOAgDOqVRbuAgIHAjosuOoG+8F+a5WmBGoFmG2g3Q5MeMSSFeBaBHjVc+Jqn97+zhhqIAgEg0GcIwEHoswsGc4HAXBFohK3NE43GsWULE0397BfwOgRaoKhCTHMJNKmw+dbVqw9XRCSAABAYKATgIAzU5URjgIAdgR2XTE7SdsX3VlmYaGrgHQzL0+2Ocu4heeNjdFp7NviEKY88EAACg4EAHITBuI5oBRBwIvDI5OR4M45vicJwRA7wTmELg8vw65/ZSWBnQQbe9kgdyCe//vrVr5I0xEAACAwOAnAQBudaoiVAwIrAWKP9IXqnwtpD6aucrUIlRD5N8cjRplikKEXFtscoOjJoxF+WNMRAAAgMDgJwEAbnWqIlQKCAwO6LzjupEYWfn5YrDAsS1Qg8c8DHLvOCRT0k2x6jX/uzVasu0OlIAwEg0P8IwEHo/2uIFgABJwJhNLKFXuV8dEt/NuCUdjP4ZU681XEi3e4oJfmJQxSEzYi2Pf4Rv/wJAQgAgYFBAA7CwFxKNAQI5BHYdfEFl46E0bvnsjAxrynJyWOXzcmImZi2PUbRhiNb8btt5UADAkCgPxGAg9Cf1w1WAwEvArvftHoJrRu4pRHSCgGvZHUmb20U2x0tRXg9QhCHX7p1xfqXWNggAQEg0IcIwEHow4sGk4FAGQLhwWUfXdJorOpkYaJZB/sAh4ljl42FCCTIjzBoFuGUuHHoU2Y55IEAEOhPBIrf9P5sB6wGAkAgRWDvJRtfSQci30nbGl/S6doDE1TuMO557mDw7HQr4J0Nekh+bYT7Z9rx2l+/f/tDOg9pIAAE+g8BzCD03zWDxUDAi0A7bmyjExO77hxwpeR0pG93LD644IWMtE5hOa1jvNFrIJhAAAj0BQJwEPriMsFIIFANgT2Xnn/FaCN6Z7cWJpq18joE3u7IjoIt8LZHepX0O/7bqjWX2PigAQEg0D8IwEHon2sFS4GAF4EHJyeXhXH4VRq6o+Lve2/RykzewbC02RBveLTVwTQ6b7ERtNvbvnHqqWOVFUMQCACBnkMADkLPXRIYBATmhsCRzfYnaGHiGfwrfj7DKPUahxvHLuv18RHMtGBx7fNLj3ifTkcaCACB/kIADkJ/XS9YCwSsCOy68MLX0JkH13Vz14K1IiLyw4UjxLHLtjmEpBQvjqSZhC/8j5Urj3HpAR0IAIHeRgAOQm9fH1gHBCohEDbaX6EXKh3R7V0Ltsr5McPhIxEvSLSxBS3d9njiTDTyaacQGEAACPQ0AnAQevrywDggUI7A7osn3zoWhm+bas3vowVpCc8b8LHL/PHVOEOPOsiF+MifnrH6DFkWMRAAAv2DAByE/rlWsBQIFBB4+vJ1h4VhfDNtKgjdE/6FYh0TGlQh72bgw5NcQWx7DKOlNNmwhcTc0w0uBaADASCwqAjAQVhU+FE5EOgMgenp8U8tbTRO7/RtjXWtkMcue54yCJXJ2x7Dt3z9rNVX1K0D8kAACCwuAnAQFhd/1A4E5ozAngs3rGiG4TVT87xrwWYgzxwsp+2OtO6BTkbwB5o6COmFEDfdun79hF8SXCAABHoJATgIvXQ1YAsQqIiAmLKPml+lQ5GWixclVSzXLTF2CsboTVCHebY7cl38XGGWvImxKFoVvzj9O0xDAAJAoD8QgIPQH9cJVgKBHAK7Ljn/qrFGdOV8nZiYq8yR4cE/2e5YFGAef2RgJ4EmGz7331evPk7SEAMBINDbCMBB6O3rA+uAQAGBx35l45HNINzG6wAWM/B2R16o2Ew9AekU6I6BtC/d9nhsaza+QdIQAwEg0NsIwEHo7esD64BAAYHmoeizdGLiqfTWxAJvIQlcO291nKBPlZC+p+EDX1+5+uwq8pABAkBgcRGo9s1eXBtROxAAAikCOy/beOZoGP3uVLvVE5jQEgQxi1Dmq4h3O9HUQjMKyZ+It27mVzYgAAEg0NMI4Eva05cHxgGBDIFbr7qqEbWiW0bCcGnZgJyVmv/UEaON3HoDvUZ2DIRzkBKTbY/R5a878+y36HJIAwEg0HsIwEHovWsCi4CAFYGNz+x913jUuGwxtjVaDSIib3c8jNYhmMcum46BWZ5eF73l1hUrlpl05IEAEOgdBOAg9M61gCVAwInATyYnXxoF4daYR+QeCmzNOG1PWMbbHSld5hiw6byjgd72+PpgZOwjnEcAAkCgNxGAg9Cb1wVWAYEcAsub8Q1Lmo2T+VXKvRb4NMUj6TFDVcvoVGhyEoKgEUSf/svXr3l5r7UH9gABIJAgAAcBdwIQ6HEEdl86eQ6tO/hwryxMNOFix+BweszAjoIvsGPA/zjw4U40i3D0TLP9RV8Z8IAAEFg8BOAgLB72qBkIlCJw2+RkM2zHvDBxopcWJuqGs138iIEfNZizCNIpkI6BXk5sewzC9/7FytXrdDrSQAAI9AYCcBB64zrACiBgReD0Zvwe2hd4US8tTLQZyosUebGifAIiHQObrKSxM9GMolFauLCNd2hIOmIgAAR6AwE4CL1xHWAFECgg8IuLL34ZLfq7kRf19XrgBwe83ZGDbbZAMCx/ZuhFU/TCp4vDnzxylYUNEhAAAouIAByERQQfVQMBHwJjwcwXl0SNl/eDg8CPGQ6ntzua2x1t7WNnQn6Yz+4PHca4+Rvr1h3GeQQgAAR6AwE4CL1xHWAFEMghsPPiC9bTIr7fXsyXMeUMKsnwID9Oozwfvdx2yOpOgS6Sbnt8zcGp2Y/rdKSBABBYXATgICwu/qgdCBQQiFevpqf5AS9MHOv9hwuZ+fzSJt7NYD4RcTkGWckg4O2bURhd89cr156i05EGAkBg8RCAg7B42KNmIGBFYM8Ry3+LFiZu6vWFiabx7Mzw2x1lp1LFMZA62vSgYbQRvmS20fqypCEGAkBgcRHg7zACEAACPYLA45deevxYMH0Xvd3guH5Ye6DDxp3JNC1GuOe5gyKu0rno72lgeTqCeSYOWhe/9e67v63rRhoIAIGFR0A6+wtfM2oEAkCggEAznt48ETX6zjnghvAMAu1ISI5dLnk2YjuSmYs0wnCkHTe2/RE9ZmGdCEAACCweAnAQFg971AwEcgg8ftH554+G4fv6ZWFizvg0wwM/P2aw+QfSKdBnDUwdfHgS7YTYdHQ7/DWThzwQAAILiwAchIXFG7UBASsCD19++dhIFHyNf0HbBldroR4k8gJFXqjY0J4vSMegsrmkJIyDL//tGRuPrFwGgkAACHQdATgIXYcUCoFAfQSWzBz44JJGY90h+gXdz4Gdmwk6dpkWWYpm+GYL9HayPyE/vPaCtky+8lDz0LW6DNJAAAgsLAKan7+wFaM2IAAEEgR+fsnGVywLGnfSAr1jWvwTvM8Dv7Tp4RcOBXsOzlZ4gZO9sfRqa/IY4l+2WtHat997x0/tUqACASAwnwhgBmE+0YVuIFABgYk42jLRaAyEcyCby48ZfEHOFrhkeNvjSBgdHkTtG10yoAMBIDC/CMBBmF98oR0IeBHYeemmi8ei6N39vDDRbCBPgiwXxy6bnOwxQpFTpIgFi2F41f+3as3FRS4oQAAIzDcCcBDmG2HoBwIOBHasXz/RiKNb6NFCs/8fLGSN5LaM0XOGpeQk8Dsa5GwBx1WClGdZ6qB4vePWW1esGK1SFjJAAAh0DwE4CN3DEpqAQC0EmktGrqaFiav7fWGirdG8DuEIWqxY1SlgHbpjIHXyEczkbJw7NrLkvZKGGAgAgYVBoM73d2EsQi1AYAgQeOIN558StiNamBgcNQgLE81Lxg7Cc9Ot4IHnp0qdhLJOiLZ+0kxE/PihoHXOO++550mzLuSBABCYHwQwgzA/uEIrEPAi0JoNt9FWwIF0Drjh/GhhKc0gjJOnwI8czCBnC8qcAy7HDtRYI3rFWNi4ztSDPBAAAvOHAByE+cMWmoGAFYEdF11w+XgjfOfB2ZaVPyhEOhGRjl3Ov91ROgZV2ygPWRJvewyiq//6zDUrqpaFHBAAAp0hAAehM/xQGgjUQuCJN7xhaTOMv0oDZUP8srb9vK6lsbeFjxhNtjvWcQykU5AcspSU5BkJcjiWxY1gS2+3GNYBgcFBAA7C4FxLtKQPEJidOfiJpY3GSt7Cl7zeKI0G0FFItjtGNLBXuzDSMUikiy4FY9YMw7f+3dlr3lhNI6SAABDoBIGKX91OqkBZIAAEGIEd559/Gr3t8NP5XQvsGaTewYA5CdwcPnKZP76mlTkGjB0H1kFuQ0QPZrbdeuL6CUHEHyAABOYNATgI8wYtFAOBPAJhI755LGocYd+1kA6hvpE0r64vcryb4TBjHQIbLp0C/TFCstHR3iw5n8DvaaCDpc4eO2bmA3ZJUIEAEOgWAnAQuoUk9AABDwK7Ljz/zRNR9PapFv3+dToBg+kkHE7rEHiA5yAdgzTHlCTp+CsdA53NTgKdsPC5v1uz5lidjjQQAALdRQAOQnfxhDYgUEDg4XXrDqNf0jeHFJRvoBKmuOYkOGXMMr2b53UIS+kRwyifh6h8Aduwn2+DT0Jse4yi49ut4Pp8KeSAABDoJgJwELqJJnQBAQsC4xNj19LCxNclCxM1AacDoDG0pFayb5JsPjsHyXZH37Cf+A9+iazZjCUdUf07f3fWmrMyKlJAAAh0EwE4CN1EE7qAgIHAY5s2vW40Cq7NL0zUhHgEtToBGsPK13T0eJIH/cM9WxmqOgWymSzPkIyE4ZJ2FG+lNJMQgAAQ6DICcBC6DCjUAQGJAA9czWZwM50muLwV87ZGT3A6ASnDyffo7BFWst2xQb/48wbNxTHQVbDTRa+EvuJvzjnnzXnNyAEBINANBOAgdANF6AACFgQen9z0jvEwfPNUi5wDMcCXjPJOdsrgyCljMaBHSGzyBB27LLc71nEMpKzuGBjNCsN2eNM/rFy51KAjCwSAQIcIwEHoEEAUBwI2BB6ZnDxiJAi+wqv21ZguEipnK6YJm2ytnJY0pXo13yQclpOTkIHht1Q6Bn6pIOAjmMej6IypkbEPl8mCDwSAQD0E4CDUwwvSQKASAo2w9RlamHfaNJ8RrAeRNWg6n9PMtopoDCvfVNRb+cNHkmOXXVZJp4DjKkFumZwlsJpB+JlvrFt3YpVykAECQKAaAnAQquEEKSBQGYEdmzatpEcLH5+ifXjWIAb3CiO8UyRlOPnWWheVyOsQltEMgm2tonQMqhooHQMpn2x7DI9pzbY+L2mIgQAQ6BwBOAidYwgNQEAhEG/eHEVRfMtYEC41Jw+UECfE4F5hhHeKpAwnP1fbomfYTDpmOlhCZyLI5ZqdOgZ6o3jBIs0ivP+vz1qzRqcjDQSAwNwRgIMwd+xQEggUENj5z//0LlqM98aDNGDZHxNoRcTgzn9KRnknO2U4+VpdPZAUxy7TYwY+LarqYwQ225wxsDWFIWhGEZ1kHW+Lg83o12wggQYEaiKAL1JNwCAOBFwI/Hjt2qNoMd7WmOfTZdCSkpSLmS9kSgSd7JTBkVMmV+OiZg4jB8Hc7mgzSDoFHFcJLMaHJ42G0aX/c/U33lGlDGSAABDwIwAHwY8PuECgMgKHT4xcu7TZOIVX1udGayNrVSgG95IR3qlHK6clrfUsIpEfuSyhUxX5UYPLTOkYVDXTfEzBettBvOU7GzYsr6oDckAACNgRgINgxwVUIFALgT10YiKd7PexKX60oIIxDBpZJSYTgl8mRMJWESamDCtfVrK48Qg5B7xYUZ9kkU5BndkC0zGQreIXOdG2x9N/OTX9u5KGGAgAgbkhAAdhbrihFBBQCGwO6OWCtDCRpreXtwsrE7WBm0uUDd6Cb5RRNWkJp56U4eRrOhYpyY8ZOEjHoKoZLqfALD9NTgK9p+FTf3/WuSebPOSBABCojgAchOpYQRIIWBH40AUb3zEWRVeKhYksYR2cNaKWtCpkvpApEXSyUwZHThlrzfNO5JmD5c1GUHIkQs6Oqo6BLMRrQMbC8Ki42fqSpCEGAkCgPgJwEOpjhhJAQCHw2MaNR9KXaFtuYSJzrQOzRuSkllUK9YTglwg52RpDS+rqFyPNpozTOgR6DOBtvnQKOK4STPl02+NvfOOcczZUKQ8ZIAAEigjAQShiAgoQqIwAHfzzmYlG47RkYaJRzDowG0Qja2ioPpNg1cPElGHlF2pbEALvYlhOUwg8m2AGOdCbdFfeJc+q6THDSNAOt902Odl0lQcdCAABNwJwENzYgAMEvAjspRMTadEdLUx0nJjIpXmkKgyEBsHIFioV/DIhWz1SU1q2ggpZYr7jw2ihIg/uHOQgL/MJ1f23mnxI2x5j2jERXTD1/IvvcmsDBwgAARcCcBBcyIAOBDwI8ImJ7ah9C72QyX9iotRRGJwNgpGVxVQs+PynRNDJThlOvqpp3hO8jnMpOQi83bFOkI6Bv0wmxYsgY85G4ebbJs86wl8OXCAABEwE4CCYiCAPBCogsPe2f/pXY2H0RrGt0TZXbtNRGJyZoBG1pK14NhtRIuhkpwwn31rrvBBpS6hwEqpAlw35PlMyKX13RLrt8VUH949c4ysNHhAAAkUE4CAUMQEFCHgR2HnxxUfRccH5hYk80lUZ7ayDs0bkpJa1GiL4JUJOdsrgyCljrbWrRB7EeR2CL2RDfjUp3THQS/C2xya9POtv1q07TacjDQSAgB8BOAh+fMAFAgUEGjNT19P7FtITEw12N5wEVlk2eAt+iRCzrSIaw8o32jQPWYZpOT1mMJ8ySKeAY3fIpKRTwLErtKmykSg6otGON7tkQAcCQKCIgOdrVRQGBQgMOwK7N206eySMvxMH8YR+ZmIBF9+IpQsXvoEGwcjqRUVa8VWiIJKXM9lpuZLiZqlu5Nk3+dHzU8HBVptOmqoSMiOrwiu1ckmaRZidbQdveOP222+TdMRAAAi4Eaj2vXSXBwcIDA0C8VVX0Zw4LUwMw4nCgYkmClVmErhM4Rc8EzSiljSrEHklXiLoZKcMJ99aa1eIdByCmEXQm2tXzMN7qE5erOocJKWSXRKsl7Y90huh4223rlgxaq8HVCAABHQE4CDoaCANBDwI7Nu7590TUXSJet9C2aDKTkIVR8GqRyNqSad5QqZE0MlOGRw5ZZw1d8TgUxXtIRve2SGo6hSwLlnS1Cve9hhF65dPLH2PyUMeCACBIgL8XUIAAkCgBAF6GdPRUdC+sxGGJ/HK+EIo+yZVGeGsOgyikbXbUSZEpZwiKcPJL9Q4ZwJXcYimYn78/MGgpSDNKq4CmV55VlKn5tP0mCGYjYPHZuLZc960fftTeS5yQAAI6AhgBkFHA2kg4EAgjFufn2iwc+BYeaAGOIcCm1NhirKOgh6DYGRNFUl5q6K8qFNPynDy82o6yXEVfBYCnUQZtMWBBZ0/Riizh527iSg8aTRqfqpMFnwgMOwIVHG6hx0jtH/IEXjqgvPW0JG9/7sdxOOZe+D46jjICsKqP4sLegyCkVX6ZULxVUJy8rGTnTKc/LyaueZ4F8Oug7PB7oMzhR0NPp11zdLl+VdRGIb741a47tK7f/BjXz3gAYFhRgAzCMN89dH2UgTuWr16ZLYVf42mpsfFwkT1y1ol8jocZCVUZSaBhQt6mKARtaTSrSeUeImgk50ynHy9srmnGQ7bdkeXRh7o9cHeJSfpNnl28uh6LqeTMLdIOcRAAAgUEYCDUMQEFCCgEDhxYvQ941FjUi1MZI4aNFVCyYuEg6yEeFSs4ihY9WhELal0mwkhUyLoZKcMjpwyZoX18qyWHt2IRw2+KmwDvasmKetzJHjBIq0nefs/nr32Mpce0IHAsCMAB2HY7wC034nAvsk1x9JU9I3WRYlqNOOEymS6LKSMmaa65SSU1SX4JULMtopoDCu/0KraBHrhVbC0Qa9/NvRXGej1yqS8TnOluSryS6K4EWz948nJcZcc6EBgmBGAgzDMVx9t9yLQmh754kTYONHqIHDJ3ICWyyR6mWQhJ8z0rzkq5phSpgKxtB7WUSbkE0nLVlBhs7aMtpzemy1DnYGey9SWpwK8FIRf0T0WReec+OKL75d1IwYCQCBDgL9bCEAACBgI7DzvvPXjUfAtWncw2q7yLVEyKpHX6CAroTkvXmQNmnItqXTrCcVXCZ2bpZ3slOHkZyqqpljVFAH9EJ2qWNX/qFu9C156zBDQ4tNdB8Jw9Vtuv31vVZshBwSGAYHMbR+G1qKNQKACAg/SSXs0/fw1GjxGxa6FKqOWklGJfE0OshLimYRuzCaU1kM1CpkSQSc7ZXDklFGtqpRgNWP0mGGcHzOUlGDHoI5zwI6Byzngqlo8ixBGJ4y32teXVA02EBg6BOAgDN0lR4PLEDjyiMPePx6FG3lhIr1zIRHnqGz0UnyVyFflIOeEuuUklNUl+CVCTrbG0JK5dtTM8HbHZfTyJlfz6zgG0inwOQa6ebxgkXY1fPB/rl17pk5HGggMOwJwEIb9DkD7cwg8uWHD8TRz8GV93QE7CTlHIVfCyKgBkxMqkwk5yJkAF7OUywmwTPrJ0Y1yRjYnyhnBLxFitlVEY1j5hdpKCbzdUR/UpVPAcZUgHYMqsiwj9bP59LbHJVEc3ETpqtVVrQZyQKBvEYCD0LeXDobPBwIzcfvLNHtwnO4gyHrqOwlc0jF6OsiyrkpOglW9odjIKv0yIfj8p0TQyU4ZTr6syB/zGRNLyEGgF2EJwTqj9FwdA92iQzSLQHVf+c9r1lyp05EGAsOMAByEYb76aHsOgX0bNmyiQeL9/PphV+gfJ0EbsbWktV2KrxJWMbcPkZYrKW5XmlHZOVjqecyQSSapbjgGuk5ySsI4CG+iw7GW6HSkgcCwIgAHYVivPNqdQ+DhU08da8UtXpg4Imb4PYNdzknwyIkBVfFVIleve9BNxao8bmBRq3qNqCXzBsh6pI4SQSc7ZXDklLHWrIg84PM6BF+QTgHHVQKLyU+ZfLLtsXHmL8PmB8tkwQcCw4CA/9s4DAigjUCAEFh29NG/MxE1zuWpZhU8A51yEljYIyd0Kb5KqCry/DxZ5dhJqOIoWNVrRE5qWaVfTwh+iZCTrTG0pK7el+YmsoPACxbNIB0Dk+7KV3UKZHl6TZT4Jx4thcH1f3Pm+hMkDzEQGFYE4CAM65VHuxUCu9aseTkNSl/gX5CFYCFJGXYSlKPgkRPyis8JlZGqEpKFnAlwsTIBu+pCfWVqBL9EiNlWEY1h5edalMuw+HgUiS2Psuh8OgbSKeBYBrHtMYpeNjHavkHSEAOBYUUADsKwXnm0WyEQNRo30sLEl9kWJgohbcxThbREfSeBC8shUFPkISupqk5CQb1BMLJKv0wIfpkQCTtFUoaTLyvKx3QUQrAsPVVxPh4jcG3SMcjXnOV4FikKw9/6X6vWnpNRkQICw4cAHIThu+ZosYbAng3rLqR3AbwnWZjIo5lnRPOyUqZHRlTLfCWjEppFOj9PVrkqTgILF9TnKrfwVQ1JQpQ3yhgiIluoRwqlDCdfyuXjZc1GnuDIzfUxgkOdIrO5tGByPBoJt8abN6OPVMggMWwI4OYftiuO9ioEYn5JTzu8hX4tNsUYxn9UQonlE4KfJ8lcbibBIyfkFV8lpJokdpCVEDsJVRwFqx6NyEktq/TLhOL7hHw60nJKj1Rsj7lJS2gagV/gZAvSKbBziyXkbIH+GKEolVHkI43puB2MhuFl3/z7v397xkUKCAwXAnAQhut6o7UaAnumpj4yEUVrcgsTmS/GtHRg0+RV0svSmFpSldUTis8JlckkLKSMmaa64SSwqrK6BL9EiNlWEY2oJdMW5CJmj5JzME5nXeui0jHICXsy0jHwiORY0jHIESlD+x5v/KsNG5abdOSBwDAgAAdhGK4y2lhA4JFzzz2Z1sPdMO0aYMXopA9RhgpmOdjJ0sWU6ZBR2nL8XCYRYZKFrMpzwtUGXciqx1BsZPXiIi34ZUJsT6FkSkwZVn5WhicP5LHLi+UYsDW8aJUWTb5u2Uzr6sw6pIDA8CAAB2F4rjVaqiEwFgQ3TYTRS3nVujMIFv8pk7FryD1ysIsk1FwVjrocZKXW1w4lRImCnlzlFr5eWJY3yhgiIluoRwqlDCefTCDeskbDut1RatFjOVtQ9zFClUWQ7CTQGyKu++aq807S60QaCAwDAnAQhuEqo405BPauW3cpPV/+NbEw0TNQiUKKrxI5XXkZGyst5ymuSikZlVCssnoSvqNcXovDCdDKakmzqLJDyJQIOtkpw8Fn8gStQ+BHDQ4RYYZ0DKw2WoiuxwgW0VR/ELTJQRiLopeGI+0vuuRABwKDigAchEG9smiXFYHddIxuOwxvoanrhhp8VMJaJBlQhYxH0MtKmRx55ETtiq8SeaMcZCU055kE1qAp15JKt5kQMiWCTnbK4Mgiw9sdebGirTkL4Rjwow0ZeI1KMwze8621a9dLGmIgMAwIwEEYhquMNioEwtHGRyeicBWvUs+NTI6BShXkhBjILKOZFPKyNKaWlEVzseKrRI4t7HCwhCCPqraRNa8l1/yMpSnmpJbNZLSU4JcIOdkaQ0uydh6g9WOXpVMwH48RZH2u9Q5sGu10GaX3NGy7bXKyyfIIQGAYEICDMAxXGW0UCDx+3upX0UG+1+cXJhojk5EtQCf4HiEvK1m+KHR65PJ8FnQIO8jK5qpOQkGPQTCySr9MCH6JELOtIhpD47PpS+k8hCY9F6jqFLA5c3mMoM8WyCaZ8TTPIkTRhfGBA+80ecgDgUFFAA7CoF5ZtKuAwEiruXU8DF9SXJiojUxcysgWFAk+/3EIeliJ+rSco7iqL6fHIewgZzrKBFLJgphBMLJKv0wwXzgkJYJOdsrQojGx3ZEeM8g6PPF8OQZ6lTG1j5yVzf+4evXhOh1pIDCoCMBBGNQri3blENizbt0VdDreO90LE3kY0oYiLZlTJDNK3CPoZaVMj4ysKjPLIewgZ+XLBFLJghgTNKKWVLrNhJApEXSyUwZH9OHtjr7XP0ungOMqQT5CqCieU8ll2LGkbY+n0dHcn8wxkQECA4oAHIQBvbBoVobAEytXLqXcV6mTj9TYpBKZXJLSGJzUsqakyAu+R8jLSpkceeSyejjlEHSQRVlRjATEL3xFsSesejQiJ7WsVYnglwg52RqDkuwgmA6AdAysdVuI0jGwsEpJZll+PNUIwk9+c/V5ryotDAEg0OcIwEHo8wsI88sRaI+Pf4JOTDwjv/aAymljUV6LwTCyeVmpxyPkZXVxXQLX46lL2N0NJ4EVldZTQchpb8JoU0QLSvm9CML0Oo6BHNiTkqJ45T++sum2xyOiqLW5skIIAoE+RWAu358+bSrMHkYE9q1bdxq1+w76GXpEce1BiojzW2AwjGwBT8VXiYKIWJ5fpAqKWoznKa6KKhmVUKxUWT5v5syf5SZf5gvqDYKRlcVUrPgqoVi5hIPNmDx6cDrYP9v2QadUOdQovi9RtSzL0a6G2dkovOSi73//X3w6wQMC/YwAZhD6+erB9lIEyCn4Ch2K5HYOWIPz17DBMLKFyhVfJQoi7rrYjLScp7hSqGRUQrFEwkFWQlVmEli4oIcJGlFLKt16QvFVQudmaQc7pJchLHOch5AVTrZFVh3g9XKc5nK1ypJwMwqbYbu97a7Vq0dMfcgDgUFBAA7CoFxJtKOAwK5zznkzTU+/Y4q2qJU+f+cByjpIGQyrjFa1ErcLioHIzhJKFtxJqOIoWO3ViFpSQyJLMl/IlAha2GweH5jECxZtgckOlk08R6tbVn/Ewdse6YTFDS80m7+RU4oMEBggBOAgDNDFRFMyBB5et+6wKIpupkGAfoOmgUebsgFRCctCMtYYWlJyC7GQyQvy0Uwv0oN1MaDlWbniOSfBIycKKb5K5HTZnZ68SCkmLG5VrxE5qWWNGpKs4JcIGWzO8psdecujZMmBXeBorchNrFtWOgW2JzK8HoHCl/5p7dqj3DWCAwT6FwE4CP177WC5B4FlcXzNEnoTX2FhIpfplpMgRyyXHYKfCDVIZsd0K7h/apbeEpj+6vWUT5YupgIeOVG14nNCZTKrHORMgItZyuUEWMYkcN4gGtlCCcEvEWK2JkL+gZhFYNpcnAK2QToGBXscBOkYONiCPEuY0bbHk+kApWt9cuABgX5FAA5Cv1452O1EYPfZ576WBuRrp3yDno/HmrUBKl+RwTCyedlEDx/182SrHTw20woOUL0cq4GOy3t05GYTCso1Qk5HLpMJOchKoAwTFmQdBT0GscBXNSQJwTfKGCIiK/VQzMcuK8xsshaadAqqlpNOgW22wKKe7AmDGZoRom2PH7tt/frTbTKgAYF+RgAOQj9fPdheQIDGkjCI2jePhtFhbd4n5wtlAyIXt6owGFaZpGL+gh0gO356aFao4pmEXeQgPNvi1whrwaOjlpOg9KiEVgklHWQlVIaJFLTq0YhaUhbJxcwXMiWCxGaJCZpGoKUIlYJ0DCoJk5B0DCrLC9cgcTv4sREtgl0exfGNVctDDgj0CwIVv3L90hzYOewI7Fmz5m30vPrNYmEig1Ey/oip9bJB0alDY2hJeQ14CGnR56FDrWCK+MmQQq8QJtrPp2eDWYoljZJeW3NOgqUuUV7+UXyVkJwkdpCVEONRhgkLW/VoRC2pdJsJIeMXZFP4LASazrdXmepkLHN4mnUZ+U4cA11V8rbH8B3foteI63SkgUC/IwAHod+vIOxXCDxDZ+TTtO/NNJ5kCxOZ6x9/kvJlA6JTh8bgpJblwerntO7gWZpB0L9onP4l0XbSTIJOF4Zo5UVe+9OX6xIMTLTmZEnRZk/DSZJxWmrZ7iidgqqOgXQKOK4S+DGC/OeSZ8vpAUiDzkbY+o3LLx9zyYEOBPoNgUL/1G8NgL1AQCIwFUXXLYnCV8+IVzlLahpXGqj8g5Q++Oe1G+Uoy48S9tDhPrvow2kz8BfvcXIQnjecByFXYmtuNsFUrOdzZuUymZSDrATKHCcWtNprKDaySr9MCL5biM1YSo8Z5HZH6RjI4mWxdAzK5CS/zCmQcjKe4W2PYbR26dPPvU/SEAOBfkegoh/d782E/YOOwI7Vq88YCxvfi8N4GU/hJ8FxezvIslTh8H/F0BJOHTSIkdjzNKLdSzsWCo8RNBVs50voV/HK8aZGNZLOeng6PWV6ZJQ2JaMSiiUSDrISqv6TWxXJEppyLZnxtZTiq4Riki8V/OLAdMA7U4pcJaYSVU2WBRSeklASmzY0qEI6mGvnwUa0+rLvfW9fSXGwgUDPI4AZhJ6/RDCwDAEaN6JmGN48GoXLeBDJfulzxhIcZCVZ9VezKpAleLf+NOl/iB4tzBDZHEQyyWTa/Bna3bBntmWdZRCyHlsrzySwIqVHJXRTNH6erHJVMGFhq3qNqCWVbj2h+CqhuLzdkRcrFjlKRCTme7aAr6ntuvJR3vTOjxPHW+3P5C1CDgj0JwJwEPrzusFqDYHda9ZcRbsWfkUtTGSeGkVUQiuh8/NkleMBsWxQdKh+eGY22G97dKCUZwkeaB4lZ+JFqss26AhJRz3MyzkJHrm8HoeggyzKispIoAwTIadKaAlNuZbUBLIk84VMXpDx4XUIrrBYjoFuDy9YpEdKH/6X9evP0OlIA4F+RMD9bevH1sDmoUPgsY0bj2zEwTY1pugIqPFFJXRuOgjlSYVc2YCoqea1Bo/TmoO9tIXRtu6goJsIPOgdIh2/oJ0O3t/GWj2mHuUkMMMjJ8opPidURrDy/IxUSJVhwgUsqnNER/W5uoSOTBGn+NhlE9tecAyk3WLbYyNaGrXbW8hep88n5REDgV5GAA5CL18d2FaKwOihQ5+lad1XzbgGLTW+cEJlMr0OcibAxSzldAFi8xfpKZo1eHSmLdJ1RgYuywcp7RULGj11eWxlJ0E5Ch4VwuwcP5dJWuWpJxGgv2WYsKBVj1GfkVX6ZULwEyH+S4+RgjF+1kChjmMgFx1WXWfANciPqKzkj7SFY35PA52u+JZvr117RUkxsIFATyMAB6GnLw+M8yGwd9XaM2n24GO5Rwu2ArlBKJfJpB1kJeAZEHkgOUA/HX9KjwpYDec5yAFGxgnV/feR6XYwRXqSmQSPQV5WyvTICAuYr2RUIm+cg6yEPJgoGU4U9DBBI2rJXDmZEfykDHdYYrujBFnKOGLpGDjYBXLVayULSsdA5jlmS0MOjcbW761fP6HzkAYC/YQAHIR+ulqwVSEQX3VVoxW1bqEDdJaIhYmK40gk40vKFCNOUdBBVoKWAZEHFJ5W/iltWdQPQ1JltIQcfGxjG9N4HcKjpEcc4iBs8RjkZaVMjjxywjTFVwnN4irlHeXyWhx2aGW1pFlU5JlPH54l4ccMNgxlOekULMRsgazTjJNtj+FZtHDxd0we8kCgXxCAg9AvVwp25hDY9/NH3zUeRpclswdi5HAMQrlimoxjRHKQlRZ2EjRHgQeqR+ixwjMVFyVKPVxOfiSNn63z2QnPyGOYhS0eg7wsjaklZV25WPFVIscudzKonIZJvrCWs6rXiJzUslpJleRqJugxQ9PiIUjHQAmXJEz8S8RrPdJgXbyrger43F2bNh1Xpht8INCLCMBB6MWrApu8COyk1+vGUXAT/3LPQjq6lAwwQl7JpGUyJUnKQc6JUefPA/oTtHZgJ33MhXM52ZKMHKg45jb9nGYRZskGzicDpjKYKfngZc1lXYKj8Q5yzpiqTkLBZoNgZHN1UIZPjdCPXe41x0BeT3YQyM5jp2ZmbjDbgDwQ6AcE4CD0w1WCjTkEGq32DRNheIp9YSKNLiUDjFCWk8llsrocZBbgLw6fgvhzmj2QA4IY0LPSc0qxo8FbJHfQ2Qjqyyns8BjDLC87ZXpkhLE5PQ5hB1k1toqTwMIFPQbByCr9lGCck+2OiWug81zputdIri3guEpw6RfbHsPwA//73HPPrqIHMkCglxBQfVAvGQVbgIALgd1nn72aXq/7Ef/CRBpdPAOM0s0ySk4lFFskLGQeDKbp8xNyDszDkFwDRV6pP8dOwg7Sze9rUF9QYQf/sRgk1XlZKdMjI9VkVTiEHeSsfJlAKlkQY4JG1JJKdypBR2pn2OhMIy2vh0F2ZqVj4BQwGGX6uQl0iNcEXcetmxO/0tCALBDoXQRU/9O7JsIyIJAgcNvkJD16Dr9GCxMnaOzMjSVFjEjAMcAUZJWcSuRFLGSeOdhPv5Z9XyA5eHBcN/BbIH9Bjxpyj1HYDmGLxSBZgZeVMj0yUk2GnUPYQc7KlwmkklYxjaglpW4m0Rs7+TXLmZmSmcYSe4PszHbbMdAr4m2PdM9efsm5575VpyMNBHodAV//1uu2w74hQ+D0/fvfPRY1LsrNHlgGkAwWYnr5mWQm5yiQksWve1pEWOcwJK5FDlhVnQX+Yj5L9Vhf9iRscdjJlXlZKZMjjxyryfgOQQdZlBXlSaDKIwerHo3ISS3Lqvk62I5dljizTFmQTgHHVYLUXVFcXXPWLcrG8RZycpdVqQsyQKAXEICD0AtXATaUIvDEyvOOodmDLbzwqxAspEyGmMz3yqTSSsZeICLy0zR18RjNHogvjhRT5bJafamqAw3L8RsfX6A6C4OSqNNTsZelMbWk1WbF54TKZKIOcibAxSzlcgIsYxI4bxC1LCf57Y46lgWMbCqJJh0DB7tAlnUUGA6CTZ7Xy4w3GitGDh36iKMYyECg5xCAg9BzlwQG2RBoNw59nhYmvmLW9ipnLsAjhjaA5HWkTCdfk87JZBnu9A9S9mFyDpgqBwGORWCi/KSkKlFBj1aIeXwMM2+jtAauz91orz3J/gahwKtC1JtrV1rGNMhBVmJVnYSCHoOgZccd2x1VnUZiMRwD3QR2EqjD/fR3Vq9+hU5HGgj0KgJwEHr1ysAuhcATK1evo61tH5qi7YRJ0EYJJVXOEiOhp6hSxTJKLklwzQ/TGQW2w5AKg7wsr3Qozd6ErofTHHgqXR7DbP2yijpkhaJI8Y/HjsrHM7NWpUcl8nU5yEqoipOQq0eWZMWackpyjp7rB2P00TiygIqlU8BxlaBfg27LJ9sew6PDkZEvVNENGSCw2AhY+5zFNgr1AwGJwF2rV4/EjfiWkSgaE+4BjwZiRPAMCx6WKOzly5plPbz0nE445AOMaLEZp32hMMCwuP7xFTZ4ui6eReDZBOs4J/X7bGMZR8g5CR45UVzxVSKv1UFWQuwkVHEUrHo0IiW581rieP2zdAxUvSUJiXWJmGLXlqcCbNMhelxEuxre+/1zz12nlCEBBHoUATgIPXphYFaCwImt4L3jUeOC3MJEZomxQhswTMA8LOUkeGUShfSuB7EgcVfuMCQuqH/MypO8HEQ4VqG8mBKVCf6STtGgKo5hlkRbzLo7dRJKVIhqRT0eQdlGIez40wUngVUsiSLhKMha6jgG1usjFVniuvKsIrMnKc3Q0IucRuMw3HYrHRduqQYkINAzCMBB6JlLAUNMBPatWXMsdbCbZ12DiRioxB+zaJL3sNQA75HhL8fzVPcvaPbAH1iJ/NglrYOLLOKxQWrjkeQJsuNp+ni/tEKXR6GX1cWTF9lwT12iXa7rKpjpH9ZR0JMQ+C9vdxxhQAhgHoyrBHktqsiyTG351JbEnmJpPjyJZsQuPmHXrquq2gA5ILAYCHj7msUwCHUCAYlAa6b9JTqq9gSng8CCYqzgP8mgIcuq2MNKZEjAUpS7dT4E6WE685jjdAyyT/EnitK/skKL0lRCDhkcq1BeTIj+gh41zJBsrqxSkiaELqnQZFLew2Lp3CMHS3FFyunhjCU4yEqyipPAwgU9SeXsOPGxy1WCxL2KLMvUlqcCmZNSUpraTVbf+IN16w6rag/kgMBCI1Dtm7XQVqG+oUdg11nnbKBFaB84qBYmeiBRg4dKFIU9LDH6WPg8c/BC0pHn9Mmun2N/YKUWxVohqy5ZzCjKsvzGR976KN74qOmxJkV5Q4ku6GWlTI+MUqVkVEKxRMJBVkJzdhKSQZxPVfQFibFPRufVlqcClR0Dqoj1s9M7HoavjhuNj+t1Iw0EegkBOAi9dDVgi0DgwRUrRhtBfAsflifGlrIBhkuxTJmwVw8xUz5/KXbxYUi0oKzsCyIHE47dgRXrH7ukVZdRjO3ZTY6LOIY5tdeuLaUKGY+gl5UyOfLIiZoUXyXyZjnISoidhCqOgqGHZzv4HGPzOlmxVJUVE7XlqQA7BfnHCKzFHmz6p6m9ZPc139648ZX2UqACgcVFwPxeLa41qB0IEAIvGR3/AD1b3sDPatXIZAwMTqCEnEfYw+K6+DCkZ/kwJJq5cHf39tptg4Bdko2QH7uEVVdahHwXcQwzH8dcoiZRzuWEYJIt/BX8AlUQ1OMGznnkUmEROY3i8qU6ygTyOliaj1yWxy5L3FJDSqPa8lSg7mwB12ELbXIQyO6XNFqtL9v4oAGBxUYADsJiXwHUn0Ngx5lnnkA727+UX3eQDhocpclcITMjZDyCDhZ35FNUwc/IOWDXxNWxm9XZ8lxWfmz8jMbGyE9G1VNSj7SHv7TP8THMtB5BLYN3tEnpEXyPkMeEZOliWtajQtSV4+cyypTSa1h1JiFVz3jwdsc6QWJapYycKajqGEjdVSwSCxbD8Ndu37BhUxVbIAMEFhIBOAgLiTbqKkWgEUabJ4Lo2LyDwMW0wUZLOhUKGf7jELaw2Cn4GU3f82FI/MWo09E77TD0+AcNaZTDZk0XOwb8SujcC6PcxRLzBF/WkZAKfz061GyCR0boy1XhEHaQlT1VnAQWJj2sitch+LGtfz2lY5DYVH43SIlEvvyvtJfORRiJ2+1tfOZHeSlIAIGFQwAOwsJhjZpKENi3atX5o0H03oP8aME6gDAxZVj5RgVK3COcsviL8Dj9Kn+W8rYvhez8Zadu1FQrW02XNN5uO+ugDRbBI9P8xkdNRktajWK+kPEIelkp0yOj6lUyKqFYIuEgKyF2Eio4CizCJyrSqz6tQeJtZVqIdsfAIpiSauuncrqpPIswGkWbWqOjv+auBRwgsPAI2PrChbcCNQ49Ao+cPDneaodfiwL6NSXRUAlJkHHKcPKlXBoLObcwrzvYR+sOdlVYlMga5YCgd/JGjZWz1XSx7fKTqeYv7zO8mJJmPWhRZ8YoimY8mRLiWhlJl7GXlTI58sgJVYqvErKGJHaQc0IVnAQ6ijt37HI1XLNapFPAcZUrXFu/pjWrNUvxegRa3PDl+zZuPDKjIgUEFhcBOAiLiz9qTxEYO2z/ByeiaN0h82VMzgEkZTj5BrRCrijMX4AXiPwIr/ybQ6g7UPiqqKaL7ZSfZCjjt0seIFLhrQRlTRJ8j5CXlaxMEO3xyOX5LGgRdpBFWfmnxElg7OR2R05XDdIxSOTlFXCXLpfIl60qL7Y9RuErD7Rnr81rQA4ILB4Cdb5Li2clah5oBHavWP2KRjO+MwzDY6yvc+bWO+9UjaElnYApmeSZ9SwJPkiLEtlJUCxn4eoMyzBYvbAhWaaL1068rBEFp481xOLKQkvKGqb4KmFYQFkvK2V6ZITCHD+XyepzkJVA8hNfZWWCi/Fx1DvpkUuVkFdTVqm3+YXqyrUVioidEREbFce/bEeNteu+852fFqVAAQILiwBmEBYWb9RmQ6DR3kKHxridAy7j/JWpMcpG0pyeRJhnDtg54C8Cd+z6h8XnGrqlh+sv08W27yMn50lqS/KF1jBhBWW4KHGPoJeVMj0ybEb+GjqEHWRRXuiwCzCVtzryGx7tEoQjASk/5ahWkVBWiYS8TnmqOydt4ZiD2PYYRYe327NbEgr+AoHFRSDpTxbXBtQ+xAg8sfLsi6hjf3eyMNHVtWsAOUVShpOv6aAk3/h7aM3BPvrV6foS1O3w8zVkOaknHQcyxhxSPl2P0q/naWp/Vo8GhpZ0VitkPIJeVsr0yKh6lYxKKJZIOMhKyPG4ga/jhOVURTkQJ+UlgkpbIVEukS9SW54KSKcgr4nf9kjvaQijX71j/fqLTR7yQGChEXD1jQttB+obQgR2rF8/QU+yaWFi0FRjAnf+jgFAQaSEFSVNpAwnPxHjm/45mpd/jBwE7tzLghwAqsguli5u0wHCTRzDnDNCA0NL5kT0jJDxCHpZKZMjj5yoTvFVQreiQnkqZ7lPdAehnxwD2XhGoxGGjTiMt37j1FPHJB0xEFgMBOAgLAbqqFMg0Hhh6iO0MHH1IUtHb+v8c7A5xhU1sjj4PMhP0efn5Bzws/u6g77uLNQtm7M/rVvqM3lzyfPZCPzGx+cKuzE0MDipZa31CL5HyMta3MWL9KhKbHdMfqFLdN1Xqlwij1BteSqQd1Ty+swc65+hWQR6xfm5Lz3mmN80+cgDgYVEgO9HBCCw4Ag8e9ZZJx9qRXfRjPBRLd+IlfT0bvucd7DG0JKs6Mc0gLrOO3BXVM7xjJvlhQ2Juepip2c5gXrGeFOcspjXYwBhZA0TUu+pRMjDVkcXeWREnTl+LpOZ5CArAe0+2U0vszpIDfcV8fGUTi1RW75mAVOcDk8KaEnJ4wcbjXPO//a3n9RMQRIILBgCmEFYMKhRkY7AwVa0laaDj3LuWpDCttkFyeOYR8D8KJhyNUbK55t9B42gz9JnPm587uTlJzVizpHUYw4cZQq5XfvJAeJjmItlNUxYkRU3rQbBN8pobJH06FiMkxe5zfpjBtNciatJd+Vry1MBzVdxqVV0l/502+MrxmZnP62EkQACC4wA358IQGBBEdh75tmX0eFE3yDngM8oSkKVO7Gs53XqCIVD8BTV9FP6WWaKxSZB2tSlWLWxC/qq6GIZftzAswg8m8CzCsWgNVpLFuVSipDxCHpZGlNLWutSfJXIBxfV2AAAQABJREFUiznIUohvEZ492E0OkgwlRaSYimvL1yxQVVxsewziF9tBtG7td7/7oDIQCSCwQAjMxw+pBTId1fQjArtXr14Sx+2v0o2XOQfckEojX4mQgx2R8heJ5zoMKSSe/MwHpjwgyE+n+qUe3yDDPD7fgXc10GSCI2gMTmpZawHB9wh5WRpTS7rrYQ4LWoQtJF0PTziNEkEeu+zDSS/HaYmtSXfl2Rkp81n1snX1x9SYsTBaShsgb9L1IA0EFgoBOAgLhTTqEQiE07MfGw+js6bNExOZ6xgTctBVeeSgFeBOeYY+vChxmmLO+4J0FGTsk50LTw4SZXZU0e3TxV9sfm01L1rMe2K6ZmO0NbK6pEgLvkeIWQ52snQxZTpkVH05fi6TiDDJQpblefaEFytWCT4MbeWlU1BRvXI6qlmTOSlSXrynIQjfcueGcy+32QMaEJhPBOAgzCe60J1DYO/rV7+qEYSfnVaDvKOXd5CVMlVeUfIJYwB5jGab95PEXG526Shw3O1Qd3Dy1W/TxbTH6Y2PBwkvYb+1DQZYVhmtZsE3ymhskfToWKh1CRNyhDVtS/MSLwe7QJaOQYHhINTWT3psJjOUdMIoTYKFW79H24Id1YEMBOYFgbn0mfNiCJQOPgLtoPWV0TA6spWb93aMJg6yQqnMSSBBvrmfID376NONG106C8qGLibkgGIbJOpWI3Vxm/ngpEdpVb8KTlw1hpZU5fSE4quEzk3SXlbK9MgohUpGJRRLJBxknkGwXXOJTV6JO7dYjoFu0TR9X2jb49kjUfQBnY40EJhvBGzfofmuE/qHEIE9rz/rV+jExF+d4lc5c8h17LlMwi/IZGSV8jgJfGP/kqp6nD5yUNBjpWMOCekoyHgOKrxFumUnV8LT7U/Twswn6Shm9WV3wJ27KE6Z1HTmCxmPoJeVMjnyyInaFF8lUiPSyCBzdoRAHKWPZElM8wXduV5wDLI7l9eU8Imf8efumJw81m01OECguwioPqO7aqENCGQI7FuxYhnlvkqf/ONw2XsL0VwmK+wgKwF2EgxHgQeDQ/T5BbHYHeG8GeSAYeOZsmV56Shw3O3QLTsfp1X9h8g+1V6nrRqDk1rW2jbB9wh5WRpTS7rrYY5D0CBzO3kWQeJn1WkQpVPAcZUgdVcUV7b45TOtuj28HXg8io6PZqc/V8U2yACBbiAAB6EbKEKHF4HZoPnJJVH0+mztgSae69g5kyMkgg6ypiXnJLD4I/TnIMX+zjjRkHXJOY1zyvSis8Dt43UIO2g9Qg4PC9RJow2GkS0AI/geIS9r/k5enKjYu8mBuNAuB0HeLw52gVxNPpNy2cOzb7SG57fvOe+8swqVgAAE5gGBil+heagZKocCgSdXrnwNnS1/3aHcugOj6YUBpEBICjjIShsNgnxD7yS5Z+gzl5tbdtMcdxoWylmoYitjsZd2NDxD1yGHC2NqxdUgGtkCNoLPfxyCHhbr6vbiRa6O3+7Ij1hsQQ7CHFcJde+LavKZVBV7uE10wuKSVhRspXRFy6u0DjJAwI5Arq+wi4AKBOaOwEwrvHksDA8vPzGR6uAeUIVcRlHzMhmZU3wzP01Owm4q2o0bO+u+8/XMJTefzgLbU8VWRvQxOhuBz0gojC5WuJmoMbQkMYpBiXsEvayUqfQUq1AUpUclFEskiNykBN17egtqvReB9Uhchc4Kf6rJZ1LSMaigWohM0yzCaBBe8cPzzntz1TKQAwJzRaAb/ehc60a5AUdg1+vOegv9intrsjCRemxHX56DISeTy2RiFjJ3uQfo82h6LKLsgmWcFZ5bSurhuNOwWM4C2/4COVA7aVeDtR0WXJO2agxOalkrFoLvEfKyNKaWdNfDHIcgkeV2x7oDsbze1notxGrymVSH9oTtKLjp3je8gQ5RQgAC84cAHIT5w3aoNT996rrDojD+KnWJPB6mgVKcyQiSkY9zfEcBTYa7Xd7I9wtyDlyHIcmuWcb5CuvlpA4Z1yudl15oZ4G/8LvpUQMfR2ydftdwzVtqMIxsXpZygu8R8rK6ty5BbHfkC1UhyOtZUVzNLvjlM63SKeC4SshK5qVnyMmjw8bOmDnwwofzHOSAQHcRgIPQXTyhLUVgevTQtbQw8fTiwkQeGejjGSCEigK/QEh0pOTHKK5zGJKr853LBeyWLt1Z0LyquZhkLSPt5DP+6WyEf6IRbr+1A7BAnSg0GEa2UKnge4SY5WWnTI+MqDOnJxPmFG93HPFXowZ6oavCH4mjXzSTko6BXz7jZiUzmpliJ6ERB5+5d926E00e8kCgWwhY+4duKYee4URgz4pVr2sE8bXqzAMrDNR9Z325VaLILxbgG3gvkfdRzO9cyHkNdq0FquyQOe40dFUXNUc6DZ3aJcuP0GhF6xQf+PmB/W+n4xH+PW2dk6x8LKHMUylnMDjrC0LcKGPKe3RUXrzIOpUelRBrUXgdghnqXqdq8pmUdAosVZumiHxW0souEMW2x0Z0zGwz+kKBCQIQ6BICjt6hS9qhZugQoK6ZVoW1bh6NouVi40LWV1uwIKaXT0WYn5PJMnzzPk+fHfThNHeyWSgUzFieVN2O2qOq9i9Try5qTqezCty2dhDThpL2Rz/wk5/snx4ZuXmq1foJr/Z3hgxuQ0RjaElDKMsKGY+gl5UyPTKqIiWjEjQdr7i1r4m8HzINtlQmJR0Dm5SNlpW0cYs0Kc/xFB1+1Qyj9925fv3aoiQoQKBzBOAgdI4hNGgIPLFi1TtGwujNudmDrK/WJGWSmF5+KpeTSV7ZzIchPUIf/TAkvQNNSnJB+UkoVf8WdVUtmZfT9XC6kyBnFObiLJDTRms1wt97x/33/G+24aTvfOdZQuY6emtg22sXw2cNGqMKxEJcK2Pq9LJSJkceOaFS8ZMEzyDwegtvGw1b5DUzyEY2k1oox0A3gFtH2x7HGlG49darrrIuKdHlkQYCdRGAg1AXMcg7EXjk5LOOoLHmKyyg+mgpXSBIRirNfK9Mns9Tz48SyXcYkuy+s4FBViJjUlAxFHVVLGgR65Yu3VkocxjoHRgBbZH7wb5mcLNu0rF33PG3tE7kTyd4hPMF57UxGEa2oFLwPUJelsbUkoU6mJDy+T5p0kc/dtkqnxLltfHJJK5GgtdiOAa6bfy2R3pHw6Wn7dn5dp2ONBDoBgJwELqBInQIBMaWtD+9JApPKy5MTAHydurMpI9XJhHhm3YX/R58luKqN7Ds+PPDYFpnaaVUkRbsujSBGsmu6qLmSKdBN4ExomfW++mlgFd/aPt23g2aC61G44apON7N5wZ4g/PaGAwjW9Ap+B4hZjnYyf6GlOmQUfWlfMZ43DN/UO0aZFLSKSjzqaQdWUlJ8cf15XlGLdzy0IYNy/2awQUC9RCo2r/W0wrpoUPgidPPOIPmOD8hzzxQi8tMJLjT9nbsxPTw+YblUxL3UDzXm9feAXOl8kPJisGuq2JhQ6yruqgp0lmgRz5BKwxufMu9d91jVCmyL//+93e14/hzYo6aVsd7gxMig1GiJoHaKGNW7NGh7i+PjFCXVsHrEBhfPUi8dVoxnUlJx6AoY6dkJe18k1pbngqwTWLbYyM6/WAUfMzUiTwQ6ASBufaxndSJsgOGAPXBUTsMv0oD0VJ9YaLqxG3t9XbsxLTwuQPln7+PpT/dON9pYB3yk+niyuUno5alpJ75s6vMgiJ/jNYdHGq3/pEeLfxBkZtRjr3iij89FMd/O8G7GsqcBC5muT6JNo2hJbOajJSQ8Qh6WSmTI69cstVRPqSX18mwRMtKCfpdTkn50QScyaykUyTHqC3vsIdfCR3G8aduP//8U3IVIAMEOkAADkIH4KFogsDu1658J62Ev8K2MLFbTgJ3pHwY0qPUW+uHIekdLKc7CXZdcvTxjECWSnVdFnYt0lx10TswaN1B/HQ80/5derQw46s03Ly5TeE6ejz0LJcTTkKZo+CERGNI+HyVC3GtjCnrZWlMLWmqYOdA381g8pO8RLqeU8Bls5J2zSa1tjwV4MviCum2x5eMtme/6JIBHQjURQAOQl3EIJ9DYMeKFS+JwmCbtW9OiR07CameHdQN76e076aVHa+nL83Z78sUdbEh8uMrmefpejq1S9eVr6WYiwivdtj+7NsfuvenRW6RcsJdd/1kNo635rY9dsNJ4KrSa1isNaUIvkfIAzvfX+oe86gYE8O4zQKJav85BnprDoltj+Fv3LPp3A06HWkgMFcEfH3tXHWi3BAhELUb10+E0Sv5Oag1pGTVgduEPJ0/jyx8ABIfhPQkfcQNK+UdVcoqZLff6aDM+oq6dCNKDJEGpXFRlyFQMavrMdvIjxbomvzFW++75z9XVCfEXnzmmf+bzkb4bu4AJde1lYolFDKvYgMXI6vEZELwncoSKY8OdY85ZHgGIevwMvT4l7n8SFN8cVbSJ5XxasvP0R5uNm17HAniaFs8OVm65jSzECkgYEcg+77Y+aACAScCu1535qpmEH6UD2zxhrTDTn7nOXpvVmBh8Q3KRyjvdP364zL6h7K2ULeTtumQNLuuCkZIBVps16UJ1EhKXTRIBPSoYGcrnLmGaBZU3UpP+9nPDlGBa8i5oDVvWmAnoYqjoBVJkhKXlFFmjRL3CHpZKdOQ4SyPmHS/EiCMVD2nQMhzGU5UDPJ6VBSv5aSwTpt+3vZIzt0F97am31W1XsgBARcCuT7AJQQ6EDARiIOrGmG7fQudc79EuAdGh2zK68OU+qVXECKCpoc7QF5v8Aitwre+othVXtNhE5EdK8edBrsuNqDECEvFUpeFVZmU6qChvH3NO+67b2flgprgcXfeeedsu/1vcrMIkj8nJ4ELa3hoSam2EAsZj6CXlTINGcZG7GaghO95vmlL3etSW77L9vB6BNrBsvmeyckjzLYgDwTqIAAHoQ5akFUI7Hr1j3+dTqi7dCpm98DeISthmWAxJWr03lKGYyWT7FiYIpJcga6LedOyLk81XF525hx3Goq6KhphVKzrqWsXP1qglzX+Z3q08BeG2lrZkdHRmw+22w/k1iNIDd1yEkquTXIfeIS8rJTJkSZXvlBRNjK7NzKKO6VfM7dUxpGPNKo6KnX00zqSYKLReFU4M3NNViNSQKA+AnAQ6mM29CX2nLrq6EYU3ZR/sGDvkK1gKVGt5zYEI2LtoeH7WfrIm7ROJ5lTx9Xonxwzy8xZf6ZCpYq6dAM4XT0UddnL8qOFQ3H74Wg6uN4uUZ169He/u5+2rn6KLJ3l+guhG04CKy2DQvA9QsxysHOPtEiGxUbp43M2q2JNakSQ8jJfFkvHoExO8mvrp+8L/6MXbgR0BPPH7zn//NOkLsRAoC4Csu+tWw7yQ4xAqzF7Ax3Ne1JxYaLWU2tJK1QpP9eJp4J8Uz5LPeke+rhuUNlxclw7cN3y4yjckX5Dp12XNCAFwijjytp1Jb92qcxM3I4++qafbn/KVb4O/fjbb/9fdDzzH4uzEWwFqzgJ1ubJtqdKrTJahYJvlNHYIunRoR5pkQw7B+wkmOISV1OtK19bngqwc1A11NafOgZSPx18FdAM3xFRu7VZ0hADgboIuPrfunogPyQI7Hn1ijW07uDD4swDs5cVGDAxZVj5GlAaX3bi3DHy+xX4MCSNrRUqJmVnKuOihIfClciPQ0zq5bjTYNclDaja4sQKXZd4tBAEf/CWB+76x05t1MtHIyNfOBjHj/Froq2hzEngQs5maQwtaa9H6vEIelkpk6KxtAIdP2udBrG2PBVg2FzQGeppiE8cPY6rhGSuIPlrk+fvKM0qvfOBDRsutPFBAwJlCMBBKEMIfIXAbbR1Kg7DW+jExHH1eMHZKWcdslJgS7CY0hEnhyHRc3T9MCRbMR+tbkerdElblD2KoxJz1q00ZAm7rgpGZCpEio9Spinle4JDL9xosDrOHvu97+1rtYLrpa1WhewklDkKTkw1hpa01sNEIeMR9LISN3Sc1NTp+Lxttxhaxyng4rX1G7MFFhMEiaGgQ6+arSjY9uCKFTxxggAEaiFQ53tSSzGEBw+B0/c8/Z6xsHFhsjBRa5+zU04ZTn5Rxy7qXV8gMk8Fc8fZaZCdb21dbLP8OIzQddfWb+jUdWUsaYAbQP4Ct4L4IC1bv/otP/kJ7wjtejj+rtv/Gz1q+O/WXQ16bd1yEtzNTWoTfI+Ql5W83ZG3PHrERD3ymuhNdKWlUzBfswVcr5wxcNmg06U907SImK7b+vZRR7xH5yMNBKogAAehCkqQCZ5YufIYguFGGozsaDjIqhtmvlMm+UX3FHWBT1LPpt+UspPudABmo+esS9rusb8j/VxYC7qdWbvtRtCrfulNje2vvPm+u3+gqehqkmyIaUbnM3RS31ONMretipNgxdEgGtlCgwSf/zgEPSzG1PVzWse+UKeFIAdiC8tKkvqtTAtROgUcVwk2e3jbI8H0xbsmJ19aRQdkgIBEQO+LJQ0xECgg0JpqfYkWJr6ct1A5g7NT1hiW4nwTvkA92y4a7HxBdq7Vukqfpv5xFrgVxXYneI7SGdf0nPnbIwf3/56/tZ1zT7rzzl+0g/jLYi2C5RrmavDdI1LQqiNplxRxjf05vtBjVZaIOVhjhnKJsdJdkrANxL4itfXTVa/qFHC9Pnv4OzveiE5qtqev89kIHhAwEfD3yKY08kOJwBOnrjyXnnP/Nu2Lp18ijh5XR8YpkjI0Pnec/Bahx/iXMMWcrxJkh1tV3qdzzrq4HfLjqWDO+i06pS5+oRL9MvxlI5y9+go6/dAi2nXSrnb7P9KpmbeJRw3aNbRW1I37hBWX1aNkPIIGi7Nyu6PEk9VUCb6B2Fa+tv4uOga6PXzC4kgQXX33pk2v0+lIAwEfAnAQfOiAF/DipnbUvoWe2Y6pfpY7/7IBQAmbIKYMLdpBzgHvXODOdC5BdsJzLa/XOWdd3B750RUa6TnrN/TwmQe01f0LV9533wMGa96y59AbIVthfO1Mu/2i6DjSa+issBv3CSsvq0fJeAQNFq9xod04lVRLp4DjKqHuNZ7rY4Q69vCloEOvlo8E7S1V2gAZIMAIwEHAfeBF4MiZ6H3jYXT+lM0hsNF0bUannLESBh+GtJd6OT7zYNEXJWbGqVTdjl4V5ObJjyIWE3PVz1sap9utvzt4+qv+XVHr/FJOvPPOH87Ewe+pBYvJpfRX2uF9IpRXwDMZ7T0GaSzG3rUOQTaGB+CqgzCXkddTli+LpWNQJif5ndojZhHC8G0PbFp/mdSJGAj4EOB7GgEIWBF48rWvPa7Vat5Fj7qP9649KOtFLXcZe6bPUblHGuwa2IPWn9sFalB7RpcFC7MZPlv50QJt1tvbCkbWv/m+Ox4xyy5EnhasLo3Hxr9NjsoqHnRUKGvbHO6TRLeh2Miq+mVC8P1CbAo/l3naMm9VZqasRsb+mqRUEtdZV8Al6toiyiRVWf+OknNJ12z78sbIxlO+9S0+xRwBCDgRwAyCExowDs1Gm8fD0O8cMExVfiFqox53qNwz7SDnQCOzplxgOf2TY9bM6Ho43UnoSBc3WH4cRuj6TRHmxe3wusVyDtieY++770Wy4ho6rW8mh6XvYnLBmvcJF0mCAVhpPVzKKJNqkhGbwo8YpHvKA7H8SBlf7LtGtnILNVuQux4WQ2i7akAnY65+cXb2tyxskIBADgE4CDk4kJEI7H71io1jYfS+ZGGipHriss6fi6YdO//mfJycg7qHIdXtlD3Wds3x4DrmbJccw1JcbPbqunlan2Zy/uzKB+7+U5vsQtLojY//MtOO/33hGGZPW4R9fJ+U3StOHRpDS1rbzXwh4xbkR1ziMUPZqKpVIK+HRvImF8ox8BphMHk2MIziG+6/eN3LDBayQCCHAByEHBzIMAIPn3rqWBiHX6ObY1R1ryrhwahC50+voQ1200C3n36udXLzyY66Rt/uNLwndDG+8mOxlBcl0osWHo3a05+ysBeFRCf03UiHZv2scAxz1XvFZ7VTh8bw4KVUC3GtjGIkCXO7o8EW2br3h3QKqj5OkDMXHFcJde3RdXJZPhdhPGqcEE43O36pl64b6cFDoJM+evDQQIsEAsuCsQ/Qa3HX05sB84i4+1lDzi7IN9vT5Bw8RR+5KLFin5jXb+Q66TANVXOfDTAVUX7OdjF88pPqoflvOvE4/PivPPjgE5aqFoV04h13PE0Vf5qnBArXUbPfaVw3ZhJYuf12y6oV/KIQU0boj6sTlNcvU+RPScfAL5VxpWOQUfypuvbo2syyh+huonZ/8IGNG8/U5ZAGAjoCru+GLoP0ECGw89SVJ9LI9iU+myAJRsfKWYMkJXOx0fnzjcaHIe1uFG852Xlx3GkYOF2ENT3qCWZb8R+96b67/6ZTfLpd/mV33PGX9Fz76xO0ktUayu4V4z4p6HDebwajtB7WbJQhCh+5bB67LO8hLlEl1HEMpFOwULMFrraw608LFpcQJjcRKo6LV6X1kBlkBIq99SC3Fm0rRSAMZm+cCKOXzdIm+yzo6ZRqIWXyUiYR4t6HHY4d5ByUHYYkO7Ru9FiDoIun72nV+Y9mmu3PF/DtEQK9VvizB9vx3qbropXdK2VOArfTqUNjaEkrNMwXMpkgmyyfo8n7xVrWIEqnoO5jBEONM1vHFlNJ1bL8tseRKLzyoQs2XmnqQB4IMAJwEHAfKAT2nPr6STox8TfFwkSmZv2omUnK5PgJqfCXOv+YPjvJOah7GJLs6DjuNPSjLraZfulNk49w9dt++MPnOsVgvsofdeedO+he+XzyngbHTeEgK5sWykngCoUtmUGjRKjaEUrHQNldkpAzBiViii3vU0Wokahblm2jp30hrUnYetebVtNsAgIQyCNQ9XuRL4XcwCHwyMknj8dh/DVaG9DMuk5qpjuTYJDjF2HhG2wf9UJ85oG42XggkJ+iuJMiOz+OOw39oosPRGrFwb++4v57/qXTNs93+ZedctJ/oWOY/yHZ1eC4KRxkZVuV+8KpQ2NwUssq/XpC8JPXP/vWIcgig+YYsHPAYZpmCumarRx/bvxDCQV/gUCGAByEDIuhTo2NLPvQRBCtOWT7JZfrbC29b46fwcg31y+pJ9pLsweclgOzkpADgq1OJVRMSD1pH1cUqEHpVV287oAeLdwRj4XbajRn0UTDP//zVtiMrqUB53n6UUp2WO4Tts5Bzhledj847reCV+CUS2sT/GT2gL1iU1w6BXUfI8jBN9cmS6aTe69uWbZJfkxTZghv8kU/+8OL1p9g8pAfbgTgIAz39Ret333Ka0+iPeGfn/Z1zGbvaXanzNdkuAOboh5pZ7N4GJLeuXFaBK5bfiStQmzVVaGcTWS+dNnq8tH4S9kK2i/EYXj1m7ZvP+CT7SXecbff/qNWO/gKrUnQ7gXtptCNdZCViO9eZCEub9VhEI2s0i8TxOezKfXtjtIxkCJlsWvgdZWT95mL76PXLVvFtnTb48tGZho9u87Fhwl484cAHIT5w7Z/NEfBlrEgOJo7Cm9gdk4kl0mKpiReJc3rDqochiQ7PY5FkI5CmT1SXosLujRe3WS3dOl6VBs9xoyIRwvxlivvv3u7R6wnWccuX/J/TrVbt/MMSHavWO4Ttt5BVg2rcv2tOpioMbSk0q0niD9KdfHMR9XZAi5eZfDVq5H3gU6rmq5bto5t3OZD5NnRgsX33z+54ZyqNkFu8BGAgzD419jbwr2vfO0l9BrYd9OBNyRHPWVZZ8racjK5jKiLD0PaQ87BXA5Dkh2hGkh1Z6HKgCEsSP4UdGm8usmF0sXrDuhZ/jdfNtb4N3Vt7AX5kM73D6Pomtm4fUh0Lur2UIm8mQ6yEpLXXxEsCacOjcFJLatrYXKD/shjl3WemZYDL8dVQif3Td2y9W3LHCLGgA7jGo/a4dZ4c+U1m1UggEwfIwAHoY8vXqem7z5+9ZJWGN5CW9i5f0wDpTiTESQjH+f4WYZvqGdJIR+I1OnNZe0g5YAxgM4Cv4iJXqX8TKPR+Ci/WjkPeP/k6GyE79Piyj8svvHRcWM5yLkWl13v7BbMFSvcyA45vld5FsHBHpjZAgYncQuKHg5vexyNwsse+uamtxkgIjukCHTahw8pbIPR7HDi4NV05sHZxYWJaY/t6i1l83N8nqKNgxdpkNtN6w44WAd4WbZmbNU1YM4CH6dMW0Kvv/y+u35SE56eE59qzWw70G4/NMo/azkY90pCNP7mZAweZ+fZSWAHQQ9suvzodFfaeo+6hA163bLSLgmvoa6QlU4Bx6UhjLc8tGHD8lI5CAw8AnAQBv4S2xv4xGtecwp1Fdd7FyZyr57vM4vKUj53O/yTd2fTfhhS3Q6wWFFGserqc2eBHy3Q7MH/uOPBH/4/WUv7N3WKOLch/hSNsC2+XiLwvaLuJ5VImWnkICshYxBXdJnI1SGJHBsMox7ONkk3d4hy8OVSVYK8H6vImjJ1y9a3LXuMYNZty/MBaRON6HVxI/yojQ/acCEAB2G4rrdqbWsm2jYWREeVLkys6iRQD8szBwepB1MDgqotn5CdYplcvpQ9Z9XVZ84CP1qYjtu7o6D5yc3ibCR7W/uNetxdd32D1lP8v+43PhqjtGyggyzZpTMJLOjUoTG0JBfhea8RKmiQmWUN8t6zMkuIdcvOt2Og28NnI4RheN2PzjvvpJJmgD3gCMBBGPALbGve7pNXvHE0CP9VsjCRJEp7RBLwyPBNtI8WJT47h3UHsmPiuNNg1dXjzgLbTPjF7bh9zWUP0ImEAxZGg/YNU3G8kx+f5IK6n1Qix/bdb0JQXtd8qXzOoTp3M2sybCEfmlQW5H1WJmfj1y27kI6BtDfZ9hgdRasWvyhpiIcTATgIQ3bdn1i5cmkYtW+hXwh09IEWchmNrpIkwDKGHN9Az9OixL00e9DpzSQ7T447DVZdclDhuEaw6qpRXhc1dfGjBZo9+C+/8sC9t+pyg5I+evv2Pa0g/px1h4C6DJYbiwFwkHPYlF1LVUeuVKo8pWn18DoE2/1nXjdTmy9ft6x0CkyfylVHrfUFpKSKPVP0tkc6dv09P77ggvWuekEffAQ67dMHH6EBa+HsC7Mfp4WJK61rD5ydqQQh7UlTOe5oDlEvtstyGJIsMddY78Q43Umw6uoBZ4FfxERvQvzZkrHGZzppX6+X/Q933vlntBD2rwuPGtjw3D2Xy2TNcpCVQDecBDaF6pHrEKRuee/IfJ24blnpGFStQzoG1eUT56CKPEPejMLRMGhtu21ykl94iTCECMBBGKKLvu+Vrz2NjpT9zCF55oGt7dwzlHXILED/+eQEdg74bUJ8I9XtEG3Vu2hSN8edhoKuLjgLde1K5WdpMdjvXrh9+1OdtqmXy2+mW6XRiK4jp/RZXm9RCLl7znHzOchKVxUnwaojV3nA02oj6ZtMLZaq6lwJLiM/LhmdLp0CGyy6nExLp6B8pU9SQtpStS26PXTUN78S+sJj27PvlPUjHi4E4CAM0fWejYNtdAzuEbRHPQ35zlFSRaxkclSV4S2N/FhhPz1eMG+iup2SUlox0U39BV26s1A26Bj2FnQZfD3LjxZm2+0/vPzeu/9Bpw9q+pjbb3+YDk/aorY92hqq7jmVyEs5yEpIXjtFsCScOjKGud3RoqVAkte+wHAQ5EDsYBfI0jEoMByEbtnDb2INwvjGn19yyeGOqkAeYATMvn2AmzrcTdt1yoo3jQThr+YWJqo+USXyIDnIfNM8Q4sSn6JP2Q0kOyqO5yN0U79Vlxx0uugs8KMFOpTm3uWzS788H5j0qs7jDh78twfj9rfVAUo2Q9U9xwmVySQtpIyZpsqulVOHfLtjst2xoNdCkPeMhWUl9YtjII3nFzktaTROnZ059AlJQzw8CJT178ODxAC39MnXvGZ5FLdvps6JT0HOB0VQCQc/IXOHeIAU7WnWfywpO1MZ5yvqPCf1ctxpsOrqgrPAXzhC+iAt3Lt640++u79TO/upfPjgg9PxbHjtbBwf8HY8uVsxl0mayyQLOYdFB06COHbZo996b+Qqz2ekU8BxlSBnCxbiMUIVe3jbI00UXvPwRee9qoo8ZAYHAe/3dHCaOdwtmT4UXkMLxFZYFyYyNKozdPS8KZ/7t1n6s2ukGfDpNxX7Oyf4XF5+nEJzZEi9ndrI1Vt1zdFZ4EcL5Bx89coHfvi9OTatr4sdf88dd7Xa8e97ZxG4hblbUd2g+bY7yEqoipNg0cFvdxyhdTomS94HSn9JQjoGJWKKLR0DRShJzL89yb3fJhzpvj2i1Qo3l5gE9oAhAAdhwC6o2ZzdJ7/6dFqN/Cn1aMEUkPlcb5jLJBJMog/PHBxM1x3IDorjTkM3dZm26Lo7tVXXpeqp6CzQgi96tBB/Z2z/s19TZYcwEU0tveVAq32/dz2CxEXdiiohOUnsICsheW0UwZKw6OCFivq1rnrfSKegX2cL9DbrSKXbHt/18IWbLtDpSA82AnAQBvj6Ur9HKwgbXxkNosN4x0FpyHWUuYxYa/AULUp8zrHuwNWxlNZpEZC6LKyukLqlX+rhWAU5IHGshYhGDDrG9nlaxX/1hY8+OqWxhi55zIPfeqEdBdcSRDwhVR4UlCqRL+Mg54SM65HjcUbTwUlzu2NB3iBIx8AgO7O9OlvgMpgxoXu32W7F2x5csWLUJQf6YCEAB2GwrmeuNXtOeu1b6cTEt5bOHuiluCdQnWWS4JtkP/363TtS7TAk68Cp11ExreupNJBU1CvFdP2SNtfYqktzFkZIMT1a+OKl92+/f651DFK5E+68859m4vZ/ojM5tPvN00LjnixIKn6BkxFqOAl8sBM7CWVqB90xyMCjM09o2+N4I9ow8tIj363TkR5cBOAgDOi1ffrUUw+jn/03U/OKCxOrtDntGfl57CEa/XaNNko7S5ta68BpE6xA66Yus7pu6jZ1paclfmP8pYf/W7Peoc63W1862G4/yrs6Kt1carTmhMpkEDrImQAXs5TTBTS2PA9BZ8v0MDkG3GZ5Tyfvbgm/9OOL1x4lsUA8uAjAQRjQazvdGrluSRi9xrkwsUq7qbPk/nI3LUqcoR6RO4lOguxkOtXDNnRTl9kmXXentvI7CGj//75W0Pj4hd/61qxZ1zDnj7vnnidn49Zn+S5jR9Q25hfw0QZwZ4GcTEEDFSsRYFPoM0J/9OsvnQKOqwT5GKHqN0e/7yrppwLSpkryJCTrmKs87UChbY/Ryc3ZkWur6IBMfyNQ8Vbv70YOm/V7Tn3diqgdf5++y8srrT1wAMQ3xxPkHPDaA9OTjLt455R01w7r7ORu6rLVUFe/OE45Dt77xgfv+RObPtDIAV19zp8viaJfpdkEgoNurKr3lpJTiTycDrISKhnp+Vr/kh6rtWhRbpkqpZMS9aSrN1fWUWK2FFNxHdu5UJk8r6chD2p/K2ytfc23vv+QqgiJgUPA7PcHroHD1iDq1CJaSPRVWpjYkXPAN8YvaUHi0xbngDHl5xby0ynG3CHJTy/pstki7eS4LPBWPnrO/nU4B36kwlbz0/R8+8nkjY90Y/HIzJ+yoGRUIl/CQVZCPE3AH0fg7wDPIlQJgzhb4Gq32PbYiJaHYWOLSwb0wUAADsJgXEfViidOec076DjlK+nEOkWrm+DBj7cy7hmtdhiSdBRkXLc+Xb7OAKyXs6W7qauufh7s6EVMj8XtJqZibeBptON++INHaQHnl7JXQvOgzIO3JuRKKpm0jCnnIOfEPE6Abx0C65COQU6fJyPvSY9IjsU/1uvMGNTWT7VxmapB2iPe0xBGb//pBRdcWrUs5PoPATgI/XfNnBY/94ozjqQJhK+oPtMp6WZwZ8GHIO0aGaFV93UnSxO90lHguJMgOzsZ94oumx3SRhmTDE3kBJ9444+377HJg5ZH4Ljly//TVKv9zfwBSnQDVbmHcjK5TFaJg6wELE4CF3FtdxxWxyDBi1eMCAQaQdje9vDll48pHJEYKATgIAzQ5TwQzXyGto2dyuendxKeIOdgKj0MqRM9XLZbzoLQxfrSD+c7CVIPx90OPMi12u3/8MYf/fCvuq17UPWFtIBzNmhfO9NuvyCecauG0r1c5XZmGSWnEkqLSDjISsjyveG3OzbU2x2lW1Dtrql7j8lf51VnDGrrp4bKMqrNnkTeHlmS4yTQDFlAJ7SuiQ++8H5JQzxYCMBBGJDrufOUV5/ZCKOP1TrzwGg73wy85oDXHsgbo9gtGIVqZIfBWeBFiTT9+uOJRvuGGtBAlBB4+d133zcbxLeMF0ZIGqXLBneJoJJTCclJYgdZCbGToDkKfP+PiKd12cCoZB0J+Z1xsAtkORAXGA5Cbf2kp7r1JEvC2SXw18a7GqIg/PzP3nDeMQ5zQe5jBOQ40MdNgOnUpfHv/VtGwmDpXFce8I3wAv3yfZJ2Lbg6E9lVuPh1rsQgOguMC+E/TROwH910//3P1sEDsgqB3z/QjrfTOhpFSBI8cBskV1bJqURe0kHOCWlOAr+XwbQmJ5tmWKaKnCybH4gl1R3X1t+RPeW1sQSfi0DbHk8MpqPPuC0Hp18RgIPQr1dOs3vPK09/11gYXTaldWoauzTJX/Rp6q14UWJVB0N2Hxx3GgbFWeADkejMg9+/5MF7b+sUk2Etf/z27QcacXhN4miZKNDIzoN7pQFelnUUqKQjOUmRHzFEnu+W/C7IGn2xdAoK/o+jkNRd9XtWW54KSJsS90ZqsBskuRzLwO9poNnLD//8/PPPkDTEg4EAHIQ+v447Tzj9qDAOt1bp71xN5bLsHByinkL/4rvkTbqt0zBlqub71VkYpSOD6dHCnUEj3lq1rZCzI3DM3Xd8ezpu/zt6vm0RSAf8Kjd8TiaXSfSmqiyVZCRyDNgK89jluvd8Nghnqn0pqd8no/Nqy1OBzEkpL+2T4B8V9GhtaTuKbyJIWRRhQBCwfQMHpGnD0YxwNLieFiaeMteFifxtfpIOg6GVYcHcDlPO4yw7km70Ev3iLPCXiLbpvRjTi5guu+++F/OIIDcXBFpTo1umWvHD4hhmqwIaiixjfkE05wQ4CjjIShc5CU3j7Y6KV5IYZMdAb3qy7TF88y8u3HSFTke6vxGAg9DH1+/Jk157Nq0Y+OhcFybyxX/eOAwp2cCUHn3bITbD4izwa5xbcfumNzxwz10dQobiKQIvf/D7z9DbLz9NToDn0E4a2csGd4moklMJyUliB5mZzGq2qq1DYHnpFGS/0JnqDnW/J7XlqYC0KfmBLzXYbZJcjqsEKUe7T6j7iLfuWL9+oko5yPQ+AnAQev8aWS28bXKyORMFtDAxmqi6bkBXxF9qPgyJj1J2Bd1Z4HQnoW6n46url2YWxIuY2vE/PxfM/h8+m8Grj8AJP7zrr+hdIv9VvPHRWZzuS741q9yeSkYl8lodZBZq0CwCf3whG4R9UhlPficyij9VW54KZE5Keelyibx9pjxvexxvNM6aHW/8Tl4SuX5FAA5Cn16503Y88W5a6X3JXGYP+IvNhyHtIeeAY85XCbrDUEXeJcP16R+XXBW67ixwupOg21QFkwb1vnSU8rONKProOx98cLqTulHWjsDYbONzU+32HvfeGi7HF54+Va6/kknLmNU6yHw/NGkAVMW1cnUcA/0e01Q4k3XlWVFmT3npcom8aWXyNOtDkwjh5x7asOH4fEnk+hEBOAh9eNX2nHrq0VE73NLqwPa95BzwDAJ/4ecSuuUscN1lnU4d+3SHoU45m2yZXewgtNrx5y68fzteWGMDsAu0o+67fSdN7n+esZZ+gFstDd+2EdwskHMCHAUs5CYdjSm/L3IQ5rhKkPdSFVmWqS1PBaRNVUrX1p/aVGY/n4sw0WgcOzoSfa5MFvzeRwAOQu9fo4KF7VbzC/Qq51fwl7Fu4Av+jHEYUl0dpvwwOgt8WuJ0q/2X3/vRvf/RxAP57iLw7btP/hOaRfh7tavBe9sT08vXbFNyKqExKamROdmg8xD4+1PVKWBl8zUQs24OmVMgckzhhDMshD2H2q0gisLffvSiTWc7DQGjLxCAg9AXlykzcscpK9bSdOsH5/IyJu4cXqSB7SnatVC3o8gs8KeGwVlIXsQU7w7Cxic2i7OR/JiA2xkC7wz+nCbL2p+ixznPJXcu6dMG76J2Ynr5WgklpxIaM19Pcuyy/TFDvtBwOgbSceI1UaNhOE6za1s3b1aHspoQId8HCMBB6IOLJE28a/VqejDQpoWJ4bijO5OihZgdghn6Bj8x2hCHIXGew3w5ConuZDcEOw2dBmmntLsTfZ08huD66UtDczetT1364PbHO7EDZasjcPzdd/94Ng6+MkqPxVTw3lbE9PKVFk3OUSAlc8283dEVmC8/LhmdLmU5rhLkbEEyEJeXLpfI11pbngpIm/KaAj4TJKDdPZe/5182vNXkId8/CMBB6J9rFRz3zIHfpIWJk3M5MZG7tb00c8AnJnJHYIa6nYNZviw/KDMLvGuBzpz4k0sevO/rZW0Gv7sITB227A8Ptls/4Guggnu8JhFiMt8rk2pSMo4CROYnerxQ0fz+yO+OsqkkUVueCiROASsuL10ukTewtnzOnrwumWMUedcjvdVly4OTk8skHXF/IaB90/rL8GGzdt/JK46lfcab6VdU7cAdAD9W2E9nHnC6LMgOQ8Zl8nX5/eosJC9iin8+Ohp+um6bId85Aqd861tTNOZ8ks7/n8p1XPydcH4vUqaTr9mV02MvENEMgtzuWPf7UUeeHQL5SSz0l5ZcjqsGWaaKvLSF4yqBxejNnLxgccWSsHV1lTKQ6T0Ect+z3jMPFkkEpoP2lyaC8ER6250kVYr5ArNjwG9pnOvFlh1Jxb6hkl1SqF+cBW47Ic/wf+z8e+55UtqPeGEROHb79ttpce4f8CLRQvB+NYjp5WvalJxKKOb/396XAMpRVGtPz0zuvQmEVQiEAIGENaAiyE4MYVGegsoTl/ej4tMnPkAhgIIsEvbFhafPfcFfcHuiT5/o7wJoQB7IErJxIewIWQmQBMjdp/v/vr5TMz0z3T3V08t0z5yTnNs9VadOnfq6q+p0VXW1vQ4BbzPoUtC6ozricf3NUyuJZOxpnku9PdwbAWOW5z997JG7NE8tEmlDwKWWpc1EsWflrnsfPiFvfDzowkRWVj5y8ZXG+orbKqpKD49RU5qdhT58awEd0zeOeXTRH6Iut+gLhsCAYV0zYJYexUK4xoS+fTcifeMd6ipylZNKJHdVbEaqnjSTU/HujoGKbTwG1g8VLmg1Ki6H1NrjKVaJ8LKHX3ucWMhvZ5SMSyrCcpIZBMRBSPml6p81qwfvDN2A/Q57Gpsqf+O5CdIafITJuRmSqshBGguvXKLUVZ+H01ngeRhy2tlKuTm1gA2plm4+3PuFMHZI2mgQmLFw4UZsx3Me9mDmrd1IvrcLIhnvK1NWWZGpJuCZ/XXHxlwrTrirTW7yEKx2xEyl2EXYEaut35HGXWNtqLKFRx1S1jYTH8TXHov53EdfOPrIQ3T0ikx6EBAHIT3XwtWSrTeVPjbRyB0xHHDPA1badUX/zZB0K7irYXWBUeqqU23/dDoMbvFBwoLYygqC58UhvNx25qFP3f9qkHxENj4E8FbDH7EPxf+t7I1Qn1W1T6+Pwe9yJA/NqEZm/Ac//cy1CIrU/aR+Nzuqjnhcrnnq5hK1OQaWRwJdp4A5BdXPNHjK6SnljKutU04p8LdQNhAQByHF12ndXntNxcLEy8YC2siLul5thsR2zMkeulSl5zEsRanLzZYknYXxDzFZ1x/Xv+QeN1skrH0IFIv5SwZN84UJfjdttR93MRSRvvHlJKr+2D/Hd1NU0wx+WddnGMQxCFqHgsrTtlp76q2t/R1Uf708Nrria4/HPLduzSm1muVXmhEQByHFV2dkJD8fc987BtkxkRVzE94VfwkOAs8bSDV2Pg2js3K76mhQ6h3g1OUt1XpMnM4CnYOhknlvfmCr61q3UFLGhcD2Dz64JmdaF47foz43tE+U7SH4xjusL8thekP7646qEx5/Qm9eG5SEI1ff08DySKBs8lVcjgysH+mYxo0sjLwg78ufPvbYLd3iJSx9CIiDkL5rYlu0ard9ZmMR1mlBFiayYo6hBr6IRYlsy7wqaqXIFFJcCWw8CdpINGoYD1F6mtrlpaBJeJTOAt0r07ReNfLGGUc/t2CoSdYS3SYEpixe+LPhkvWb8S8+lntwN1t8olpxEvJ4IuZUgxfVdsLqzveSHq+rQepFc421edXaUxvn9iuwfihpZv8o4JpUKO5plIY/45anhKUPAXEQ0ndNck/OnNmLynY9Ls4E7yao0XDKcjOkYbQGqrKqiq5+N6YqhzCxYg8hbV0e6Z3BUepy6lXnYZ0FvDXCtxYum9u/aInSKcf0IYD7yCrlrc9ijc7L42NmPjXGJ2rcSYCAr0y5/JDhbpxch1AvXtsRq7vcG7fmErVpA8sjAW3SpcD6obi5+qrWEXzPAnXrnH8ce+TuujaJXPsQEAehfdh75txXKn4SUwuHBlmYyCrIjzDxWwteF1VVU3X0NICtnmIPIaWDx7AUpS43W4I6C9ypDx+c+WN+ylZfd9MnYelCYOeHH34Kw9eX26892j12fbftsLfJfT3uKDjkPU55z1bWIeBH1TFofjc3l6jNNLB8jT21utx+BdYPJSqNm77xMCWBhxWHPXztsTdf2CZn5S/zTisxaUGAV1EoRQisnLHfzhi+fAhLfbfX3RSJF5GbIa3B1EKr5NOkVlVq3i1auqpaPc+i0uOVQfXjvVUJflYY+a4byhmHv6P/4aeqMXKWZgQsfKdktWncMTFvzOaCuOpjrc9N6xNlK/CNx9stGGUamNRThqWJMKSaS9QiHFg+YIKA4pr2V7V6jVxQAvVsDF/gmrvLnXf9rbbU8itNCHg9bKbJxu6yxRq7YqJhBHIOOKXAVxrDdKistIo9AWcGij2FqnqqTYWPsE+UskcdfURbiqofWWA+rBAYOP6cOActQdq2RMbChaO5kjVvzDI32Y1a5T71qRU+UTojCZxiyNt7Jvnf6UHv38DySODVGbtdkMD6oYRp/GlcK+1Q7CVP2OEgFDHqczU/QOclJ+HtR0AchPZfg4oFK3bday7eFz41yMJEtk9clMgdY3gxm1fkSnaeJ+NVvYku1QD7NrLjOpQ+zww1I5SeKMpYnyWdhT48EWL/+F/M6V/8o/p4+Z1+BKYuXfgwvlXy5ZptmO370+cm9YmqOAkeMlyHUPDYVTHovRpYHgmadcTOKxZYPxKrNE49tedKojqNUBvv/YtbMOM6HbXD1pt9yFtKYtqNgDgI7b4C5fxfmHYY9nzJc2Fi0aM9arCU1XMdnINBdGw8V1Sttiqk9aOWLhrsZI/stHR5pK0PjlIXdRfR2uITtS/0mPl50K17CerNkt9tRqAwMvRF7I2wpGYbZvtq+lxSde+62l6OdEmOnRzhIGCg3EHqvnQE+Z4GlkcCOga6FFg/FDdXX9UaxEmhzdWUmKLBegSsWbzshbcfto1ueUQuWQTEQUgWb8/cCj0bPoVXtQ7SXZjIirYR+5e+irUHfhdRVUgew5K2LtXgujSqygZtXSqBzzGsrnJ6E9/gOfvIxxet8slKolKOwPb9/a/jFYNzceuN8rpWyL4X1Y1ZCa098blfK6MJtSngIGAlC9/vR3hNfnVyzp9KVlsegkE64sD6y7b721PVqmzRdVSqKZ0o4AIBN3ztcXdrdMK82hj5lRYE/O+JtFjZ4Xasnr739FzeeDBvGW8oaTy88qJx1GBVzwQNaW/wfNtD72QNMdp6NO42bV0NVjQG6OrikDSeOr8799ElpzdqkZAsIrD6LQd+Y5KRP2OACxbryb4PfW5GnyjbDaiLH+rryZXgrDejumTNxAONFFBZYP1NLajVqusQKLU69mCnWLRh2G8kZ7512p33PKHSyjEdCDS/q9NhZ0dbYRnGlRNzeW3nQG2G5NL0BcKJFVinEjdTqvQ01cUeu0mvra2rmVHlsil9XuLlDzE93meMfd5LRsKzhwCG/y8bNK1neX0byL4HfW5En6iGkQTI2usQXLJR+Ta7B5WcOtJkN7NVfP0xsH4o8DG3rL6qNU57OM0wMV/YwjTzV9SXS363HwFxENp8DVbttvfxWMb7Id2FiWy71mEzpFHUWl685hW9eQFVU5CYLhbCyR4mxm0X9cMMjHRaZx7e3/+KhxkSnEEEpi5c+BKu72fBXCrQSLz//LxVO74x2XgIIhlPhvICRylc5Jmva97jShr+xtkRMzM9e6pScdqjcuFxCOs4egrG+1Ycd9QxDaBIQFsREAehjfCvmnrgJFTb6w3DKLi0Lw2WsTLxI0zcDInnipyVzRmu4oMcnbqCpHOT1dalGlsfELR1uRlSF6Z0cWqhZFo3zn106Z11IvKzAxCYsuihX41YuV/UvNXgLJd9v/ncdD5RFQ8BMnm8yaC+7qjuLR51SHXCPOpQYP1QqtJ461cS1bcR4rbHaQthRotWsEq5q5884YReZ5yctxcBcRDaiL/RO3AmFia+eQTDbM2IVfh1dGh0EHjuR9Xq7ifVPM6pp1mezbQ5dfnKEgrFHoLaujzSM5ir3LEgdOHWE6wrfMQkKuMIWLnSBXg75UW+peJKdtXzueF8osb1QQD/Oc3gkYNrtjTHyyS3BOqed4tzC9OTr0q12x5cI7z2WDikZ2jgo27lkbD2ICAOQntwz62dud8M+OsX6joHI6jBL5U/whTEZNUE8BiWotLl1ONrl2qcefQgbV2O9Lzp8XLaAHaqPONNS5duckTJaYchMHXRon/kjPylng4Cy6vuM7d5AoWHzz2Yg4NfGMM0g+/NPO4QBOmInfe2MsPvqCdflVK28KhD1ZQ60tWRC031qJPAMW9dsvqEo7bTy0Gk4kZAHIS4EfbQb5qlq/oMYxudtxa4GHFdTwFfamzaBnnkNh4ctIL7KUtcl2rE/RpqGKxjFz/jXLLMq47pX/KAXxklrjMQeHSLzW4aLJm3e041qGLa95bPDeYVhZsub8Ll9Fg1rDpilU2zo7qHm8mpeD35qlQ67FHWVx0nftZ+UqGw89hI7rPVWDlrJwK8a4QSRmD17vv8U9EybsMTbN6rzVEm8QJxUSL3O3BeLLfvCKg0QY/NbAiiL3FdTlB8DFV29Rr4EFPOXLBdbuzts/r7R3ySSFQHIbDmjQftly/m7sVwwWRsXeBP9j3lc2N5RA1N6s2ZqKeKdJ/MK/LqRPPoYUZd6qpUOuypmudmD97eRjtnvD46Zhy2y4IFj1Sl5awdCFTv5nbk3oV5rpnyxs0wknYdKoeWc0DHoN45IGz13xEIAyWbEMVh9DCt0sNjWNLSxcbeyR6ZUheHmcdy5npsLXWmOAceQHVo8A5LH3pkzDSv6/XdVqxceNuB8PEi1P3mxAph6nVHdnxunZ9TXJ1r3eNKGEc9+aqUsqW99lQL0MwefN4ihxG+zY2CeUU1lZy1CwFxEBJGfmzS6Dn4lPP+zdYesIoPwZ1+GaMHPPcjp7PA8zBUbVrCaBlP2xZdqvF2gYFfasRbCxfP7l/0aPjSiYasIVCa2HvjgGk9xFGkpmTfP+pm8pB23mO42Qv4PmGzuqo0qbqhfjc76slXpVRH3Eyviq+mVCH+x8DySKDrpPC1x9688e7Vc992gr8VEhs3Aho1JW4Tukf/it333nNCzjh/BBuQ+xErH9cbcGrBX9Jdi9NhcJfQC1WNgDrqpXKXUjp4DEvaulT7jiOcstyIaf32bR9Y+p2w+Uv6bCKw8333DaLBOwfrT4abDt+xiOr+8XO6HU4CPtOeM/gI7EHa9205vZ58VUo5BbodcTWlh8F1wYHlkUDZVKfK9afSz0hMM+RLhnX1C4cdNtFVWAITQUAchERgtjMx0Chdg9frttspVFcAADiWSURBVKr9vEujAWxiXsLrjHxzgZUmDClnIYwOldZZgVVYK0elJ2zZmLeOLo4c4DWqNVj38Rljfks+VyvFlDQpRGDK4of+FztjfdNesOjdl9dabsv5CKsoHLknQn2lVfdorVLvX3ryVakgnTBzrab0tsEZE1geCWiTLrnp59ceJ+XzB+QnFj+uq0fkokdAHIToMXXVuHK3WSdOMPInD2mMHmzAugN7MyQ2PE521awXqBwFddRL5S6lKnSANsBdEULj1qX0W5Z53hGP4ZU3oa5HYLQ0eiW+0fCEvQ2z6tyboWLL+QiX66ntIJR1qXuvmWoVrydflepEx0BhwSM/5mTkjYueO+qoHZ3hcp4cAuIgJID1kzNnboGPkVyHqs1PyHsSq/4mrDvYgNEDXphqU1BOUm6E/EY8PZXXRShHgccwpGzkMSzFoYtPimhobnnb8mU/DWufpO8MBHZdtmy9mbfOh/dt2vetqlfNimdXFf/6Yq9DgEiQ+qDue//sq1Kd7hgoHOzXHvOFHXt68heqMDkmi4A4CAngvblZnIcvy+3jtzCR1Z9TCi8Xiw1dtmoaeKyQatT826uKuN9JHM5Cja1+mXvEOcvcqi6+tTBsmc+MFUryXrUHzt0avNPDD982auV+PJHv1SnSqUu2jKp8KmH1aPDzz5xmaELO+9tbtCqlnAIedaiaUke6+jCiqb6ytiA+ezi9auSGsKYDU4T/tvLY2QfolUSkokRAHIQo0XTRtWrX/fbBDgbnoqNyia0GMfYlLEpsthmSa8VX7ZVOA1fN0vUsKmeByl1tdc21eWBQXXZDh5cWLKw7OPaRR9Y2z0Ekug2BMWvsoiHTXFW0b5Zy5dGpQ6q+NbjyQBBxeZ9dFdV97I91VUo5Bv7y1dhqymqY31lgeSTQdQqYb2D9tlvAVOPErz1OyOcnYuj1SkBbjVACcowVAXEQYoSXN7SVH7uuJ5ffwm9hIu/6VzCtMISaF6QGUNbJdlFU48VjSMqys9CLqQUMUX5z9mOLfx8SBkneoQjsvGTJSrx3cBEXsY5TudLo1h1brk4Yquxtlx3BDXXUFc+qlHIKKma5ylcDqymrYX5ngeWRQNnkp1fFBdZfdgq8Wj/7a49G/p/WHnv0SSoPOSaDgDgIMeK8eve939tj5E/y+5QzK9NrWJRI5nkYaqiYbKQUh1GMtFlyFrj4DG8tPDI8VLw0ZLEleYcjsMPihbfgXvn9RDiU41Tu2XXrjS1eTlPWwCkGgwvs8Lt5na5KBemEmVU1ZTnjJofA8kig66S0Zs/4NEITs8ej8clb7GV95Zrjj99MS16EIkFA1YpIlImSKgLPTp++Fb5Ef201pPGMFZajBhw9UJVXHRulg4UoPTzapBo8dVThLRzT7CwUUB4rZwFW64zjnlm4sYXiSZIuQgD1wzTN/HnYm2RDw0gCcajt+92RsWWqgnQOnG8zuCdSNXS8E463I9ZxVKpW0pZ47QngGMAs2jKKKdqJhfz+ljX0qaqlchY3AuIgxIRwrzHxfCxM3JOv6rgRm4cS/nCnRLfVCYxX7JY+SJjSw2OFaJbiSmDwk7Q5C/wQ05iV++KRjy79W/DSSIpuRGCnpQ89jh02r+InwKvkqBzuVbgqyjNbvJwGB/d1CNWaqDrhmixrNdb8qqasCfb8EVgeCZRNnkodEYH1ozVT/xxqPE+VLU58hrFgETouWHn87J09E0pEpAiIgxApnOPK1uy+9/54Gjnbb88DNiUva26GFLQy+hXJVVe5XdN6WvJR7nQWeB6GnHbyXIcwnYOpBeu+4laTfEdudHSJTHch8PqmHb4+YJbu5Y6btVS+j3VvZ8phRZ3tIFTSqLs5WCdMO6opa63y+hVYHgmcnbCXXhUeWH/ZLVDpmx2VY+AmhxXHuYn5wnYFK3exW7yERY9AfW2IPocu04g2IY+V89f25HKbu40MEA5Wso1qM6SA+KgKymNYctXFRq3SsIXLQTkM4bSMp1a2eunijVzKma+hfT/jcGyp6yUn4YKAGwJ7PPWHYcMy5+ELq9yOuY7KFUK3XkDOwPcExrddHq+pfh1fXWb2z2b3e32awPJIkBXHwFlWLljELjGnrZ571MHOcDmPB4HGuhBPPl2jde30fU7BIrl3DvlMLQxgGHxjed1BGGBUo8BjWGrQxcbQySEyUI5C2FEFmtBgZ9kuvAqFDzHl5h/Rv3hxCFMlaRcjsOOSJQ+MmuZX7W2YG3AoeweqTjTE1wXg6YCjCByQiKsj9qoLdZZUfionRdeewPrLowWcStChVuwh/Ghfe618/upfnHIKlxwJxYiAOAgRgrthl/23xg18tVcbwmozilrBRYmUCVoB/UyNXZcqFI8hyOkshHUYVJnZoGPv9j8/ulnxP0OYJkkFgVxvX8+1AyWrv3Y9ggLGcfM7TlVs/TGPrzvqkLqPedQhJa8jSxnVEWvLM42usC07vrpAN0lYe7B3RQ51/tij1q/9Z908Ra41BMRBaA0311SDxbEL8LrUDK+FiZxy4LoDt82QVKUPUjFdjUBg7LoichZov9Nh8CqPXzhXno+Z1kvFnHHW6QsXjvrJSpwg0AyBbe+//1Xc3udiPRzXELuQuvkR5eckILFBB0Hj644umbgGqXrtGukSGLYjdlFZExRk0SETRmmPZY/QGlc8ecIJW9QYJT8iRUAchIjgXDF91pvzlvFpr4WJrNzr4RwMYWtX94anaohqCNSxGhP8TOlolqeOZlddqr30ayx1lEOmFWeBY4xjhnXBoY8tflIzGxETBHwRmLpk4Z9HTeumiZwf8LyvyxGe8bifueq+bttl1zrkY01geSQI0hEH1o9aqv75mF2JUrbwqEO69vAhbLNCYa/JYwNn6egVmdYQEAehNdxqUlm5U/Aga16PubFJbgsTedO/HmIzJN1KU2OUyw+nHp6HIaeuih42loorga2d6DgLnFoYzpm/PPLRJT9sLRdJJQi4I1AwRy4dtKznuelWy04C6kJ+FKMIUKHqi3tujaGB5ZkHE2lSYP1lt0BTfSAnhTqD2sM02OCK6c5bc/zs3fhbKHoExEGIANPVu/V/qM8wjncbPeCNP4yay9EDnocl6lCcFl3KHnW07VKOAo8hyc1Z4IeYsLnNisIE4xzkG0EuIY2U5B2FwBR8v6NkmhfynrbJ8w4rR/BQL4PE9kLF+vCySrdDTR1yE3CE0SFQ7Aj2PFW6edSlNIwWeNlafu1xG6tkfMFLRsLDIRDkXgmXU4emXjV1zzcYvYUH0WFNr197QHA5kfnihKL9pcZ6sAO0G03Ry4yuehCalqxRgCowZGNh7cEpRyxf+qtGCQkRBMIjgDplrH7TW345KZ8/eRBPqxXyvIfLEc54nI9uMQmegjOwosk+8Y6plVO/6BQEoYDieAAJliJue/zKSkvRFoyOWLm5U+9YcI+frMQFR0BGEIJjVpuip3AR5iobnAMKsdPmyAE/4+xW5RimmPJhSOlxyyeo3lh1ERQnBzUO8uUPMf1AnIMWwJMk2gigHlgFs/DZYct6iYthK8T715XKEc54+BX22wyO5Cqpqmfqd7MjTXCa0VQeAi7ZeiYLMlpAJXHb42moI4JQ4+FsAvawuNqaM6foiJLTCBAQByEEiKtm7H1gwch9ymtq4dUAmyGpxiJIhfYyPe26auxmDXc2qDWRjT84J4zXnJ4oWiMXNsZKiCAQLQJTlj34jJmz5ttrEZyqPe/ZcoQj3uDnnx2k6qcjyPc07o44i46BEzD7tcdCYfaLE3IfdIbLeXgExEFoEUMrN6eIHVVvQMMxsbb6j3vtgxhSbHUzJNWAdKqz4CxfpYxsUBV7XBPKQmQUG9medcjy5S97iEmwIBApAjsUjO8OmaUFDRsoOZyA2gzLEeUDX3dEWxFotFA5BTzqkLNO6ckrt0Avg7jt0bHZT8bka49Wbv76OXO28pOTuGAIiIMQDK+K9Mrpa07tyeXn1u+YyOrGzZDWF6MZ7Qpa8SsGupxkRhcbVsWOcnBqAa+fffXIxxbf7giWU0EgVgQM7K9RMIrzsMZoU0ODyfvUlaoR9uef6153dE2CQNURe8XXh6s6XR/u9Vu5BV7x9eFx21OfX6u/uf4LX3ucMVSw5rWqQ9I1ItBwvzeKSEg9AmtmvHH7gpG/olRtAyoiHE3guoMxHFXlVceKUIsnSg+PYSkzusqOQg/QxGtND29dKF0etuySXhAIisD2ix9cjC8+frFhFIGKyvdoo85yBBoFo/y6Y6PMeEicHbFyCnjUIWULj7qk2hNd+Tjk+Noj1oqc/eJxs/eIQ3836hQHoYWrXjJHLploGDvjwy41qVlJNhawGRJqll23VMNRFlOVSB1rEgf8oXTY+QRMWy+edl3cDAlt7ABgPWNWf//r9fbLb0EgCQSwZ+eXBkxzUa9Xz1nbHDhMwoZJdBDq4qlGsUPY8zRoPVWOgafCuoggtjBpUHvqsov8J1977C3ktzQtY37kyrtUoTgIAS/8iun7HIpVs5+sX5jIyrIJQ+DcEInnDVTnLDA+qgrm1OOad4Mx3gFOXd5SejFR6eoBrnil8ZrDHl16v17OIiUIRI/ADkuXbsL2iOeiqx/1rGd1ToBtBYT5dccc58lBrXbEdmKNP0k5BhqmJC7Crz1iXdj7Vx/ztqMTz7wDMxQHIcBFfejAAydg7eH1E3JGr3NhIhsLtRmSlroYnQXmT3sUa9njIaR0qKOHmFaw0sFjEOrFdrdYpXz3xtLAl4KkE1lBIA4Edly8eMGYZX0H31zxVu/mJGDb5TzWIXD3Zh0KWl+UU1Aeu2yahXJSeNShoPbo6IxDhtDnDYP7qF3df8opPXHk0U06NW/XboLEu6xTX9l0GnZMnF2/MBHPBva6A6fT4K2lLiYjzgKtjqqRcOrxa5/47jkWH20088YZ//TUU8N1yMlPQaAtCJSGi/MHS+bTDa8+Oq1R9VqFYfTAGFErk1Rg41HVjcYY9xDlGLjHNoYqx6Axxj0kqD3uWpIN5VoErBU5bOsN6z6SbM6dl5s4CJrX9Lld99kRkwfzWcXraQMWJXLMMV8/yVgv2Oy3alR4LJOqoDyGpazpwhcac6ZhXoxvLfSHLbukFwSiQmDa8gdeNo3cZzFlYDWtl6ous2fmfgjlaYZ6W1TdrA/3+h3EMVBOAY86pGzRFNdRmbgMRnlyecu6dNWcOW9IPPMOylAcBM2L2WPkvtBn5KfyxlPECvQa1hwMOL7Q6PbdACUf6Oh0FspZRllx064LWPNbC7eteGzvbwfCTYQFgQQQmLrk4V+PWNbPsVjZs9OvmKHqL9chOF53DFoHlVMQdBqhYkeTE2VPE7FMRLOdnlQo7GIUzfMzYXBKjeQ9IdQEgbUzZh0Bb/QvuOl6lHtA4Pjp5pcwetCMMLjYTEQ/3kWVsklfibdkGnRxArGUs9YaZu6wQx5f+qy3tRIjCLQPgVWzDtylUDAfwJz3FPvBQeMR3Zzcl8v1YY+UABVN1yFQSGiYoUTto0uTUhOf1R9onrFBlfHamFU6dMc7//ZoVsvRTrtlBKEJ+v2zZvWMWeYNAKrGORjDzbcerzTq1HPnqALPQxGTKy4rYgVXHEq3Qw/1hSVlU1BdlLdM6zxxDsJeAUkfJwJT+xc+b+WsSzgVZpNjdNE1X9RbY9RtktJVGlrH/7nHNobSMQjiHNDqsuWNyjogBOtCcz0FYzJAuaIDitOWIoiD0AT2rQbNT0zM5Q/HB1sqklyMSOeATkIrFczpMFSUtnKiHIWqabY9UVV8paeVMtYXR1cXN6IZtsyfHPb4sp/U65DfgkDaEJiy1x4/xCvPf6q81eBoJxpsRSUwRjDNwJ7Lg5RToDtqoJwCXcdAtx56mJe54CFM6fTkC+9de+xRb8+c8SkwWBwEn4uwYuYbp+Ut4wvOzzizgvEjTMMYv4oCvFichXL7E2VjkIQuTi1gBfJzIwWZN/S5LSUqRQgYt96KDy2Y52E9wqsF9bjg5yTQOeBiRVYoBynHwBHke6ocA18hR6Sqv46grjhlU4h2Om/m8lc/O2cO5neEgiAQRR8XJL9syZojV2IR0hTMh9t2s5JxQaJzMyRV8erqe0vljMxZYO40WTFOo7Wzqo9ZhSFl1/iNaHD36s8c3d+/JoxOSSsIJInAjkuW9GNX1Wt7OOmtiE6Cm6OAYHtXxbKHII6BAiy+I197xILFA/sK1r/Gl0tnahYHweO6rtx9n2N7LOPDgxYnFMY7xBG47Xyl0dEM1KRWnZ1XfI1wkx9JOQthbY2qzJxawFap3z5s+dLbmkAj0YJA6hAoTer76qBpPtCwDbOLk0AHYfzrjnq1T40W8KhDUdVJnbyyIjMKJwH+28VrjzlmSlZsToOd4iC4XIVVUw+cxE85Y6OeAh/CSXQTNhTz9tEOaPInykoap7PAYkRlq1MPz3WJG85gt8T+3j7jEt00IicIpAmBne+7b9DMW/MwkjDc0Kg6nQRWDE4xoMNqRsoxaCan4lX9U7/lWEWAb5lMLBSmWsbohdVQOWuGQMO93CxBN8SXegY+PdHIH+BcmMiRA44gBOn4FFaq4qqjCm/lmBVngWVT5fXDjDcgnLBhTOOcecDixRtawUTSCAJpQGCnxYvvHbNyX3f/4qN61IClXIcwCgfBpWIop4BHHdKpYzp6ukFmyCzxa4+fXPv2I9/UDeWNooziINSh+MKMWTOxWO4CbNJjx7ACbsKixMHyokTNeluntfZnVJW6E5wFfohpNGd96fDly+6qRUl+CQLZQ2A4b12FqYblPW49fGUkgV93rN12WTkGuiVWbYiuvMiN+2VobyZZY4Ur4aJF0ZR3PKziINRdYgNfDcT3Frbm9xV4B3EzJL614LybVOV0htWp0f4ZlS6ns8DzUMTkisuKorKT6pSu8oeY7p+wccI15WzkIAhkGoHdMApm5fPno/pgN2YXUk6C/flnOAoQcvMlXFLaQarueMVLuD8C+IYGXns03rX2+Le9y19SYomAOAiO+2DlbrNO7DVy71OfcuY+BxubbIakKiyPYUnpCquH6ZXDEFqXchR4LJOyM0yZeeNhWuF1bGZ/xkGrFg4o3XIUBLKOwI6LF/5+NJe7ubI3gluBsO2ywW2XNSuRqnNuqiQsIAIGXDIzd9WqE0+cFDBl14mLg1C+5Ov22gs7bpnXoSJygbFNGwJuhqQqsWadL+fSeHDqCa+LGz2Pc2NOAUMidBY4tYCFQ5cf9tjShwNaIeKCQOoRGM1bF2Ph7Uru7eFK9jqE2mmGejlnO1AfJ79bR2AEC0SxYPGN+cFXT29dS3ekFAehfJ1HhovzNsvl98WGJ7ZTz48wcTMkj+rd9O6IsnJHpUs5CurYtBB+AiGcBU4tYJ72juJmE77ql4XECQJZRWCXRYtWYYDg85XXoBoKglptf/5ZPY5UBVR9r4bIWdQI2K895owLXpo7d6eodXeSPnEQcDWf22O/fYrYDQ1b/NoOARckcjMkgsPKGpZUhU+frohGF5zOQrm98yozVhHnRi3zZbheZx60cCFGYoUEgc5EYMdHFv1k2LRuwxtRjQVkBeE6BG4NBvKqL3ak/IkcAb722FfITxnNly6OXHkHKXS5czuodBpFQfU0CmOla3uM/BZcmDiKDmxj3WZIUVbe9OqKyFkg5k6HAT+dZeaHbbB668JDli95gqJCgkCnIoD73ixh23C8EbXedXs1TDMYY1iLwAoilDgCQ1gHgimgj606bs5BiWeekQy73kFYMWOf9/TljJO4MJH92kaMHPhtYeLs7MJe4/TqisdZ6MOTFBrLXx382NIfhMVO0gsCWUBg2pIlT2Bc8gr7tUflOCvD8RRr2dMM4iEoSJI8sp2fkDf68pZ5tTV/ftf3hW7YdzUoT++++5YF07gGHry9MPFVLEq0N0NSFVkd3ZBDmLODD1vFnbo8stMOjlZXNM4CF2uNmNbKXNGcB/uIrJAg0BUITCkNf3OgVLqnsoFS5e5HTeDXHdWrj12BRroKWf7a4/Hr/rbg5HRZlg5rutpB6LV6z5tkGHvza40DWFXPDzGxc20g5ShUKnaDhB0QVcfs1ONqj3v2rqFOXa4CAQLV4kYeg1DZBquUM+cd/MgjLwRJK7KCQNYRMPr7R/A4MQ/z3gOVBpdViBUDw9w5vu4o1FYETMO6Yt0RR0xuqxEpzLxyv6bQtlhNWj1z1r74BsA5XJg4jKdbvrVAMFSH6pl5ws4C7VA28RiGnHrC69IfWeCTE6YWfnjI48tuDWO/pBUEsorA1EcWPVQyzRsrowgsCNsS+3VHOAmyEKFtl5avPeJrj/uUJk44s21GpDTjrnQQUC8Ns4TPs+Zyk0fQU3KnRNZVJ6nO1BnWcB7QWWhI30KAll2aeqPS5TeywA8x4ZsWTxasngs0zRIxQaAjESiMDl6P13uX1WzDjDbEGuZ+CPUtUEdCkNpC8ZPQaA/PXzV37q6pNbINhnWlg7Bi91kn9xg5LEy04BwUcmPoxNhZupHqRNXRTcYO03AWlA519NSlEaF08BiWotVVHVngzQVY2PqdddATC18Ka6ekFwSyjMB2jz/+GurauawTlXrLkQO+7siRBKG2IYBPzWPzpPy2Rr70hbYZkcKMu85BeAULE7Fq9RquSuTIAacXKpVV4wJRVrGnOOu6Yk+hqp4g+bupU/aoo5uMbpjSEdYm5teHNR0YVv3aQcuX/Fk3f5ETBDoZgSnLFt2Bzdh+ULMNM9cg8BPQUVS6TgYv5rINYj0IXnc/de3c2YfHnFVm1HedgzCEhYmbG/k9X0PJuTAxTJ3U6kyVo8CjD2np8knvjIpKl1MPz4MQh1EHTWvxsDEyP0g6kRUEOh2BvFH6wqBVeo7Tbzbh6VVed2z/VWcTXTByPaZhXP3XOXOK7beo/RZ0lYPwj5n7zioauXNew+M9pxacHWDYS6Gly+ks+DgMWro0DW6HLt5U2CBuECuDzzgSw6qapoqYINAVCOywdOmLlmlhTQ6n40j4K687puLa4/sZ3GFxzj5F8/2pMKjNRnSNg4D+2OgpmdcUc/nJG1w2Q2pHR1qZhugwZ8H+EFPOuvaQ5cvua/P9LdkLAqlEYIdHltyK16t/yWk4excWWYeQmus0vmWecfmzc+ZslRqj2mRI1zgIq3fd5z2YXzpxHSokt1Me99zdURdnwR0Xr1CFF+N7gS1WBP9t69LgDV7yEi4IdDsCqDOWYZifw2vW6/h9khyeXO2PN6lph24HqI3lH8WCUbz2OLOvaJ7dRjNSkXVXOAgvz5y5hZG3rtmUzxuemyF5XA7V+amjh5hWsNKhjp6JnFMRHkJKB49hKSpd3C0RUwsb4X2ducdTTw2HtUvSCwKdjACmGp7Fy3WXja9FUOsQOrnE2SkbX3ss5PLnrD1h7ozsWB29pV3hIIyMFc8rFIp7v+K1U2IAXKPqTJmllq6AzkJYh0HLJg+8+CGmkmFeetDyZcs8RCRYEBAEHAisnJD//pBZ+ou9gdIo3giW1x0d6LTvlK899hbyW1ljpfnts6L9OYftT9pfgiYWrN5l31m5Yu6+9cXCZOx3Ghv5LCMInKeWLs0rp6VL00I/XfwQ01DO/P2By/d+t5G7FS92CwkCgoAOAitmHfCmnrx1D+YcNre22QxfECqMvyatk1hkYkOATSxGRcdGrNxxO96xYEFsGaVYcUePIKBDM8yCee2w7RxUN/CJ43qEefKut0fpqg+v+c3eWnFNRO0PLV21STx/eeniHCq2UsbK7NxnxDnwhE8iBAFXBKb1L1pSMq0b+lif+TaD7wopVxUSGAMCvBx5w8CLb+ZV1oEHToghi9Sr7GgHYc1ue71vtFA4cWPldaLx6+G3NXAUV0x1pDyGIaceX13KUeDRg+p11f/mjcBdIdjZk7megMz5Ue5pQOYCxF6MFEwkYw8J8iQw4zAkd/5bn1j2jEf2EiwICAI+CFh9xS8PWObDPXybwfb8fYQlKjEEuBahL184Ys3Wm5+aWKYpysi330mRnYFNWT99+lbrC5MeGCoW9uDXGnVIvZWsI9uKjJsV9RdA/bbfsyj/4KEarnIeD7H/4o+KV7HqOO47YAEUAhSbwANrpvlzDH/YIpWQfhTnozgHWzxiwzeDX78ess9z2HQylxuCzDC86kG8xz1kGdZQ0SgMjmHTl4Mef+RrkBMSBASBFhFYtc/+s3t6Jtxe2nbzHouvPwqlAgE+KI3lrOfGzOJB0+688+VUGJWQER27W9SG/KTPmcUinAN0hRrE6lj7GeNqBVWdtQpxHsfPq69N4l7yJPopfMcWB5tpGRfDgOxTHO0OGyow7YVO2hrvsCHBzpsdNN4MMHBE54xPvMChGcI71Jj6NwbHw/DbsgYZbhjWIOIGoXM4Z+YHLcMcgpVDeRwx18m04NwI9oUYNo08ZHKjQ2OlscmTrNGCaY2+uGnT2ORtty3dtnAhV+nogYjMhAQBQaA1BKY+tuzuVfu+6dubl6zPDGBLP7uRaE2VpIoQAXymm689Tn/dHDsPai+KUHXqVfl0Z6m33dPAZ/acdfCIZfy9WEB36CLFPhn/wY7OGoGURTifpvG2nv1kPYrz8lO1YT9h47fduaLPxJpHdtb2b3z3yUKnrDpqPHVjJ0F4HHz6HmT4+BM3Ou4cOmojP2h31GOqozbQ8Y+OlCxjGPOQI4O95ujk0qTRgZHS2JRtCyObNm4srZg2rTRnwQLaRtOFBAFBoAMReGHarG0m7Dz5gclbbjZjlHsjdAn5PVi5QVB9JHOLjT6MAzr4VgMGX62Dtr/j7kXR55BOjR05gjBs5Q8o5o0fY05vgE/XWKo4ZObGn6KL+M2hcXbaY+zgTQudtYEncnMYr+nxqXoYsuz4R4ySNZrvA5dKoxvHxkZ3Gtpu9NUtXy3tu+++JePWhFbqP1e+cZ56Kp13kFglCAgCkSGw84r+V1btcvgZoyXzdDxVRKY3zYq4/gklLeEDenhQak5wJvgyKB++mhLaefTpJkZSDQttui/ZT154qMtbBj+f1SCOV1Ex1FrazleJRAoCgoAgIAgIAoKAICAICAKCgCAgCAgCgoAgIAgIAoKAICAICAKCgCAgCAgCgoAgIAgIAoKAICAICAKCgCAgCAgCgoAgIAgIAoKAICAICAKCgCAgCAgCgoAgIAgIAoKAICAICAKCgCAgCAgCgoAgIAgIAoKAICAICAKCgCAgCAgCgoAgIAgIAoKAICAICAKCgCAgCAgCgoAgIAgIAoKAICAICAKCgCAgCAgCgoAgIAgIAoKAICAICAKCgCAgCAgCgoAgIAgIAoKAICAICAKCgCAgCAgCgoAgIAgIAoKAICAICAKCgCAgCAgCgoAgIAgIAoKAICAICAKCgCAgCAgCgoAgIAgIAoKAICAICAKCgCAgCAgCgoAgIAgIAoKAICAICAKCgCAgCAgCgoAgIAgIAoKAICAICAKCgCAgCAgCgoAgIAgIAoKAICAICAKCgCAgCAgCgoAgIAgIAoKAICAICAKCgCAgCAgCgoAgIAgIAqlAwAhhxU5I+1awFUJHtyUdQYHXg1eD14KHwEnSdGT2ZrBcs9ZQH0WyQTCv4Rrwy2CGRUVbQ9FR4DD10mkL9bwIvtcZGMF5D3RMA7MN2BJcAAs1R4DXYxP4LjDbglaJdXg6OKp6TLseBK8E69ABEJoBjvLed+ZLe4bBfwUn3UY67Yjy/C1Qtgs4qmvmZhtxK4IfA/e7CSQZ9i/IjIUVDoYBG4aXwA+Dvwf+AHgKOAk6A5nI9QqPwQBwpJN3H/jr4JPA7CjD0uFQEPX1WQCdbDiioFlQciX4AfAr4BI4ans7Xd8LwOwN4DD0QySOGie257rEB8N/gKO2oV7fTchjkq5RKZZjG78BXF++OH4/gnz2TQMWH0yowHGAmDadrGw3gveL+cKeLtcstkq6DNjSAesNcQ0PRVo+OUV5f94OfWEdhG2g44tgjpxEaVs36noaGG4LDkN8sIgaO7bnQehNEH4KHLUd9fp+jjy2CGJYymQ/CXs4alRfrjh+03HfLcry56NUJrpaRoBDT+eA/wb+D/CuYKFsIUDn7hvgX4J3ypbpvtbujdjfgc8Hb+UrKZHdhMASFPYUMB2eOIlP37eAwzpVcdropZt15uvgJEZB/o58eD2eBUdG4iBEBmUkitgAnw2+C/xxsFwfgJAxehfs/Rn4DRmz283cvRD4K/BhbpES1vUILAIC7MAj7ZRcUOUUHkcSdnCJS2NQAUZdCb4BPCEBA7nG6P1gjkRHStIBRQpnZMo4gvB98I/ASa1PiMx4UWQvNOSQPBuKrNL2MPwW8L5ZLYDYnQgCC5FLLJ1TnfXH4vetYI62ppk4xXgj+BKwkYChf0MedNJeiCMvcRDiQDU6nadC1e/B+0enUjQlhMBHkA9HE7JIbNiuAr81i8aLzYkj8BByZCf1fMw5Hwn9/w3eI+Z8WlW/ORJ+B/zpVhUETHc35In7ioDptMXFQdCGqm2CByLn34JlmLdtl6CljFm35oH5SmDWiA3xR7NmtNjbVgTuR+6xPck6Ssb2kE7Cfo6wNJxyIe/N4KTqzV+RF/FeDY6NxEGIDdpIFU+Htl+AD45UqyiLGwE6dXxnPGvEFe1ZdGyyhnOn2cuFcuy0dPdTaLX8dA7oJBzUqoKI002Fvv8CvzdivV7q7kAE6+gaL4GowsVBiArJ+PVMQxY/Be8df1aSQ0QIsJM9OiJdSalhm5C2p7Okyi75hEfgPqhg57UqvCpfDZxm4AJajna1k2YgczorXCORBP0JmXDPiheTyEwchCRQji4P3ozcPCSLr/xEh0K2NGVtBIHrD/qyBbFYmzIE7oE9HwLHOvwN/VywyIWLSXXOyKqGuDbsN+BDakLj+/H/oPpU8Lr4sqjVLA5CLR5Z+MVh6+vBcu2ycLVyOQ4/FrJhasVKq3ImJ4JAawjcjWR0ErilfJzEVx9/Dj4pzkxcdB+KMDoHSY22/Q55fRj8Ejgxkk4mMagjzehj0MbKJ5R+BDaDiTKfn/7rJBZGj8BdUMnh8LidBI6o3gLm+ock6DhkwmmF3ZPIDHlwkTqdg1cSyq+SjTgIFSgydcLrdiWYT6dC6UZgAszL2ghCuhEV67KEwF9gbBLD4lsgH06/8uEpTjoZyjlisWOcmTh00xH5CHiDIyyxU3EQEoM68ox2g0buuhiEjCDCIisICAKRI9CNbe4dQPH/gOMeHp+EPL4FPhMcB50GpT8C85XGJOiXyIQOz8YkMnPLo+gWqBnWjTe6JjSJifHm+Q74Gc0chyDHm83UlO9EMT7Nc9hfnurbd3VHkfXr7cu+bTnTQV8P7sY1Hrej3Bwm/zE4zkXW3MnwP8B0Fr4Ijor4MHYDOKnpQr42+W/g18BtozAOwj2wmkNH3dzZOC8cb0wumOHKVi5g2R0cN22HDOiZc7pBh34NoXvB3XzNOOS/FXgPMFcfHwPeCywUPwLDyOKb4F+A436ajL80wXOgg0DnqG1PhMFNjjTFH6HtI+BbwHE+hbNf40JuOglXgMM4ZLxml4IvAyf1UPwz5EXnYBNYqAMRoId8GngJmDdnnMw8+EQs1BoCWyPZGWAupIrjOi2D3s3BOkTHkp1olHbwyY2NnC4VIPh3cJQ2UNcY+FNgofAIfA8qor4+HwxvlraGd0KSC+6iLoObPj71t/ogzIeJLydkp7KdzhMdG6EuQICOwjfA6uLHcWSHktR7uJ18yWajcOtiuFbiIIzf/1xsFcRR6eR7LWzZsu4gsPwngdV0SxztolPn15EXR3iDEDvpOHB22lV//kPkOTGIkXHLJjVkEnc50qr/ZRh2JvjyGA3knNhbYtTfLarvRkF/0C2FbUM5b0WebBCFBAEi8Fvwx8Cv8kfMxDaYixd1n8w5BcnO+hPgpIhtzxngwaQy1MlHHAQdlMLLXAkVnFeKi6bHpbjL9HJdjVA8CNBZFhIEnAj8Bj+SchKYz03gLZ0GuJxPQRjban7COiniSAWdmFQ5Byy8OAhEIX4qIYvLwOtiyipVw1IxlTEJtYJjfCjPiU+1aM4wApx64pP6awmU4QPIg3P8nPp1o+kI5KuF73CLjCns29B7FphTxakjcRCSuyRPIqvbYsrOiElvt6l9V7cVOMHyno68jkgwP8kqOwhw+omr9pN49fVE5MONjnYAO2lf/OBbXkc6A2M+5/q0z4BHYs6nZfXiILQMXUsJ72oplSRKAgGu4k5yWDGJMqUpD77W9mPwcWkySmxJDQL/BUuSerXvWOTFkYJdyqV/K46c7nhz+XcSh68hk3ng0SQyazWPYqsJNdLxFREu9pgM5qtTnUx8hYve70awnzf4SptB4EgDWRaLVS8E71G+m811In3VYDmLAYHp0Pk/YI6k/Qn8NHgI3En3I6cTOZfMFfobyuc4CGkgwCd79hXfAW+mIR9GhKNZvwB/C3wFWDkLOI2dbkQOnwOz30g1xeEgHIwS/zOYQzW7gjmv2+lD4CbKyIZuJXgx+A/gO8GvgdNE74Qx54Jpb7cTOyXelzuD9+x2MBIsP9sDjtSo0Ro/hzpBsyLLinWLT4UD4LXgR8F3gf8MfgYs5I/ATxDNkW06CbxX4qRDoJycJH0JmV0IpiOZeorSQZiB0s4H0zmI+8Iii1TSTrDqYPAnwXQU6Cn+FJwWT3EX2HI0WEgQSAsCfE2304gjURw5nQJ+I5jTV1yg/F9gdhD/AAt5I3ALougkfAvcSX3J9SjPReDMPKBFtQbheBT6dvCp4E66oChOy/RmpPwRmI0Cnac0UCa81jQAJTYIAhEjsB30nQX+C5jtpZA/Amw7iRdHZjuBrkEhMuUcEPQoHIR3QA/njnajQqEGBE5GyB/Bh4I75WZvKKQEeCLA0aPMPDF4lkIiokJgdyhieylOQnNEb4LIp8GpfAWwufkViStxdgk4c+1AWAdhJgr9XTD3sxfyRoA48VWe48DyFO+NUyfGDKJQI51YMClTywiwveQc+/SWNXRPwu+jqKl+FdDnUnCd03zwZWCeZ47COAgGSvsFMBd5CTVHYBpEuEAwDObNcxGJtCHAuWeOIggJAk4EpuMHh5yFmiPAh9BzwFlytOkQsH+8HJxJ5wB2h+qsuPiGCxKF9BEoQpSOlVD3IPBYxorKEa7nM2ZzVs3lmxx7ZdX4hO3mgsV54Cw4CZxKuBh8FTjTFOZp9iSUXPfjF5kGSYwXBEIgcF+ItO1KyjnyzD71tAu0FvLdEmm4hktID4FvQux8cJqnaQdg32fB14IzT606CEx3ROZLLwUQBOJFgE/iWXQQfge7ubBWKH4EDos/i47JoRcl2R2c5lFYbpDVMXWnVQdhM4CwG1hIEBAEvBH4FaJe9I5ObQyHcc8Dr0ithZ1j2K4oCqcehfwR2AbRN4O5FqHVfss/h2hiuRfOb8FHRaOuvVpaBZqbgHB4TEgQEATcEaBjwCHRrBLXTnwMzEWWQvEhwLa0Lz71HaGZTtQvwVyzkQXivjd8OHhvFoz1s7FVB4E3tHi9fshKXLcjwHefn8o4CHfAfu7jkbWFllmCnd+skbbU+4pxMTyfyI/2FkllDDfG+jH4U6m0TtOoVh0ETfUiJgh0JQJ8LevbHVLye1AOburzA3DWN6zpkEvSNcWgU0DngE5CFomL+L8OvgxcyGIBWnUQuMKZLCQICAJVBDh3z732zwZ30t4HK1CeT4DfDv45WKYdAIJQrAhwOoHTCpxeyDLRMZgP/k9w5t76K8LoVoiNX+a2jWyloJJGENBAgJ/6XgD+GpjfJOlUugsFI08HHwjeD8xFWVy0nMknJNjtRmwXp4D3KB/dZCQsPgTOguobwJ30XZ9/R3l4T50OfgmcCWrVQYh79GAU6D0I5twn3ys1wGmnHWDgW8FZ93iD4vwyEqwBZ+EaBS2bmzwd4yEwy/0cmF/tvAfcD467XiCLVNBzsILMhVidSmwbdwTPBbNxPwQsFC8CxPwy8EXgVke3g1rIUT/mm0R+XM/zBvBp4GfBqScC0wqxkYxrBIHAnQG+E0xHIUu0PYx9F5g7fvHpqhvoZhTy8+AkKlga8OR9z41aOmkKIQ24ps0GXt8XwD8C/zf4WvCZYKF4EOAo1I3gf4tHvatWPskzv2ngL4F7wXHTbGTAdRUfAS+KO7N26adnvRrMJ6YoeRD6OuErZ3QUfhYxNn44c35Lh06HkJ+eVuKu18lYZLQQOBRSXAjYynXwSsMpj24Z3dECuUWhHqS7A+yFc6vhj0PnVgFt+l4MdnwwoA1RirO9/HUMZfK7Js8jv6MdhWCH/WqCNjD/4xz5p/K01ac+PkHxSSpqoqf+56iVtkHfi8iTnukDbcg76Syl80kaccmvHQhwKJpvcghFi8AMqGO7/55o1fpqW45Y7lHwV4fUzTg/FbzOERbn6c5Q/gvwv8SZSVjdrToIyjMLm399eg69dApx4dr/dEphpByCgCBgf8SKbZ9QNAgcBDVs84+IRp2WFq5tezd4oYs0bXkf+B8ucXEEceToJvA5cSiPQmerDgJHEOKoKBOiKFSKdExOkS1iiiAgCIRDYCcklxGzcBiq1JxK/g14XxWQwPEvyONk8BM+ed2NOI5mcNFxEsR1D18BXwdOXf/XqoNA5yCOKYYTobdTiI0JvVEhQUAQyD4CbLxPy34xUlECDuVzeJ1tZFLEaYz3g1doZLgYMhxl+LuGbBQidDovAH8XnKqHylYdBDoHcYwgcF7o0+CsE+fVbgHPzHpBxH5BQBCwX3f8BnA4QbAIjcC50PB98JahNekr4DD+R8Av6yfJPQ1Zjjb8MUCasKKnQQEXt/MlgFRQq685xjWCQC/9RjDnpr4HfhbM6YwsDOsRk63B7wCfDd4VLCQIZAWBzWHoFmDex91OxIBt0TQwh8I/DKbTL9Q6AsTzavD54CTb8y8jv8+DR8FBaTUSfAj8LXBSb3m8E3n9GvxRMN9waSuFcRDiakgKQITeHi8MPT6OVmSFVCObFXvFTkFAIcBXYPmJ57jqtconK0e2jXT42bEJhUOAjufXwOz0kiI+WF4GvgYc5p7egPT/Cl4P5oZZSRA35fotmHglNc3hWq4wDsKYq8boAlkxd4hOnWgSBAQBHwS2RNyOPvESJQi0ggDvqR+Ak5yeGUJ+dHa/CY6CuD8Pp75fAV8ETmIEZE/kw0WcnwD/DtwWanUNAo0N45W1pbCSqSAgCHgikKWROs9CSESqENgb1rCTS9I52Ij8+MQflXMAVTZxROISMKdIRuyQ+P9MQRY/BbM8baFWHQQ6BwRMSBAQBAQBQUAQqEfgcATcBj64PiLG32uhm2sFuNAvLvoKFH8S/HpcGdTpnYzf3wFfDE5i5KIm+zAOgjxx1EApPwQBQUAQEASAwIng/wbPTBCNZ5HXP4P/mECeP0IeHwbzWw5JEJcCXAW+EdyXRIYqD3EQFBJyFAQEAUFAEAiLAIfDOSzO4fGkaBkyeg/4f5PKEPlw6uQU8PMJ5nk28vohmItnEyFxEBKBWTIRBAQBQcAVAb5+1wnTtRz+/jz422C+zZUU3YuM6BwsTSpDRz4LcP5e8GOOsLhPOYVyK3iXuDOi/lYdBE4vtPJeaRJlkjwEAUFAEMgKAhtg6EBWjPWwk8PeHP6+Bpzka6F/QH6cVngG3C56GBm/G3x/ggYcg7z+B7x/3Hm26iDQOXgxbuNEvyAgCAgCHY7AcpQvyyMIHO6+Cczh7yTp58jsQ+A1SWbqkdeTCOeui3/2iI8j+M1Qyr0S3haHcqWzVQeBbzEkOd+j7JWjICAICAKdhECSnUrUuO0MhfymAjvqJOlbyOxfwRuTzLRJXqsQz+F/4pEUTUdGvwK/L64MW3UQaA/nQZJaxRlX+UWvICAICALtQoBz17e3K/OQ+e6H9BzmPjakniDJ+WB6LfjT4MEgCROSXY98TgPztcSkaFtkdDP4zDgyDOMgPAWDeLGE9BFYCdG4d6DUt0YkBQFBoF0IqM6OnUrWaDYM5vD2AQkazmntz4EvAqd5SoaOy1ng68C8xknQRGTyNfAVYL4SGRmFcRBoxH+Co96xKrLCpUwRp2T4LmtYzFNWLDFHEBAEWkDg+0jD1wGzRlwUyGHt3RI0fBPy+nfwlxLMM0xWfAjkGx10aOjYJEHsVy4F86ujm0WVYdjOioU/B3wFOI1DPlHhFFbPr6GA80RcbRsW87C2SHpBQBBoLwI/RvbngtP8JOyGEDvpm8FvcIuMKYzfP/go+Acx6Y9TLR0aYkYHJyn6JDL6CXj7KDKMorOik3AZ+ATw78BDYKFxBJbg8DHwB8BcbdsLjoN0r6OuXBAb49AZJP9OkuW75JEOEUIfv46qQ3IddVAKJ/MskvOB6uPg10OoiuNa8d7zIrZbHP3kaPEkL6EYwjkl+34wRyyySnRsPgJ+OcECvBt5cQpor7B5RtkY3QVj7gYfBH47mHtx7waeCO4mehWFXQy+DfwnMH8rGsDJP9SPCI8vaeriqt+o80/yxtcsZmbF6Fw/De6JsARcXa1DfFKL+t7QybeTZTjUvA7MVxkXgNkeRPFaHnVGfa28HBb2EWeD2ck9D05qXp1lPBP8ADjrxG2n2fZ+BbxlQoXZGfncCP4UmNetJTJaSqWfiN6m7hOMvtZ0S3JExWsUhZUtDodpBHqHNWCZAJk+DbkgIrp5B9HZrbKsK1E/obGT0pn+o1MS1whXt15Pdqasl1HPQ7MOsy5HSbxHeK/UE/uIrcAlcFLOAW3oxHaFbX+UD+XEyY+YFx9KdfoGPz0SJwgIAoKAICAICAKCgCAgCAgCgoAgIAgIAoKAICAICAKCgCAgCAgCgoAgIAgIAoKAICAICAKCgCAgCAgCgoAgIAgIAoKAICAICAKCgCAgCAgCgoAgIAgIAoKAICAICAKCgCAgCAgCgoAgIAgIAoKAICAICAKCgCAgCAgCgoAgIAgIAoKAICAICAKCgCAgCAgCgoAgIAgIAoKAICAICAKCgCAgCAgCgoAgIAgIAoKAICAICAKCgCAgCAgCgoAgIAgIAoKAICAICAKCgCAgCAgCgoAgIAgIAoKAICAICAKCgCAgCAgCgoAgIAgIAoKAICAICAKCgCAgCAgCgoAgIAgIAoKAICAICAKCgCAgCAgCgoAgIAgIAoKAICAICAKCgCAgCAgCgoAgIAgIAoKAICAICAKCgCAgCAgCgoAgIAgIAoKAICAICAKCgCAgCAgCgoAgIAgIAoKAICAICAKCgCAgCAgCgoAgIAgIAoKAICAICAKCgCAgCAgCgoAgIAgIAoKAICAICAKCgCAgCAgCgoAgIAgIAoKAICAICAKCgCAgCAgCgoAgIAgIAoKAICAICAKCgCAgCAgCgoAgIAgIAoKAICAIuCLw/wHfpmbvQ453zwAAAABJRU5ErkJggg==" parent="1" vertex="1">
          <mxGeometry x="280" y="462.5" width="55" height="55" as="geometry" />
        </mxCell>
        <mxCell id="8wmx1nXhgL71GgYih72c-23" value="" style="rounded=1;whiteSpace=wrap;html=1;fillColor=#ffe6cc;strokeColor=#d79b00;shadow=1;" parent="1" vertex="1">
          <mxGeometry x="61" y="512.5" width="120" height="60" as="geometry" />
        </mxCell>
        <mxCell id="8wmx1nXhgL71GgYih72c-24" value="Service Provider2" style="text;html=1;strokeColor=none;fillColor=none;align=center;verticalAlign=middle;whiteSpace=wrap;rounded=0;fontSize=12;fontColor=#000000;" parent="1" vertex="1">
          <mxGeometry x="71" y="527.5" width="100" height="30" as="geometry" />
        </mxCell>
        <mxCell id="8wmx1nXhgL71GgYih72c-25" value="" style="endArrow=classic;html=1;rounded=0;" parent="1" edge="1">
          <mxGeometry width="50" height="50" relative="1" as="geometry">
            <mxPoint x="180" y="440" as="sourcePoint" />
            <mxPoint x="280" y="480" as="targetPoint" />
            <Array as="points">
              <mxPoint x="250" y="440" />
              <mxPoint x="250" y="480" />
            </Array>
          </mxGeometry>
        </mxCell>
        <mxCell id="8wmx1nXhgL71GgYih72c-27" value="" style="shape=image;verticalLabelPosition=bottom;verticalAlign=top;imageAspect=0;aspect=fixed;image=data:image/png,iVBORw0KGgoAAAANSUhEUgAAC7gAAAfQCAMAAABlzOIIAAAABGdBTUEAALGPC/xhBQAAAAFzUkdCAK7OHOkAAAFuUExURUdwTP9lAP9mAP9lAP9qALe3t7i4uP9lALW1tbe3t/9lAP9lAP9jAOZcIv9mAP9mAP9lAP9jAP9lAP9lAP9lAP9lAP9mALe3t/9mAP9mAP9lAP9mAP9lAP9mAP9oAP9mAP9lAP9lAP9lAP9lALm5ubi4uLe3t/9qALi4uLi4uLi4uLi4uP9lALi4uP9mALi4uP9lAP9lALW1tbi4uP9kAP9mAP9lALi4uP9lAP9nAP9mAP9mALi4uP9mAP9lALi4uLi4uP9lAP9lALi4uLi4uP9mALi4uLi4uP9mAP9lAP9mAP9lALe3t7i4uLi4uLe3t/9mALi4uP9lAP9mAP9lAP9mALi4uP9kAP9mAP9lAP9mALe3t/9mAP9mALi4uP9nALi4uLi4uLi4uP9mAP9mAP9lAP9lALi4uLi4uLi4uP9mALi4uLi4uLe3t/9mAP9mAP9lALi4uP9mALe3t/9lALOzs729vbm5uf9mALi4uAj9Y3MAAAB4dFJOUwDYX+4YnVqIH0uUdBYBq1VOJKi1xmq73ZHC3Tkz+QRanCr1mQTG/ghz+COq/NhwzHgOCOMK/mbp6xJXzu6w4ZeJgPF5OtPzkEouReRsVbAZ51D9Yx7WRhvbn3wsjUEzIWWi/W2kPoS3v0C4gdAUO7/KXyanUg0LEDl4bXoAACAASURBVHja7MEBAQAAAICQ/q/uCAoAAAAAAAAAAAAAAAAAAAAAAAAAAAAAAAAAAAAAAAAAAAAAAAAAAAAAAAAAAAAAAAAAAAAAAAAAAAAAAAAAAAAAAAAAAAAAAAAAAAAAAAAAAAAAAAAAAAAAAAAAAAAAAAAAAAAAAAAAAAAAAAAAAAAAAAAAAAAAAAAAAAAAAAAAAAAAAAAAAAAAAAAAAAAAAAAAAAAAAAAAAAAAAAAAAAAAAAAAAAAAAAAAAAAAAAAAAAAAAAAAAAAAAAAAAAAAAAAAAAAAAAAAAAAAAAAAAAAAAAAAAAAAAAAAAAAAAAAAAAAAAAAAAAAAAAAAAAAAAAAAAAAAAAAAAAAAAAAAAAAAAAAAAAAAAAAAAAAAAAAAAAAAAAAAAAAAAAAAAAAAAAAAAAAAAAAAAAAAAAAAAAAAAAAAAAAAAAAAAAAAAAAAAAAAAAAAAAAAAAAAAAAAAAAAAAAAAAAAAAAAAAAAAAAAAAAAAAAAAAAAAAAAAAAAAAAAAAAAAAAAAAAAAAAAAAAAAAAAAAAAAAAAAAAAAAAAAAAAAAAAAAAAAAAAAAAAAAAAAAAAAAAAAAAAAAAAAAAAAAAAAAAAAAAAAAAAAAAAAAAAAAAAAAAAAAAAAAAAAAAAAAAAAAAAAAAAAAAAAAAAAAAAAAAAAAAAAAAAAAAAAAAAAAAAAAAAAAAAAACA2YMDAQAAAAAg/9dGUFVVVVVVVVVVVVVVVVVVVVVVVVVVVVVVVVVVVVVVVVVVVVVVVVVVVVVVVVVVVVVVVVVVVVVVVVVVVVVVVVVVVVVVVVVVVVVVVVVVVVVVVVVVVVVVVVVVVVVVVVVVVVVVVVVVVVVVVVVVVVVVVVVVVVVVVVVVVVVVVVVVVVVVVVVVVVVVVVVVVVVVVVVVVVVVVVVVVVVVVVVVVVVVVVVVVVVVVVVVVVVVVVVVVVVVVVVVVVVVVVVVVVVVVVVVVVVVVVVVVVVVVVVVVVVVVVVVVVVVVVVVVVVVVVVVVVVVVVVVVVVVVVVVVVVVVVVVVVVVVVVVVVVVVVVVVVVVVVVVVVVVVVVVVVVVVVVVVVVVVVVVVVVVVVVVVVVVVVVVVVVVVVVVVVVVVVVVVVVVVVVVVVVVVVVVVVVVVVVVVVVVVVVVVVVVVVVVVVVVVVVVVVVVVVVVVVVVVVVVVVVVVVVVVVVVVVVVVVVVVVVVVVVVVVVVVVVVVVVVVVVVVVVVVVVVVVVVVVVVVVVVVVVVVVVVVVVVVVVVVVVVVVVVVVVVVVVVVVVVVVVVVVVVVVVVVVVVVVVVVVVVVVVVVVVVVVVVVVVVVVVVVVVVVVVVVVVVVVVVVVVVVVVVVVVVVVVVVVVVVVVVVVVVVVVVVVVVVVVVVVVVVVVVVVVVVVVVVVVVVVVhDw4EAAAAAID8XxtBVVVVVVVVVVVVVVVVVVVVVVVVVVVVVVVVVVVVVVVVVVVVVVVVVVVVVVVVVVVVVVVVVVVVVVVVVVVVVVVVVVVVVVVVVVVVVVVVVVVVVVVVVVVVVVVVVVVVVVVVVVVVVVVVVVVVVVVVVVVVVVVVVVVVVVVVVVVVVVVVVVVVVVVVVVVVVVVVVVVVVVVVVVVVVVVVVVVVVVVVVVVVVVVVVVVVVVVVVVVVVVVVVVVVVVVVVVVVVVVVVVVVVVVVVVVVVVVVVVVVVVVVVVVVVVVVVVVVVVVVVVVVVVVVVVVVVVVVVVVVVVVVVVVVVVVVVVVVVVVVVVVVVVVVVVVVVVVVVVVVVVVVVVVVVVVVVVVVVVVVVVVVVVVVVVVVVVVVVVVVVVVVVVVVVVVVVVVVVVVVVVVVVVVVVVVVVVVVVVVVVVVVVVVVVVVVVVVVVVVVVVVVVVVVVVVVVVVVVVVVVVVVVVVVVVVVVVVVVVVVVVVVVVVVVVVVVVVVVVVVVVVVVVVVVVVVVVVVVVVVVVVVVVVVVVVVVVVVVVVVVVVVVVVVVVVVVVVVVVVVVVVVVVVVVVVVVVVVVVVVVVVVVVVVVVVVVVVVVVVVVVVVVVVVVVVVVVVVVVVVVVVVVVVVVVVVVVVVVVVVVVVVVVVVVVVVVVVVVVVVVVVVVVVVVVVVVVVVVVVVVYU9OBAAAAAAAPJ/bQRVVVVVVVVVVVVVVVVVVVVVVVVVVVVVVVVVVVVVVVVVVVVVVVVVVVVVVVVVVVVVVVVVVVVVVVVVVVVVVVVVVVVVVVVVVVVVVVVVVVVVVVVVVVVVVVVVVVVVVVVVVVVVVVVVVVVVVVVVVVVVVVVVVVVVVVVVVVVVVVVVVVVVVVVVVVVVVVVVVVVVVVVVVVVVVVVVVVVVVVVVVVVVVVVVVVVVVVVVVVVVVVVVVVVVVVVVVVVVVVVVVVVVVVVVVVVVVVVVVVVVVVVVVVVVVVVVVVVVVVVVVVVVVVVVVVVVVVVVVVVVVVVVVVVVVVVVVVVVVVVVVVVVVVVVVVVVVVVVVVVVVVVVVVVVVVVVVVVVVVVVVVVVVVVVVVVVVVVVVVVVVVVVVVVVVVVVVVVVVVVVVVVVVVVVVVVVVVVVVVVVVVVVVVVVVVVVVVVVVVVVVVVVVVVVVVVVVVVVVVVVVVVVVVVVVVVVVVVVVVVVVVVVVVVVVVVVVVVVVVVVVVVVVVVVVVVVVVVVVVVVVVVVVVVVVVVVVVVVVVVVVVVVVVVVVVVVVVVVVVVVVVVVVVVVVVVVVVVVVVVVVVVVVVVVVVVVVVVVVVVVVVVVVVVVVVVVVVVVVVVVVVVVVVVVVVVVVVVVVVVVVVVVVVVVVVVVVVVVVVVVVVVVVVVVVVVVVVVVVVVVFfbu/amKMg7gcF5AhNATk5AgjiAqIOAoCMgloAyUOEhDoEmAopOg0UVD2P8+sJrpZsC+yzm72/Pwgz++s7vnZT8uXxYAAAAAAAAAAAAAAAAAAAAAAAAAAAAAAAAAAAAAAAAAAAAAAAAAAAAAAAAAAAAAAAAAAAAAAAAAAAAAAAAAAAAAAAAAAAAAAAAAAAAAAAAAAAAAAAAAAAAAAAAAAAAAAAAAAAAAAAAAAAAAAAAAAAAAAAAAAAAAAAAAAAAAAAAAAAAAAAAAAAAAAAAAAAAAAAAAAAAAAAAAAAAAAAAAAAAAAAAAAAAAAAAAAAAAAAAAAAAAAAAAAAAAAAAAAAAAAAAAAAAAAAAAAAAAAAAAAAAAAAAAAAAAAAAAAAAAAAAAAAAAAAAAAAAAAAAAAAAAAAAAAAAAAAAAAAAAAAAAAAAAAAAAAAAAAAAAAAAAAAAAAAAAAAAAAAAAAAAAAAAAAAAAAAAAAAAAAAAAAAAAAAAAAAAAAAAAAAAAAAAAAAAAAAAAAAAAAAAAAAAAAAAAAAAAAAAAAAAAAAAAAACA1NuqWlpZLO56smf339MbS1XbzgsAAKTA5kpl+9TT9e6B6D1GutefTrUXV946VwAAUHq1nV+9un5jJDqQtd2v3vWKmbtbThwAAJRKVeXYlckojrXuN+0rbc4gHFLfcv/jUwfwXc3Z10mvfa1pfuIga5+amG+65lIBQGoszVzv3XuEHmDkxecrtc4kHLja53/s2jm4ueoLya1dWxhtPcTaraOFPG7uD08cicHGxi+Gf6qvH62rnng2tHz/5EUf9rIa2veS3cvT4T7b93Av5O0K9x9mf762I8i8t4tTDVEyBp4Wjc3AQVzsGdw5pNsvWxJavLBw2LV3jhXydw1O7pTIZ8deXq755f5NH/uyOL7vBcrVh7tm38NtytsV7jnMbmz5P+6B07Gzbu1B9o9+PPbRV6XyeLYqZzuiJHXMFm+5UcA+WobjBGBzTRJr3zkTqz7r+oR7oMGPn0+c/chPJoW7cBfuGQn3aCb7R9+Qp3C/VZydjJI3WbHhzgT/5V5rzPR7Hj5uvvoo5trDXwv3RJ6/n//k+H3jM8JduAv3DIT7lcwf/EqUm3Cv7RwfiI5K76tNdwt4n0Jz7OqrDy2+h1/GXnsuZ9OhZQr33354Mnxp3rCtcBfuwj3l4Z79WZnxvIR7W+WV6Eh1vLnrfgH/qqk5oPguh63dNxywduMd4Z6kubpzq7aDcBfuwj294Z79WZmGfIT79kxvdPRu/GxiBv7p5qe3Q2rvXNDidUGlOSrck7bw7bS3bQp34S7c0xruWZ+VCZiUSVG4d45NRqXxfaW3u8PfVYeVXmvIQ9pCYGYOCffE3W49U9Duwl24C/dUhvvVqmwf+3gOwr1qqiMqne6ip+7wF6tdgaF3Kf7atQuBazfm6ZcqUxLue058s+xbpXAX7sI9feGe8VmZ2obMh3tnRSmz/d3AzKL7BvxJdWjkNZ+MvXYhuDDz9Mg9ReG+69HjhzaHcBfuwj1t4Z7tWZmQSZlUhPv2eKmzfc+LTncO+MO1E8GJF/9t7qPBa78U7kema3TZ/hDuwl24pyvcsz0rM57tcG97MhCVRceUv6cKv5sOD7zzsf/T0Bq8dnOO/gxT2sJ97135/abdhbtwF+5pCvdMz8oETcqUP9w3uqOy6S26ecA7Ewm8Azxu3P2QQFpOC/ejfUVkT59NItyFu3BPT7hneVYmaFKm3OG+OXY1KqfZBx/Ar+zdDUMTVxbG8amWF18GX5YadTVajVGiCCQr6IoSJCaAQmqtuF0sYlwFirgqQpNvv9p2u+2u7Z47uZl7T+7/+QDOOONhflyfuUOiaMAC7pI+esYtHPs5cO9wrk+PMSbAHbgDd1/g3lDclSnrhXu8OtlynIlenh+ERNGgBdrNJjy2hdX+5hPg3vlV9/EsgwLcgTtw9wPuirsy7TVlnMK9vtbyIJd/4AlCyF0LsDuU8NhPLBz7fPfcCm/h3mw+mmVSgDtwB+5+wF1vV6bS0gr3hYmWFylVeISQ4POZBdadSXjs4xaOfRa4p5Lv3zErwB24A3cf4K63K1NWCved7ZYvyc/wJVUC3IE7cJe8gtzHBjPAHbgDdw/grrYr02ZTxhncl4dbHmWNugwB7sAduIv6Mi8YF+AO3IG7e7hr7cq02ZRxBffeasMnuLcyyzxGCHAH7sBdkGvHWXQH7sAduDuHu9auTFkj3HNTLd9SfcBzhAB34A7cJbk7x8QAd+AO3B3DXWlXJi4phPvOWsu/5Dd5kBDgDtyBuyTnHjIywB24A3fHcNfZlWm3KeMC7oXhlpepxTxKCHAH7sBdtP8mdRngDtyBu1u46+zK1Brq4L4y0fI0l4s8SwhwB+7AXVJ0H/ycqQHuwB24u4S7yq5M202Z9OG+UfXV7a3G+i4PEwLcgTtwl+T2l4wNcAfuwN0l3DV2ZdpuyqQO9wdDrRZyJwS4A3flcG/eec3cAHfgDtwdwl1jV6amDe5vGy2vg9wJcAfuwF34Mab3DA5wB+7A3R3cW5fU/aXjUkMX3Hs9dztyJ8AduAN3aa6cYXKAO3AH7s7g3tDXlWm/KZMu3O26fWgikxkeGRnJZEoWe/NrOR4oBLgDd+CO3IE7cAfufsO9lVfXlak1VMF9IW8D7kMj2+X7+1b6d379Rxfry0v3y4uv8u3/+dvsCkmAO3AH7rK2zGFmB7gDd/Vwz2qFe0NbV6b9PWVShftS2++lDl0oLyz/zor4T9wuVlZ72r0qUzxRCHAH7sBdJvdZhge4A3fdcM8emNYKd3X7ylhoyqQI95X2+iz5kc0N4T7rhdXFtn5HuBQRAtyBO3AXfUT1FNMD3IG7ZrjPvWn2qYW7tq5MTRPcC5Pt3Jn1VbMT3eldbKM184BnCgHuwN1vuH926I+zZ3x8/Oro6OjLvr6+/ee/HTj25tG9O52Q+73HjA9wB+5q4f6X41eaiuGubKnVRlMmNbhvtXGymc1CgiPWNxMfsrrCQ4UAd+DuNdwHE/3hY4/fnZp/v+eL6f0DJ05esSP3m2PMD3AH7krhPnv74+H1wl3ZvjI2mjJpwT13IXmBaSHp26K53uGExyzVeaoQ4A7cuw/uv0n2yPzz84PtL8Pf4o1+4A7cVcL986M/HV7xiruurkxNEdx7Eu/OuNHOYeOFhHRfZ1NIAtyBe5fD/ecfk18+PNvm7T/AAAF34K4P7vHDvU31cFe1r4yVpkxKcL+UdLV9o90j51YnEh25xmOFAHfgHgLcf8zjPf/Y28bWMq+ZIOAO3LXB/d2JXw6vGO6q9pWx0pRJB+4byfZvz1h5SXRrKtHRF3iuEOAO3EOB+4dk5/dfT/yC6g1GCLgDd1Vwvzh9utkVcNfUlampgXuyF1Orm0VLx68k6ctUCxEhwB24BwP3j3Y/PHA62fUfYISAO3DXBPfXj641uwPuivaVsdOUSQPuufVELXOLZ1YsJ1h0v0DNnQB34B4U3D/k4OjtRDfgEDME3IG7GriPHf/6N4fXDHdF+8rYacqkAffNJOvdq1a3KYg3Evyas8mThQB34B4Y3KMou+dvCW7A9YMMEXAH7krg/v7efx1e9Yq7nq5MTQvcKwlWu0esn9bWmvlvcRUeLQS4A/fQ4B5F8Z6T5nfgKEME3IG7Crg/vvU/h1cNdzX7ylhqynQe7rsZ85Oa6kRLZcb4U6rDxYgQ4A7cQ4N7FF0cPWd8C+aZIuAO3P2Hezz+iU83eAv3GcmmhFq6MpKmzKVFD+A+ZV6T6dCGLgtV0zMp82whwB24Bwj3KHp6zPQW3M0yRsAduPsO97nBTx3eW7j37gx1T1dG0JSp7va4h/s+43Xu0nLHftkx3NK9kV/h4UKAO3APEe5RfNV0g5nnjBFwB+7/yeyAQR6nc04XX356rP2Fe7QoWaZW8Q9C0pS5HLmH+27JFO4Xtjr39eyCaW3nFTvLEOAO3IOEexTNGb6kupfN3IE7cPc63/3eTHsM996u2VdG0pRZ8ADuxq/Qru128LeduG66o/t9Bp0Ad+AeJtyjG4Z1mZfMEXAH7v7mxvlrTX1w756ujKgp4x7uy3nDLWUWO/w+qKncq3VmnQB34B4m3KPseaObcI4ld+AO3L3NmT/4MrLHcO+aroykKbMdOYd7bsRwgftZ3Okrt2Uo9x6GnQB34B4o3KNo2ugu9DFIwB24+5mn3/s3ujK490pK1gruwIbg7/HAPdxXDd2+nUKlvN9sH80G76cS4A7cg4V7NGq05M5XmIA7cPcx2QPnmlrh3i1dGUlTpugc7juGu7gspvIq6PKk0UmtM/EEuAP3YOEe9Znchr8zScAduPuXuTde/meZDO5d0pURNmVcw71sVnC/kNL3jjaGjE5rHzNPgDtwDxbu8VmD23CPvdyBO3D3Lt9caWqGe3fsKyNsyjiGe78ZkIe30rp8Zg2eVzFTT4A7cA8V7lHWZG+Z94wScAfuvuVIUzXcu6MrM9UQNWUcw73HyMeThRSvn9GZvWXqCXAH7sHCPbpxUn4fjjFKwB24A3ercO+KrkxuQtaUcQv3gtGCe2MpzQtotNtNhq8wEeAO3MOFe3RK/g3Va0eYJeAO3IG7Vbh3w74y0qaMW7g/M2q4z6R6BQtVk3PrZewJcAfu4cJdgK5fMsosAXfgDtytwr0bujKCpsePTRmncC/kjTaUSblIft/kPwOGabkT4A7cA4Z7fEJ8I24yS8AduAN3q3Dvgq6MZE+ZZ5FruBs13EtbaV/DNZPTe8DcE+AO3MOFe3REXpahKwPcgTtwtwt3/V0ZcVPGJdyNFtwbG6lfxC2TPebZWIYAd+AeMtwNdnMfZZiAO3AH7lbhrr8rI27KuIS7UcO97OAqLpgsuS8x+AS4A/eA4T52XXonBhkm4A7cgbtVuKvvykj2lPmpKeMQ7kYL7sNFF9dxm8+nEgLcgbssX0jvxJUxpgm4A3fgbhXu2rsy8qaMQ7ibNNzzK06uY33S4BwrTD4B7sA9YLhf/Ep6K2aZJuAO3IG7VbjvKu/KyJsy7uBeH/K8KPMxJjvLrDH5BLgD94DhHk1Lb8UTpgm4A3fgbhXuyrsyuYm8tCnjDu6bJjvKFB1dydjgM0z5AqNPgDtwDxjuB88Jb8Vdpgm4A3fgbhfuC6q7MpKmzD7HcC+abNnibq/FikERv8boE+AO3AOGe3RU+vFUSu7AHbgDd7tw192VETRlJouO4f5WSQnlsvw0J4vMPgHuwD1guB+W3osXjBNwB+7A3SrcVXdlDPaUcQd3gw7KkMsOSsGgiv+W2SfAHbgHDPesdEfIq4wTcAfuwN0u3DV3ZZYMmjKu4F4xWHCvxS4/bjQlP9FXzD4B7sA9YLhHZ4X34lvGCbgDd+BuF+67Vb1dGZOmjCu4GzRQqnWnV7PfYMl9heEnwB24Bwz3Q7ydCtyBO3B3A3eRLP3syhg1ZRzBvT8v/2rqjOPrabDffA/DT4A7cA8Y7je+lp3Z6SzzBNyBO3C3CvdYb1fGZE8ZV3AvG7zyueP2csYF+e8Y1R+YfgLcgXu4cI9uCm/GU+YJuAN34G4V7oq7MpKmTM4t3HOllpoF9yjalp/sJaafAHfgHjDc+4Q3Y555Au7AHbjbhbvaroxZU8YN3Jf0LLh/yLJ8yZ3XUwlwB+4hw11ach9nnoA7cAfuluGutStjtKeMI7g/k8O97MElXZSf7jLjT4A7cA8X7keEN+Ml8wTcgTtwtwx3rV0Zs6aME7hLLu2/93Cve3BJDf6DYJPxJ8AduIcL9/iO7NSOMk/AHbgDd8twV9qVkTRlfr35iQu4G3w11Yt9WuKM+HwzMfNPgDtwDxbu0QnZqf2TeQLuwB2424a7zq6MZHV4yTHc17XtjD4jP+EK80+AO3APF+7CTzCxkTtwB+7A3TrcdXZleiRNmdgp3PvlL3t68otRXf4RphrzT4A7cA8X7qOyU/uKeQLuwB2424a7yq6MaVPGBdwN1q9XPbms8tdTJ3L8ACDAHbgHC/e/Cr/ARKsQuAN34G4d7hq7MqZNGRdwH5Z/0GjXk8u6T/67xhI/AAhwB+7Bwv3PwrsxxkABd+AO3G3DXWNXRtSUcQv3ZWWvpn6MwRejevgBQIA7cA8W7geFd+MbBgq4A3fgbhvuCrsyxk0ZB3Cf0bh6XZN/MYquDAHuwD1YuGevyc7tHQMF3IE7cLcOd31dGeOmjAO4j4gNXPLHwBX2lSHAHbgD9/8f4UbucwwUcAfuwN063PV1ZXqM355MHe71vKqvpv6cuKTxrAkB7sA95ZyUndspBgq4A3fgbh3u6roykqbMlDH17cJ9Vb52vezRpZV3ZV7xE4AAd+AeLNzfyM7tNQMF3IE7cLcPd21dGfOmTPpwXxMLeNinf9QGXZl+fgQQ4A7cQ4X7Mdm5fcdAAXfgDtztw11bV8a8KZM63Hfl3zKa8ekftUFXZpUfAQS4A/dQ4f4n2bnNM1DAHbgDd/twV9aVyU0aN2VSh/uCfOW64NW/anlXZpEfAQS4A/dQ4X5Ldm4vGCjgDtyBewfgrqsrk6Apkzrce7R2xTfkn40q8jOAAHfgHijcjwpfTuXTqcAduAP3DsBdV1cmQVMmbbjHE2L//ou9+3Fr4kjjAB6Tu8aSH4UEKIYkQEBjNVKCSZqIQZIzEBLbCwhCEEH5paIFRWu5//56Xp/nnrNC3pmdmX139/v+AewM+2M+O/nuzBtez/WpRXLLsXkqCnAH3L0K9wMsBwm4A+6Au31wd1RWRiYpYxruAtum7jC7rH8ht3wJzwAU4A64exTuXWzABLgD7oC7jXB3UlaG0L9/vY7YC/eb9N2XuP2Q+typIR8UCnAH3I0VMSqzhhsKcAfcAXcdcHdSVuaFRFLGNNzp09YPuF3WV8k7R934FQ8BFOAOuHsT7lFa28K4oQB3wB1w1wF3B2Vlpu7fkNCwWbgLRNz5BcXfktu+gocACnAH3L0Jd+JykHncUIA74A64a4G7c7IypKSMzXDfcfLSLAvkxi/gIYAC3AF3b8KduAFTFjcU4A64A+5a4O6crMyLPYmkjGG40yPuL/ld1/QFIa/jIYAC3AF3b8L9GqlpOawGCbgD7oC7Hrj7PjgkKyO1poxpuNMj7jf5Xdez1E1f9258wlMABbgD7p6Ee4PUtDLuJ8AdcAfcNcHdKVkZuaSMWbhTXi7+rKcML+xX5Na/xlMABbgD7p6Ee4fUtHXcT4A74A64a4K7U7IyMrsvmYY7PeL+E8ffUd/QN4/CUwAFuAPuXoR7JEVq2inuJ8AdcAfcNcHdIVkZyaSMWbjTI+63OV7YT8jNf4WnAApwB9y9CPc8rWlR3E+AO+AOuOuCuzOyMpJJGbNwv02W73OOF/Yn8krui1N4DKAAd8Ddg3AfoDWtD/cTD7invQX3NC4qb8B91hFZmRdySRmzcL+7R5XvLZZX9nXyi8cOHgMowB1w9yDcW7SmhWz9/6XXRvsfb43ETuc2E+1AoHh+vhoIzCfW594NV8eDIX/rrOBmuBeS90Ij0cE/up75/EcCnfXB426t1H9mr2s1wb0wOhYaqQ4mOoHPMa5ioL0+GB+vlZoDYLxr4e6IrIxsUsYo3H8lu/cuzyt7wdm/GKBQgDvgrrlKtKbds+s/d/g4WF0n5PAD72K1saTNq82rh3u+ORO7krvwz6XWozOtinvgXumvRTeLF3e3EQsdYiswV8J9xQFZGdmkjFG4f+vsiDvtSrjkJQmFAtwBd5fDfZvWtBPzLQv3144DgtdMaq67n7RvXlYt3LPPjgZzhE4XGyP9tmhWLdwLzeA7SndX54Ktgs/z5Ta4OyErI5uUMQp3+qosN3le2f/EFkwowB1wB9wvqSqtaX8z2qj0aCg6L33h1Ie3kvasc6YQ7oV70YzIG8txKexkuFf88ZRId6v+is/b5Ta4OyArM0tIyiz57Ib7S7J7HzLdVe8utQM/4OtUFOAOuHsQ7us0Cxts0VkonrF88ZQPxmyYhFYF96yY2v/c3Db+0fBvDargnhVT+39/ZkhVm56OvLsO7vyzMiuySRmTcI/8RGXvHtedR+mvHk99KBTgDrh7De6FHKll7ww1J3KyvXmuqFLVMdOJCjVw36h1JLvcCW44D+67wYBkd9tb9ky7CEGxzQAAIABJREFU56O96rGVPx8cptRgz39PYthaPTMLd/5ZGemkjEm43yKr9y3X4ZIe9nkP5qEAd8Ddc3A/pLXswEhjJo4S50qrPpl0HNxHYykrbyvdCWfB/Vl11UJ3M30DNtzOYb2rpw6f8yi5D9Kl4c4+KyOflDEJ92+c/2kn/evUJTAPBbgD7p6D+zStZTP6W5L1D+rQx5zf4Eoz1uGejFvt8GrMGN2tw/3k1Gp3c91dwN0dcOeelVmRj40bhPsSeRX390wj7r6r2DsVBbgD7oD7hXVAa1lLdzs2pPMSPcPQ7ZCxxIxVuE9Eiwp6nDtYcwbck8dKIlGTpj/LBdy1wJ17VoaQlLkbsX3G/ZULti8ix/QXIz4UCnAH3L0F90ib1jLNWeLlg5ROgZSnDc26W4N7pa+oqMOZmpF3FWtwDx+o6m49ZHb9fsBdC9yZZ2UsJGVMwp28JMveLNvxkv516lUfCgW4A+7egvsyrWHzWhsxEV3VbZD2mJGpGUtwH+so7PB8kzncIyWVP7FcOQTcnQ933lkZUlLGdrjT9029w3e8XCJ34gmchwLcAXePwT1Ea1hUYxN2Y6smFHJtmTfcB1RzLRZmcPVcCPdlxR80FCcNLjADuOuBO++sjIWkjEG4v3b6vqn/qefkTjyC81CAO+DuMbgTjbCvrQGFWsoQQ3JB/XkKebh/VB/xL/fzhbs/o7y78+Ym3QF3PXBnnZWhvFVcuMiJObg/Ipv3Dd/xkv728cCHQgHugLun4F4hqlnXoooRf9kgRBra14aUhXthXMtnuX2aX1Vk4V6JankzOzK1IRPgrgnunLMyVpIyBuH+gLyozArf8ZKe98GyMijAHXD3GNxLxI//NInozDBRUkM84T7R0NThOb3Ly0jCPZnQ1N1TQ8vLAO6a4M45K/PBQlLGINzpi8rcYjxgkpeVuQvnoQB3wN1bcCcGjat6pttDKeMWieldbUUO7q26tv6Wta7jKQf3jxlt3W2PGrltAHdNcGeclZld3JNPyhiEO5m8P0wxHjCvk18/fgP0UIA74O4luK8R1+MrafmfxO3ASEPrHLQU3P06319yJY3dlYL7tMZvkYupeybuG8BdF9z5ZmUsJWXMwZ0eMnnLecD8O7kbOz4UCnAH3D0E9yDxTOjYm7IZsEcj8zpXl5GAe6RW1Nvhmr6FMCXgnh7R29vVacDdwXDnm5X5sGchKWMO7q5YVMbnu0nuxjeAHgpwB9w9BPcC0c4N9YeObK3axZG6xjiFONwjfdo73KdN7uJwT8e0d/cIcHcu3ClrLtqSlbG0poxBuNMXUlzgPGCukLvxxodCAe6Au3fgvk+ds1V+5GzURo9olLs43EcMdHhcl9yF4R45MNDdIODuXLhzzcpYS8qYg/sCWbzPOQ+YO+RufAD0UIA74O4duKepi3soD5dUBm0FSV3bspDCcN820uGuJrmLwj3SNdLdbcDdsXCfvc8zK2NpTRmDcP9AFu9rzgPm79Re7F33oVCAOyO4HwDuWmuIeB42VR94bd1mkZQHmMD9yFCHNU1CC8I9MmmouzOAu1PhzjQrQ0nKLPgYwJ2+HMtV1iPmfWo3sB4kCnD/Sz2WPLaKDWWGAXedlS8Tz8OWarcnbCfJZoUF3EvGOhziAPcZU70t+gF3p8KdZ1bGYlLGHNzpq0FGWI+YP5Kn3Kd8KBTgrmaq7pqCYzfccyo4wp0627uqeAFFBm4/Pz/Vs6WUGNyfmVvHXg9lxeD+0dz3yLl+wN2hcOeZlbGYlDEG99kbVPDe4T1i3nbJLwcolB1wl916p6zg2PW0a04FQ7ifUdV4rBg9myxQoic8IgT3gbLB/uaadsN9OWOwu5kTwN2ZcGeZlbGalDEG96dk7/7Ce8Skf2T7ENJDAe5fVFvuB7U1JQPHIeCurdLk70PVTl7m53igpKgDskJwz5tN+mc0fJErAvfwvNHuBgY03jyAu0a4c8zKWE3KGIP7t2TvPuA9Yj7CQu4owF2+5Gau1KRZj1xzKvjBPUQ9CZtKs5DpYyYoOe/oiLmLwH3ccIcTFRsuov/BvWq4u3MFwN2RcOeYlbGalDEGd7p3/8F7xKQv5H7Th0IB7l/UiNShG2o+IXRNVoYd3JfJ8ep9pcftO2dTMXvh3m+8w3Hln6MJwN1vvLtdwN2RcGeYlflkNSljDO70hMl73iPmQ3JHliA9FOD+l6B5WOLITUUjx5hbTgU3uOfJQfOy0olLa3zLzQ9Wx4OhUmnsuz9qrDRUGzk43pT+wvOjnXCvdOjd3ox3j2b2S6WhmaPucSInnQ5SvTyQANzX6uRmptar45+7uz8T7A4n5L9oLQHujoQ7v6wMpUU7LOBO/6bzCe8R86pbwvoolB1wlxmC0lcUjRwNt0y5M4N7hL5xaUjlNG1SFtmpufGh1ln261fbbnOr2pH4o/NZG+FOPAPtbmn5i2ZmR6ejdbkXn5ZdcI+cEuM84/6JL+757EkoLvdZa0rbPluAu06488vKEJIy30+xgPv1Pap3n/IeMenL4/wI6aEAdxXDn7r1mrdcciqYwZ1+gpROuBekrsh6dTrZ+wVuIjQsPBVdsw/upKDMZu2iPWuzra4MZssbNsH9Mek1fWbiou42YzKvfPOaVusH3LXCnV1WxnpSxhjcvydPVH9iPmSSF6THDkwowF3FR23NnLKhIzcKuKuve0XyCZhWeVyJjTMDfSfkX13C04KfVmQ2VP9nqXBP915RJhc7ufTHjvy+xDItVbXdpcK90O49P9C9fIKgMiPxo8o44O5EuHPLyvxsOSljDO6LVO7e5z5kvnXJTlIolD1wPx8WixQs1xWOHfMDrjgVrOB+SJ+9vKIyTSL+5cPwd4LHb4pt/DVpF9yHerJ9crfnwdKljiGLWYV7rSfbR3q/Q2WnA8Kp/paeOwhw1wp3blkZSlImwgLuv5En3O9wHzJfkrvyO6iHAty/UtdE5txbAaWDR/sMcFdbSYET1K/wuAXRGeJjmaVIW5sCR0gp3hSWCvd8uVfXJ2j/0m3RH7fKYZXdJcJ9o1esJ7pLOlxlsijY3YSeNSE1w30rSql475MdtVZySwFbhzuzrIyCpIwpuN8ia/cV9yHzBbkrt0A9FOD+tYmrxgT1mJHpnOJpn3K/C04FI7iLuF3ppqnbYuf9nWRKKlsTuAJVT7kT4R7skQ/ykw84KrqLk9JFMIlw77FifYe+vE9L9OWvT8s9FLbpuP9XA70nXGx51imAO6+sjIKkjCm4v3bPWixL2DoVBbhb/UL1iJZZONGxL+ZBxfGngg/cRdye2VV44GWhN7r6vnxy8bBNv67Dav+7NLjnLw+TxUWi91nRSXeV78E0uG9cHs2KidzeecFJ99UTHTcR4K4X7lP3OU203raelDEF95/J2mW+carP94bclRVQDwW4XzDpXj7qGSvI/pu9c3GL4siiODsYWdEB4wAaYHgMMaOfiLDOKANBBT9WHuoShPAILIo8XDUqvnby36+b7G6yu5E51X3vreruc/4Abt3uquHXVefe6u+q1jVUGhpM+KsIBtwXXAoQRCtTna5M7YpVNnoGd7oLty3CwH3k2Mn+yPWVunnTFgXdIxi4Hxx7uuDaTb/drZ3OqkZHWYK7LrgH5ZWRcMpYgfslmHZfhP4vE78D9jFRjyK4f75ebrI11/5Z5ba6Zup6Wt/rbLfQ2e0vNf7ThwLuOZeueh2ST2LB5W1fiBm5DPepX5R92xC493UfV4097xz0rdtCF/xWgcC9ctyHxap78XnvolO6GtcwEdyVwf1UQF4ZCaeMFbjjF6deagpcJ+FU7hL1KIJ75lXqGjkj/SrCAPe+A5cTkRlJo0zewUNVjM9a+Q00WLs9uLcfx1pRpl7NqQ3JjNzshsD9uA46hbEoi6nDJd0lhfpUgrsyuIfklUGcMg3/iBG44xWdR6HTy/dwKveIehTBnfqEjgPC7UaCAPczbm3m+iVjzzmc7LwXiJffA6MV7MH9GCPPULT2m31tLi9WDiohcP98+Wy1JVohQ9lpIk8rrCSCuy64B+SVEXHKWIE73kPxVOj08lc4lXdEPYrgTv287T4ieq1DCOC+72YxGBANjqPWck4kYB/oqZctT0XAfeXzxx4HkbOdcvksFeuwioB77+e5/WnUuJXXLkv5BME9ceAejldGxCljBe4X09OKBe9seUjUowju1C+akjxi9w/u5a1lp/TfSF69dAy9/Z86hUKOgY0SRStwEXA/rbE3XHYh9zZLcP9s68tqjDddcbloS/yaLYK7OriHcweTiFPGCtyvwrT7Q+j08iOcyjWiHkVwp/5N0WNyr8I7uL9ynAzjsl6hATjwhljMt1j7EVG6QcD9jYqnw8U+Uu21A/d8twK3fyL3Nw7eK/E73Aju2uCOkK6JVwZxyrwQSUcC3G+m59aij+m5BJaiCO526pLrOOIZ3Nf2HPt0lnpE45fhhkOzguccOQzrJL0yALjvVHW82LVuh9MkO3DvVTpZWVvyuOVOcFcH91C8MjJOGSNwz38D0+6PodMLnstNoh5FcKf+o5Z0gHtls+SY+PBZ2RFMwB8Mog37MftITjBiY3Bv3dM6apjH3/Ky0GNuDO4tU1prax/vbFpcE15RBHd1cA+lr8wVmR1fG3D/AHP7T38KHl8uo6lcJupRBHfqV76RshT4BPfK6Lhz3jnhMRTQyLL3Ia1AKDslGDEXea51xK8pmMCjCRmSTkdOtxD/NOspHm2L4J40cA/EKwM5ZfIi2QiA+x9hbt8NH19w289Hsh5FcKfkQdobuNc2nbG9XpW+s6aCbo52l2UDQ2DZLNg/KDK4L0q0PmnF96BX7J7v72lVon7kHBxupkZwTxq4h+GVeSBU52kD7ngLxW/Dx5frcDJ/IetRBHfqV20nG9zftpbcc652Sk/EOTR0u3DgMtQBs1cuYFRwL4mMoYLb3C94BffmLyWin8G/SWVPcgjuBuAehlfmoVBtpA24/w1m3evh40uKOuRQFMHdUucSDO59758vR0i5mBOfiOhO8KR45E4k7Gn/4P5UJvwCXINcEtmDjgruQh9ouDdoXPYoh+CuD+5BeGWEespYgfsDmHUT0InlZXp60lMUwd1SJaF/+PbgPtiyFC3jOfmJuA7GnhCPXEY2ZQUvT40I7s+l3DpDcEiRr5WI4C7W8hNvXi/7NUpwNwD3ELwykFMGWbw24H6Upt7nF3dTcwssRRHcTbWfSHDfGZ2NmO9Sj/w8rIH7wN198rEPkJx9g/u42N2eY/DtuOsS3wrRwL1b7IKEE83m1SoEdytw/zqAO5iknDI24J6/D4P7s/Dx5RBO5mQTRRHcKXEPgyG4971qmY2c7uSKwjw8a/us/0sriFtILulo4P7ex5fDgi9wH96XSxcfQK/krCK4G4B70xPvXpmPl3dlnDJGO+53YdY9DB9fHsLJPCbrUQR3SryIzwrc8/MjU80xsj1X0ZiHB1jwYk0jeIdpTWwkcN8TTDc/iUZt8wXukr0Zy3A5ruglTAR3C3A/5d3ycVKsMtIG3F/ArPsufHx5Bydzn6xHEdwpeTuuPrjnd94fdDXHyrXYqTMPwS7uBZXgI0DkA6/gPnNCMt9teONb4FaiKOC+NCaZbjv8lCXDEtwtwN1/X5mHu1JVnjbgfg9m3S/Cx5cv4GTukvUogjv12z3o8MH9RE//5t5kKXaqf+hVmofgrmhOJfgOYLCXu4IpCriPyCYMF2wKtEiMAu79otnmO9C4kpcTENwtwN27V+YDcHkn5pQxAvfbMOveCx9f8K+QF00URXCnkgDutcH9iZHWwmpJJtFqa0VpGpaHsf3+MZ3wgHdk3Se4zwqX5A6iLSFvxS9PjQDuX+Vl092HyzcI7kkDd99eGTmnjBG4P0kT696Bk7lD1qMI7lRw4F6u1WprOzvzr+Ymbpye3hoovFksyubZvaA2DQexETxXCj8KuEbEuny7g3t1WzpheMv9lQdwH56XThfecn9LcE8YuPvuKyPWU8YK3K+kCdxxw/5tsh5FcKe8gbsvDW9V9KYh2FRmVCn8PBBbjCbdwX1KPOEeNHR8uHQH9yFf06tenya4JwzcPd/B9EGsp4wVuB+myRaOt8h5QtajCO5U1sD9q3nNaXjDav/395WfaRz7rDdwryo8+tdomWhsk44zuBfl243m0eanqwT3pIG7X6+MoFPGCNyfwax7qSl44eB+haxHEdypbIF7d7vuNJyGRlEqa8V/blgf6gzubQoJL6DBY9ujnMF9SCHdfjS43DcSwd0G3P32lRF0yhiB+7U0gfslOJmHZD2K4E5lCdwXn5aVp2ErNI4utfibjYOLtRZ3BfflQY0zhnUw+oA1uBc17vcqj4PR5bp+EtxtwN2rV0awp4wVuL9MU+vzVF0DS1EEd4K7lG51ltWnYRs0kha1+EBnc7F975yf6fU/GgWjN8d9+a7groOzW+jRklhDG4K7Ebj79MpIOmWMwP0qwZ2iCO5UqsH91o2ywTR8Do0lpxa/0rgBT4dULFdw1ykuWBsGw8f1yjiC+/CKSrqD5k+b4G4E7j69MoBT5iX8x0ID98dpAveLZD2K4E5lA9xnH5VNpiFWK9mrN4DG1Ytijdwdwf21UsZoR8i4FiFHcG9TShftCDlKcE8YuHv0yog6ZYzA/XyawP0xwZ0iuFME99+6jfdeWU3DN5DZW7EfZWOMnfEE7u91Es6jLRLjNlpxBPd9pRf8CIwvBrIEdytw/96bV0bUKWME7tdh1j0KH1+O4GSuNVEUwZ1KO7h3j56xm4YdzYAmFQcAeKClzh7cwP1Wn1LG5WZwBDuW4K72jmvgbWTDNYJ7wsD965u+vDKiTpngwP1kU/A6CSfzsomiCO5UqsG91DaXz9Q6ABrJr3kB91G1lDfAEXRagvsjtXQL4AikGp8S3K3A3ZtXBnHK3BVNQwDcb8Ks+4DgTlEEd4J7MsC9ODVRydo6APqav/UB7kW9Y485cAgFQ3Bv1pt46GPfILgnDdx9eWVknTIEd3c9gJO52kRRBHcqpeBenOofy+A6WLErjXUC9za9lFGvTMxrr5zAXZFlUa/MktBRE8HdCtzzvrwysk4ZI3D/Fmbd78L/2f6O4E4R3KmMg/vixkQtm+ug3PjhbPsA97OKOaNemXj1ok7g3qOYLtpGR+i+K4K72Y67J68M5JTJi2YhAO5/hln3VJrA/TxZjyK4U6kD9+GO0d58dhdC0YyhXcB9vE8xZbSvzKYZuK9rTkC0r8wNgnvSwN2PV+ak8D4/wV1jHv1L18l6FMGdShm4z85Vsr0Qlho+ogkP4H5BM+UKaB55bgbum5rprlWxQewR3JMG7n68MsJOmeDAPQFWGYI7RXCnMgzuC+VsL4T1ho+o3wO496rmjN1XW5+Jte3vAO7LK6rpTmKjuEVwTxq4e/HK/F22pww97hEEW2V2aZWhCO5U+qwypULnToYXQmOqy9mD+6puzk8tPh8cwF0ZIqfBYch8PhDcDcHdh1cGufznB5c/yK4yeuDO4lSK4E6ltDh1dWu7L6ML4XXDhyPVYtwB3A90c94BhzFiBO5PddPtAYchc7RCcDcEdx9emUPp5uGhgXsCLmDC20GyjztFcKfSCe6ftLQ1n8mF0Ph+HqGiRRdw134V69gwpmzAvbqmm20f2P9yiOCeNHD34JURd8oEd3PqUZrA/VoTRRHcqZSC+z/33acz6Jlp3CywUygSDu7d2kkPgB9zNuDe4f8d/1LvQXBPHLjbe2WOxPf4QwP3x+H/auM3p14k61EEdyrF4F6vL3e9z1pnyLYAwb1FO+l+cCBxtsJxcD+tne4INo5hkTptgrsluNt7ZcSdMkbgfh5m3ftpAvdnZD2K4E6lGtw/af1GttrM7AUI7j3aSa+BAzlrAu7q5zy9ls+d4G4J7uZeGXmnjBG4X4VZ91L4v9pHaC67BHeK4E6lHtzr9fGWExlaCBvhgfu4/qkHaHKftgD3WfVs8+PYSETeNMHdFNytvTLyThkrcN/NIrj/dEjWowjuVPrBvV4vXTiTmYUwFB64b4TwufKzChbgvqWfbgEbyQDBPXHgbu2VOZT/TrAB95cw694N/1f7MZzMQ7IeRXCnsgDu9frMZlYuVG0ND9z79bO+oV+dCoP7gn66m9hIJgnuiQP3ptume8gKThkjcL8Is+6LNIH7FbIeRXCnsgHu9fpiLhsL4UJw4L5scNyBur5jVKei4F4yqKmYM6xOJbjbgrutV0bBKWME7s9g1r0T/q/2fTiZd2Q9iuBOZQXc6/VCJqzuLcGBe4dB1uUiNpY5fXAvGKRbq2Jj6RWIRXC3BXfEK/ONmFdGwSljBO4PswnuT8h6FMGdyg6418fnMrAQDoID92mLtDuwscS4OxUF906LdMFiXAmTEsHdFtzzll4ZDaeMEbi/g1n3XprAPQHJUBTBneAup+qF9LeGnA4O3Lct0m7FxhLjMlEU3Actbg44h43lgOCeOHA39cpoOGWMwP12mjapL+GG/axdTEIR3Klsg3u9PjuY9oUwGhq4F03KgsHq1Bh4B4J7s8k/VrA6tY3gnjxwt+wro+GUMQL3e2mq57z7D/buxStqc4sCeArX4gUHKCJShOEp4wMoqIwM+IKC4mAVUUTxQSugVAUKta3897fedX2s1bUue5KcnZPMPn8Aw8l8yfpNsnO+LI3IUakEd8E91urLelymwRvcWyltb4JpKXO4X6W0+x77Z5YF9/TBnThXBknKVP5JHLi/zdLoc7yZFGwDq1IJ7oJ7vGmZoWK2T4QRb3Cvo7RdAr//8BNuQLg3UNrdB5925AX39MGdl5UxScqQ4I6nS077v2rfgJvZk/VUgrsqMbi3dgK1WS6XmyeLDdPtG21zC+Ox0H010yfCuje4kx5xTGD/zaY13DspUZk8OEVnX3BPH9x5WRmTpAwJ7vj7nO/8X7VvwdvA3pf1VIK7KjG4hxibV9gvF5+9WYjaZ38+wyeCN7iPlzh972LfffjnLRjc+0hraw5rt1lwTx/caVkZm6QMCe57MNxP+r9q42/aPpL1VIK7Kk1w/1+VyqvHayPJPcNv5p9wBvdvSH2DY2XCz1nB4N5KarcRa3ck+icJ7nS4s7IywH6dYSbGc+B+H7bu5SzBfVbWUwnuqhTC/WPlOldbh0J3+iq7J0LRGdw3SH2vfzD+dzC4t5Panf7A+ncEdzrcWVmZ1zb5cA7cZ2HrDvq/T/ML3MxTWU8luKtSCvf/3nmvaVsK2WpDZk8Eb3AfIfVdtp5xg8G9m9TuJG3GjeBOhzspK2OUlCHB/Sls3YO/3F+1z8O9HA1UKsFdlV64/11rdROhWh2vyeqJ8MAZ3HdIfYOrbsEY7vukdm9j7U4J7imEe+5XSlYGScqEcSIH7ts43M+5v2rfzdCPEJVKcBfcD6nCg8dheu3azOiJ4AzuQ5dYjWNvPSyF3jsXgnst66l8AcuJ1QruKYQ7lJUZjMxRo6QMCe45eBDLwQv3V+3XcOxnQNZTCe6qtMM9CPI1Yb78xZVsngg1vuA+R2v8N+x7D31LHIL7Lq3dDqzd6DN9BHc+3ClZme1Bo8/gwD24DMPd/ySWLbSVK6KeSnBXZQDuf9N9PURgZjebo2Wcwb2F1jg4Z6VsCvd2WrvfY+3eFtzTCHdGVsYqKcOC+zAM95/cX7VPo60Mi3oqwV2VCbgHQam+8s2ZRjN5InT7gjtvt6t27FsP/XIDBHfetrwbWLvRt78S3BOAO2OujFVShgV3GLsHd9xftX/I0C6wKpXgLriDtVlx1L2rV3A3h3szrXFwZ9NV079/itZuHdZu9F8SgnsCcCdkZcySMiy44y90/uj+qv0ObeWuqKcS3FWZgXtw6UnFYZksngiTvuC+5qjxaMpE4D4+Rmv3BNbutOCeRrgT5sqYJWVYcD8Cw/26+6v2cHZaUakEd8G9Ekn2VdjwpOBuDPc+3osEp7DvPPRkcwTuHbzvuRlrt0dwTyPcCVkZs6QMC+43YLifd3/Vvoi2ckPUUwnuqizBPbh9rbKGFy5l70TwBfcpXuMr2Hce+j9C4P6G1y44yD36fyS4JwF3KCsTJQJil5Rhwf3OQXaC4VfQVs4EKpXgrsoS3IOVqco6fiW428KdN1QmyGOTzRct4V7Pa7eErfDo4zgF90Tgbp2VsUvKsOB+H4b7SfdX7UF0KP23gUoluKsyBfdgrLWy91MfCu6mcGf+MsIetyzlDeG+TmwXy4VF34FJcE8E7tZZmS27G9UkuL+A4X7T+0X7QoZG0qtUVQr3rt1X3eVOpMo1da1DgvvXcv++opbrM3ci+IJ7DbFz8DfbvwzhPu/uijeej/o5gnsicDfOymwD93jDTlEkwf0erN2DP51ftLcztAmsSlWVcH98opLdDnPByuii4P6V3CtKy3Rlaf/UY5vFZ28WXMH9FLH9FuwrDzsEFIH7PrHdNqzdY4J7OuFum5UxTMqw4J47C3P3nPMr9zm4k6OBSiW4u6vaYuW3yAqrfYL7l4/vqKTnZylb56WHt3fK75uaisXiyOjHqvtY/S1tUx0zYMtMuB8jHpp6rP1NO7gP5YntNtr+ThHcE4a7bVZm66XdK50kuAcnYe7+6vyqjqd+Loh6KsHdXU2FC133zgnun2t/poKe+46lYHEXepuL0/VXWztq4/iaiXAnToMMgldY++/t4H6NuSj6sXZ3BPd0wt00K4PMlAm93ygL7lswd/ecX+Bn0UauSHoqwd3f66Fh5xOOtQnun+v9eFYGyxQ6u1+1tC7Gu8iIcH/MPFjg1qkP7P58K7NdcOvUZsE9pXC3zMoASZmX98L+6mbB/XcY7m+d6+XfaCPvJD2V4O6troa/QVmYEtw/17MKml7Mu1zPue8m6453LFmsMiLc25iHrIi1P2oH9xZmu6O2v1ME96Thnrtol5UBblZvhT4oLLjjOzAdca6XPbSRu5KeSnD3lpOJsh/QyqLR/7U/AAAgAElEQVTgHupXzHt3a3ll8tnujN0yI8L9CfOwNWHt19nBnfrCxAms3QbBPaVwN8zKQDNlQt9FYsEd34FpK/BdZ9BGrkt6KsHdV81EGyq+syS4f6reCt7WPe5pGed6ixvXjNcZEe7TzGNXxtrvt4M7c4x70E2KggnuScHdLitzB0nKhP6/WXCHAybud2CCnx38GKhUgrurGon4Jl+P4F6Jsj7VkptNmB4+aJkgrDMi3IvMw9eJtb9ht6SamO3OY+22C+5phbtdVgaYKRPhJjUL7vgQxcEB33r5BW1EG6eqBHdftViI6r4uwf1T5SsIy0x7WL+F+XrWEibCnRpD2gdfJLGD+yaz3R2s3R7BPa1wN8vKbB/u9vAzZXhwH8AHuTsff343K3MtVapqg/tq5GOwIbh/uf2KB4e+SXzxlmoa+3gLjQh3qmSPYe2HfWEWgHsvs91e0kktuCcGd6usjG1Shgb3YBiG+yPfejmdlZ2kVKpqg/ta5GMwL7h/rlwFwaHeRFfusfW2IepCI8KdemQvYe2HndkIwJ26J8Ca7QMGwT15uFtlZbZsX+ekwf01DPc7getCt5Ia1P5LKsHdVS1HPwaFLsH9izfwuSyryS3bQnNjF3ulEeFeYh7LPNb+nBnch5jbTQUrtg8YBPfk4W6Ulblnm5Thwf0WDHfn01hugm1cFvRUgrurimNyXqvg/qWm4b6nklq0mz0zCaw0Hty5kg2wdFTYTaEOh/sEtduS7QMGwd0B3G2yMsZJGR7c4XmQL33Pg/wL7eOHQKUS3D3VaAwH4Yng/qXGatG+xxOZKzN2YjmZlcaDO1eyAfbsYsEM7svc9UP6VSq4Jwd3m6yMcVKGB/dH8B33i67x8lT7L6kE93RWTQwHoU5w/6pW4cbX+eu1t34mqZXGg/sc95hiR3TRDO671G4Ltskgwd0B3E2yMtZJGR7cj+LzIP/wjBd4IP0tQU8luLuqSSpVqwHu+C13+h5M5bbx5FYaD+5cyQYTUPthHwMcDvdGarc5bAlFfgwguCcId4uszJ2XtkkZHtxzN2G5v/CMl58z8o6tSlV1cI9j85ZRwf3rgh9AzOSp4mpuTXSl8eDOlWywgH3ZZnCv57aLJYMeR/0YwT1BuFtkZayTMjy442MUD/Y84+VtRqZaqlSCu+AetfAdqYjzxvM1ywmvNB7ce7jXgA6o/T4zuL/itoslgzoE9xTD3SArY56UIcL9+kEmQibwxqka464S3AX3jMM9aEE7p22emut+nPhK48GdfAsa+0XUZQZ38ha8WDJoIerHCO5Jwj3+rIz1TBlmVAbOmPgeK7MFdnF2QNBTCe6Ce8bh/hztvJW0SstTDlYaD+7PuNeAOaj9ITO4N3iE+6Lgnma4x5+VMU/KEO+4z8J33K/kAr+F7r80LOepBHfBPetwz6G3t4fGGGu0s83FSuPBnZwdwb7tJTO4k4cT1QruVQD3WzFnZZCkzM9pgfuFQVjuRwO3NfAS7EHTIFWCu+CeebjjB2Te/n8pPXGy0nhwJ29Jey3hqEyR226fojLZh3vsWRn7pAwR7sEwat6D+37tAo9xvyHnqQR3wT3zcH+ITl20vzfcNPGh6uA+wr0GLCb8cmoNt90hqN1rgnuq4R53VsY+KcOE++/wHfe3fu1yPxOjcVQqwV1wj6fQwYvWIfe1N35WGg/uJ7jXAOynkd04yCZqtzns29ZUmXTDPYg3K0NIyjDhfgaGu+OYCdyE62H0KpXgLrjHUyNg610FU2Ot932oRrg/4F4DsPmItWZwb6Z2C+6cqjnuKYd7vFkZJCmznR64P4LhftGvXdChloN/ynkqwV1wzz7cV9CszHPDf6J01dVK48G9m3sNwMb22+2cWqZ2O4Z929o5NeVwjzcrQ0jKMOG+nYW3U9FpkCfFPJXgLrhXAdwDdP6i4QzuzYUPVQr399xrwJLp25qHw32T2m0J+7anBPd0wz3WrAwjKcOEezAMw/0nt3a5mP60j0oluAvu8dU02Hub1T+Qnx76UK1wb6ZeAvK22ZHD4b5DbRc8zSK/vSG4Jwz32RizMkBSZjBqUoYK9wzsnfoH+tTghpinEtwF92qAeyfY+4zRBh1jBm+ldi3O7bY1Nm70t9f9s35zBHfu25qXsKM3l5E77mukX6SCe8JwjzMrw0jKUOG+B8P9tFe6wLtIfRuoVIK74F4FcM+hOZVeG13NxbdC+paP949O7nz3/zeLaq/ajLvxLWhvGffbWLtXBfeUwz3GrAwlKUOF+zkY7mcvOKXLHbSDp2KeSnAX3KsB7kE/2LzJBJRTi7Gsja7lxummXuyZQL0juHMHm/fa3oI+HO7z1HY3SSe14J4w3HPxZWUoSRkq3OGA+MHBrFO6HAH//5u5QKUS3AX3aoB7M9h8v8FnT3ZFXhZDc/01+/kKPrPHEdy54yB3bNedt3GQ4MJ+IrinHO4xZmVOH/53XlMkGh/cz8NwP+OULu/SnvVRqQR3wT3eKoAj1Ofi/+j18Yho3119Plbphz5xBPci9RIwjx3VDTO4c4fo1GDttgvuaYd7bFkZTlKGCvccHDTxOpRl4Gza365VqQR3wT3mOg4qeSzuD47m9omNyVKYT91wBHfuzqnd2IENy8zD4T5JbRfcWyzynFPBPXG4x5WV4SRluHfcX8BwvzngUi5wA3uKyqgEd8G9SuD+H/bOhSmKJIvCtaCDyjT2CqvoQCuI8rCHQW1eIggCysPXgIiMKCMvEVTUwbH497sTG7ExsSH2ydfN213n/IC6ebOa4quskyfRw1N9H8Hkwu1PVj8ULMueUQTu9aKPgA1sbreDgbuspR8MOt0guFc8uPvyysg4ZWTBveMeTO5vVZILnIvzipRHEdwJ7hkBd3DPYtrnt+yANbe3Np4u2NdtUATuE6KPAJBke4OB+4Zou6ewdp3fJgju0cHdk1cGccr4WNYVBffkDQzueyrJBU2i79b5wYCiCO4Ed/9CAyFHvVZdtOX2kY1hp8KjisC9WfQR0Bw2Pqhe+tWvjDaxdvME98oHdz9emS6ADj04ZYTBvQsGd527O9GzX3cSiiK4E9wzAu7Ads3/2lN81tyyy5Ppb3Q27DQqAvdLoo+AlbAkWx7c60TbBfduOB/nSnCPD+5+vDJX1kWcMsLg/gIG9/X3iT69XwdHP07IowjuBPfMgDu4aTFd81dybcjKI7Pi4RSoXUXg3iD6CBgNS7L1GgD2b2rC2v1McK98cPfilTlxVSRTRhrcDZLcHyoEl18refAURXAnuIfRj6BrxV8oyHWb81LbV5d91N5XBO67oo+Aj2Hfz8pvct4UbfcC1q5zWBLBXQG4+/DKdK3LOGWkwf0ODO53FILLODr4EwlFEdwJ7lkB92QEG9Cqr3q5RvO5L15a9lP8vBi4l/+S0ST6CABPqS0FA/dRyW5zmBmr3f29l+AeH9x9eGWEMmXEwR1esz4cVBioeAUc+00yHkVwJ7hnCNzBXYveMLPXfOr323wVb1IE7kuST4DOhbAk26uLHcG/sgsE92oAdw9eGcQp86kSwf1LN0zuU+q45QY6+GtkPIrgTnDPELgfgBbzgp9ybcYbU594PLpnWgzcb5WtNCT5BFjD5vq57fU3dL2ntEi9jRLcNYC7u1dGKlNGHNyTHRjcx9Vxy1t06F1kPIrgTnDPELijJvcWL9UKH03nfdPnoa1PFIH7QkHwCbCFTbY14G3oek85jbXrvj+Y4K4B3N29MmJOGXFwn4TB/Zw6r8x9dOgvyHgUwZ3gniFwT5awEQ14KTZhOOtDea+9toqBe758b8cEnwA14FuS7fUXy166X/I9pR5r133jBsFdA7g7e2XknDLi4P4KBnd9p4+iKe63FdrzKYrgTnAPp8vYiFZ81GoxNMqcX/baaikVA/e58qVmBZ8A29h8b9te/6Ku9xTwN93rXIjgrgLcXb0yiFPma2WCew4PhNR2eGoPOvBHRDyK4E5wzxS4g0nu0z5qnTeb81XPq7TLcuAOeFPmBJ8ADYE/qxzoek/Zx9o9ILhXB7i7emXknDLi4I77TQ7fKcOWB+jAHxDxKII7wT1T4P4UG9GCB6/5gdGMt9b4brVFDtyBUrcEnwBg6Kf1u8SMrveUeal9GwR3FeDu6JURdMrIg/sU7pVRZhV/A4+bVhmK4E5wzxS4J2PYkF46Fyo8N5nw2i3vnR7IgXubhFEDX5Fsx+bc+iTRl+WvfVGu3RK44XqY4F4l4D7ltKAs6JSRB3cDr8y4KmqBwyAHye0UwV2jfPzT3ya4f1tnsCHVOxfaMJnvJwGsFX1y4A58x1iVu8XL2JwXO20LAB8Y+uTaBdMga90rEdx1gLubV0bQKSMP7gZemZsdmqjlJDrsP0h4FMFdo3xEmjQT3L8t8Egk5+y84SGD6Z7/HKDTS3Lgfl0ijBDWDDbp9gcSATnxp+TaBTN0PhLcqwXcnbwyiFPG20DlV9wNvDLPNFHLa3TUPyQURXBXqDoPk9BIcP+2PmBDGnOtYxIFOdQWotPzcuAOJE82yd1i0Ca2a/9SVv7io3LtrmLtbrpXIrgrAXcXr4ykUybCiruBV+a1Imi5cRsc9Pr7hKII7grlg2MvENy/rU4wo9Exz69ksOBeG4TbkT2L3sC9fLfzcrcYdEPZQ2ZuoezFR+TaPYu1O0Fwrxpwd/HKAE4Zf4GD8uCe3IHB/d4XPdDyEB30FQIeRXBXqbvuuYBrKcH9CIGRI3m3Kv8yyJPZCtLncL8guJffiFuUO5JoGpt3h+2yteU/osj9oMFXRA87ZwjuSsDdwSsj6pSJAe5vca/Mp0SNrqFjniTgUQR3nZpxnoNegvtRAo+r2XarMgJPdX+gABLE6e0N3JvK13oqdYM7i8H/yoDAoJJUu+DfmIc0SIK7GnC398qIOmVigHsH7pXZUcMsX9BMGW0hlhRFcPe2kS83TXA/SuBevl2nIi34VIeKW5mQBPfR8rW2pG4wuIshdTinFtg+0CbVbj50hg7BXR+423tlRJ0yMcA92avAKPcf4Cgc8h1FcFeqomvISD4luB+lNmxMtU5xuafgmW4KZSE5KwnuQL+LUjcY/NrkEo8IHM2al2oXDH5d8lCK4K4F3K29MrJOmSjgfmIdBvfjWpgFPn3pPvmOIrhX6fbUzn8Q3I9erLqLDcrl5Sk3j0703acx2/QG7sDyvliQO7g31QXvgPeUPql2wb2pPuI4Ce5qwN3WKyPrlIkC7jgFH3YriWh5DDtlXpHvKIK7VvXXOM1AXUpwdyYdF+v5T/BEBztQFPqw4A3cBxTdZDBQyYUxfyt/+U2hbgvge6iHUBmCux5wt/XK/CLqlIkD7g9xr0yXDmSZRMd7jsemUgR3vWp3OUkzv0Bw/45Ab0Fz+BJpOhIsa6VeFNyBnbBjQrcX3azpcswZsE/io1C7s2C7eYJ7NYG7pVemR9YpEwfcOwYr7PTU3Dl0vHsEd4rgrlhP7J0aW+0pwf177zWg+dyhRBM6z3PButyXBPccsL7fL5SzcksgZeUl8Oot9C92A2zXhyWL4K4H3O28MohTxme6eRRwT8bxJfdfNRDLSXi4zJShCO6qVWvLdAceuL2qwR0cVKv9YngJPOQp4HGiw62S4J5cl8kjRATGfba6pKysCZEyoFGsXS+58gR3PeBu55URdspEAnfku4Km84x20O20P5PuKIK7cp97vQ05lpr7U4L79zUWekl2Dp3mmWA9YuvO3sAdOQXooszdfQ6alFxqFICo+DmRbgu1gn9iBHc94G7llZF2ykQC99wOvuR+Mj6wvIAHy9OXKIK7eo3MmH5uL9SM+Sld1eDekAam2npwli+Es1OsCIM7cOBUs8jNfQrO/eXQ736/ibSLHhjgY28qwV0TuNt4ZaSdMpHAHY9F/88UxXeNv0bHun4ioSiCu3ot9c3iz5XCT3XzvgpXNbiDXL1iXeCMJE19U521wuBe/mWof0Tk5oLnazntTYV2EOxq+i37iZUnuCsCd2hH4/95ZaSdMrHA3eD01MOHsXkFN/a8IdxRBPcK8bo3NaxcLq+V0ZF2j1WrGty3sFFNWxcAz63tD2eDBndo+gN3IEeneF3i5oKfU9JZpyqAkf5uQaLdffCn9iPBvcrAHdqCOWmMiH45NhK4I58W/ucbjx0s8xo+MErFTlqKIrhrVVWDe6kIjWrBFjRz4CtUwCXoXWlwRxa6JVzfnWCsudvBuNDprLMC7Q5jP2Uv56YS3HWBu7lXRtwpEw3c/7yNk/unSllwH1SRXUlRBHeCewRwRwzZf+ll2K7T7WANLhelwR3xWk8I3Fp0X/CoW5kZoMSGQLsXRRz9BHeN4G6eKyPulIkG7skeDu43b0TFlUfwgvs4Q9wpgjuVWXAHEwPrLS+Pnpu6FazBvlQa3JE8yH2BW9uchr23MD16+xv6rtDdFDVeqhHcNYG7sVemR97xHQ3cH3fD4L6+F5NWpuBxXmWIO0Vwp7IL7ovYsBosLw+e8FQMdyLRkji4J8C+6PbO8Lf2Ath5i9vqVQFwQ82H7xY1BnkKlSe4qwJ3U6/MJOCU+bNKwD25gy+5d/fEg5XcFXiY3JpKEdypDIN7GzassbDvBUvB+nuZyoN7Y0DvES40HdF55yhyNm5b8HZn0rC/ZIK7ZnA3zZUBnDLXPE9KNHDP9azj5L4Tz4PyOz7KZ0Q7iuBOZRfcc+BC5TG7y4MRfZvB+muIAO51QLnwSe6rMhb3JDkFFAmf5L4panEnuOsCd0OvTASnTMQV9+QRjsTebwys94N4+g3JjiK4UxkG9+QsNq683dUnsKsH26t5rDUCuCMBlGOhV7Zy6EEGA66VkBSd4MH1JTQBNu+nHsFd14r7KyOvDOCUuefZKRMR3HOvruLgPvg+Eqscx8f4O8mOIrhTWQb3bWxc20GvPhCqu4k0ArhD9qOWwPcV9gg5e75ngSIBc/rxl6W/1OopQb9CwL0pKyvuiZFX5p28UybmirvRkvvxOKjyDH+5GIybfUNRBHeCe2RwB7ePWh5+Cfo1ZgI1V5iPAe7Ids3ggZCXwL6nZdoNHQg5CrbrK86nQsB9JMq/nRjgbuKVieGUiQruLwxc7lejGMi/GhzwGjX6hqII7gT36OAOjsvylB4Q3EMtP59OY4B7cl4EmL+rEhqysupeq0kQmI/6FaOWqHpPBSsE3Kej/NuJAe4mXpkYTpmo4G7iQzkcfBzhJ4OfmXp4+yvBjiK4U5kG92QMG9hnq4uDVplQoSMf44A79Lryz6B3dRHt+4N7LWR3anE4aLtoWr/lz7hiwf15ZsDdxCsTwykTF9xPdBuQ+478saQPDYY3Sa6jCO5UxsEdzF25GBKo1sK0NpPGAXdooT+sV6YJbHvewyZZ6CUhqFcm9xxs15t1pELAfT7Kv50o4I57ZaI4ZeKCe3L/UDMa99w2+CDwhVxHEdypjIM7mNhol1/Yi118OS69+gb3pxAyFwLe1Fm07WapYkFNG3Nou95iKSsE3FujxHJHAXfcKxPFKRMZ3B/fMwD3q1Oyv5cbv3DBnaII7gR3XFvYwOzyKQZirrjPpZHAPYH2xOYD3tRTaNsenDLY7tT0p4DtnpF2ylQKuKfDMf7tRAF33CsDOGX+8D+8uOCe7Jksud+UzYQ0cuBzwZ0iuFOZB/dSERpYq9UCcQ3WdRCPe2EkGrhvRr7Vw2iq+byXFdldpNRKuHbXimC7/kJWVID7WrzdIwrBHfXKxHHKxAb3r4Mm5P5G0ub+wGRkD0h1FMGdyjy4JyDfWiW/3Ap4bU+r/SHAHXJ9L4TLNofj6+u8lIPcVu3hFn/h7wv13kqqAPfl8h3PZQfcUa9MHKdMbHA3w+PDO3K/FoME98PDnzsSiiK4U5kH98sByRbcHhoCL4aH4oE7ZHIPtz21BLfuxzrSAtUKtj0V/r5QPFZd4D5cvuWBGP924oB7DvTKxHHKRAf3jndG5N4l9WOZMnHfH0YJmacogjvBXRm4g8mBVlYHcJPkYsxl2ADgnkApJ/Odge7oxr/ZO9eHJpYkiregguJgVETUZCRBCHiB5SmJPAWUp4BoBOQpT4VVWfR6h/9+Ue91V3xQ1dM9XQnnfPTDdFdPGX5dc7qaGrShizW9YtLxVFsHJcnfF3rNjSkC3DuiOXycJ+BO9MpQnDJPCxDc1TCnsn1YtxZNriyyLDxTYDoI4A4B3JVK0mam1RYkS3u2hdrz8qxLcL/obL9ypHQfNWhTE6AdDo3ZCbeV/H3B4AREgLt/csjvXfzZcQTuNK8MxSnTVojgrj5wEHm97mkUqcLj9oZ7YDoI4A4B3JXyaJdszrbqPJzmYtg0T3N9gUtwpzW0OWOnI2QzNeZUq6ER70RZ3z+uEmq4MwaXWwS4q5MP5WZOEbiTvDL1TW6cMgLAfbqHZZZpuBAFt7M+A+w56W4KQQB3gLs0cFeVtKkt6zw7Z6+a/1ttBk7B3SeZR4IHNl5ntpgac42xbVLCXgadpOdUh3uwbXBUGeBOCH3VwQ+KI3AneWUOHTllBIC7t8ZbhoYnthNlhVVvP2xqUxAEcIcA7kfattiSg7YpaOwwHNKdwC24EzcO8zZc7kvUkDvN9QokNYQM9m0UzMhbtITJa75kgDvBJPTMwQ+KK3BfMcPtVpwyAsBdea95C1F33nKesM6lHq4Po+AOAdwhgPuXn/MYbWrlOg+vtljN/7XGUq7B/TJtVAudVlYT1JB3zQ1KbL15x3y4cfJZBqN+LBng3hfZz1degDvpDiZHThkR4H6vgUnuVq8pXVvnzWYEQAcB3CGAO2tqfTrPJnb8MHs6NXsrcA3uadrBgYzx5ubeLjnkUYMrTtst3DL+hcHfJ4dr9LIAGeBOCD7joErpDNwH5DplJIA7t5n7kc5Z65t+l/uybuDOVAjgDgHcGYW7z9Lpgk2s5nebDMffDZyDO/VTQ43pd/mMHHHOJNL1Rm8z/6IWcrg3jY4rA9wpq/7uFIH7ilynjAxwv7vDXY3X03ZmMl3LnEgdWrhDAHcI4P5N5bS5xTQePUdcZYNn6LzqQAC4bxF95oZNQnPkk6lmfSsfaWM2jpkN94DsCzL5fUEMuNe42BoKBncjXhk7ThkZ4K6mu7jL0T5sYx5P2fOAUQYCuEMA9/+pjDY3rXLpDO3ZLeaiKQkkgLtHtOvkzLpHrpEDnjfaizJN3DBUGB3VryCHu2/29coAd4oRrTgd+e+JO3AfEOuUEQLu6gl7PerqjbutPvWzZ1F7V0EQwB0CuDOrw1qHGYkk2WcM6JoDEeBONnEYBTxG8EVmw6X2sjF6mmGbHm6sEMGddCb4QeS/J+7AfUWsU0YKuKsR/pK8NjyxF/wPI12lCoIA7hDA/Zs6GklzK9apvDyMGKyudwoB92wieqTcojtH5g1f/nSF2N2lccvcmDH6u+42XDWUAe4xF6FLBncDXplXlmYmBNy9u7Uam5k1gzn09hV/AuswuEMAdwjg/p26aZM7sMUWgbFrNcs0ud08uKsF4sjFV0yNODdDj7fIdLhUk87EWVMjHgzSwx01HK0McI87iV0yuA9IdcqIqbir0i6NValdNDR6W32PxvBD6OAOAdwhgPt3qqFNTuc44yUqSRspPD/Ufs3mwT1OHTrXambANN3xbaEMO0odusKQ6bo1Rw+30nS0MsA9G+WeOC/AfUWqU0YOuHsv1jXWpWHkrYmxz2t9EumHwR0CuEMA9+9F7CFYZbGaH+TCezf8i4EgcFfvqWP3GrGt+L2McJeNR+s9oo69YGab8p4e7WzcdLQywJ1ydWpg5d4rqeAe2itjyykjB9yVqtdamZ6hsHsa70mTXp8f1NshgDsEcD+mpEU7C/XUYlAWuv64G4gC92Xy4DUG/jJ5m4xobaTZA/LoJrq5p68xwt00HqwQcKdtXsxf8yUX3AeEOmUkgTtlLj/tDDn5KcSgf05qbqqmUG+HAO4QwP0H6KO5hRM6Jodx6kInkuGCuJILZIG7oltXSsK/whpGsI1JC9H69F+bsvCDlTPCTT0vVHAnfmKqPj3gHtIr02PLKSMK3HUOqH5t7jKkex/TYv/jdb0xX7eh4A4B3CGA+w+qpM1Ox3HgZ6gr3R3K/Hy5OJAG7qP04cN2SfQ53G5gn/AzFZHH7wy72umrnHBbzMcqBNyp9+RG2xLSJbiH9MpYc8qIAnf1tkl3gRqmLvAL4KX1/z7UxPbDqTYFQQB3COD+g7Yt0u0CealDmJ/TNSFfsw1w9xinRZdClZU6OMaRoK/DShL5uahYOnuTE27OwhVEQsB9jPrNIRnlr4lTcA/nlblwOsBdlbbrr1FXP4fd7w7v/atOf7ARlNshgDsEcP8ZYcYskvVoBDg39igQCO7qNqM5ZU2IE6pz3axYY5bSKMaYQ0mIP8gH85xoO7cshCoE3P0UcRHmL50WcF+R6ZQRBu5qpSfMOj3eqV8hwPufb4amQo2zPgmIgwDuEMA9zOweacEF2SsTzOp1F+8oaQxEgrviOLErtY8QvptghdprLY0YjV6Ccu2y/3iGFW61jUiFgDvV43b0XzdCcncK7qG8MvacMtLAXb1pCNs4s7Z/bfgXlndveuX8wB9N62GHCHVUuO3tveEXuLkJArgD3AsU3FUfDay1Oo4zmjTO3tcBuVsnU2K3G3C/kmBkWu5Aawx/m7dtycxZy6L4LGMe+3pHRtNVvDu2Jqy0VJEC7i8DgeTuFtwHRDplxIG7ehGW3L+yddPOq5GhybW1J0daW5scGjk3VXvDyKMPa+/xQH36CNTPr9UP9H/YqW1q/zqHJlAgBHAHuBcouBNLw1rtv+OM1e5s4T59jNAE8szJFng74E49PPC3E1ln25LsZib0ZYtpxDppUKxzZDLO7B3UOW4lUCngfpu+ErfiUf2YuAX3EF6ZHouNB8WBuyFyXz/xH3QfPHDC22j7a3px+Ol/JvdGXk19A/XjArhDAHeAe6GCexltenp9/HJpg1QAABV2SURBVPY5613Oquo/X6AUeceVK3BP8+zYvWeZz+94mWLm84LNNMrO8ObCrYa3liSY4S7ZCVQKuPuMXkqJjVMB7kq7Y8rhOYuzkgfu6mnDoVzdGD4+3U9HnH7h/OTQQP8fO7VNXQ2kbQLAHQK4A9wLFdy3iFSt9fAi1oKfoVcGxzZJHNernIE7vY3930X3Fk4LFK9ogpvOt1qt5tEd3myKNzhHcv3rGW64j9J24pQC7oyeTUfajaa5jGNw35PolJEI7qLJfaftU+k3UH9de6NLb64AdwjgDnAvVHDvoPmk+/TKzjy87LxIKsT6MeLJvNSqQ3BXm1yyvk9lTW+0m53NiduWE4l7e22uiBzuZf4NW9baIEoBdy/GWo/GGrrT3dsazU9wX5HolBEJ7urNY8E1dyOmG4A7BHAHuBcquCsiA57Vengzc80zLSfWhZNL5N3AZ4eAO3DP9nEzLvOQcny09ZlOC8z7tvNojn0P1kQLBSazG/P8aDutXTwkpuKeHmRuZappH7TiVRNBVX6Cu7ZXxqZTRia4q5Wuw8IWwB0CuAPcCxbciccKY3r1fLbFYbDkN7VSL/6QUWvu9ZyCu1qeZefc7Pv7v//okB5dSOkkc7X9RLrMn1XjbtHvw+34eDWhE26JtSjFgLuqZq9KxcbqCZuB8aUvu6Q8BXdvT6BTRii4q8V2gDsEAdwB7nkJ7sTL07f1nr6hsfCPXt7+iQHaH3tWzXLefG0H6BDc1ZJO2s12V8V+/nnDjzf3pvRyuSIdQSYt6Myscb9k9Ofwno63XNMMt9K3FqQccH+nszK5pY+/gHcv2bz7z3Lna8V9RaBTRiq4q7e1AHcIArgD3PMR3JPE4216T/fntdY+dbNqI5Z8nk2rjuzqwXLRw+qbXIZr3KJ9ULAI7ukK3dzLvL9YVjSeXM1mlZd9fhAfLyrpPaN/2VTfXBSZ1JrTDrfyYvOd5aP3/SXcZHz82dK1ef1wc1l7QcoBd0/30uDi9zUvPyfXpezn7Vx6LrlV9HJh////f+UruGt6Zaw6ZcSCu2r7AHCHIIA7wD0Pwd2jeWWLNW+q/+jq9TUr5+Cu5mZEZHLmIJpUOhgUEe7Ec4sxygF36rcyDeUtuOt5ZexesikW3JW3tw5whyCAO8A978Cdenm6Lvxdc/P2/mnj7RTc1VZCQCKnbkeUSV6sU0C4g2M2YxQE7ukZgPuxBFyU55QRDO5HL6wH4A5BAHeAe96BO/GOzzuaj19NOXl5nghwV9fd53FjLLpceuk+3MSy1QgFgTu7Z1PhV9y1vDJ2nTKiwV2V1gLcIQjgDnDPM3CnNoTW/WNuDy9+o8pvhzEdgzt1W2SR2x9EmU01zrl91G6AksA9PQFwP6Y9cU4Z2eCu2kbqAO4QBHAHuOdXxZ04wQrtnUFl9NzeSidJy+DuGmUTHyNNJr/csS1o3HKAksCdeTPxaQB3Da9Ml12njHBwV+pFO8AdggDuAPe8AndFuygood1RcC4T8ZsrTzO42Ta4u0XZiLldqXRlQXO7LHD3KgDux9QkzSkjHtzV2ymAOwRJ0CNwd2htnhZwJ5JlXHuA8dlIX1y1zyl42wZ35V91CLKxyLMpfc1duIPL1sMTBe5qLAFw/1570pwy8sFdqaftAHcIcq8KcHdoGfoDLB/cy2gzDEG4UZ5Z7Nz+rnGle3BX/oKrFM7EHaRTutdVuH1J+9HJAndL/7PyF9z5fWVsO2XyAdzVX/11AHcIcq1ycHdotZwWcN+izXAhxJ/T6IrOqWNnMQWAu/Kq3GTwmVXPRT75m27C7Y7imilh4O5XANz/y969eEVx3XEAHyE9eAL7ACQ1Cmygjz3Wd7oi4AG6VNLNYgzhUVGgpAFJKw0aTtvTP79gX6ZRGXZnZ+7A5/MPcO/dmct37vzunR86ba3MXKfvkTwE9yj6/U3BHTJWl7vbVj4vwb0W7xuVC+2swqb1CujC/y+6hhDco2jnRgYX8MupjC6oQj2L89wH76bRt8CCe7S6JLj/wH5glTI5Ce7Rz7++L7hDprbk7nbdSCj2hB/cowexWrjcTjCaSmfXxcyP2hhGcI8aqX9U9N7maHZX1HTqh/cv19N5uxBacI8ORgT3N20EVimTl+AeRd+dqXoZwZ38qU5K3u2uVyb0U+QguMc8sbCtnX99aymUyUwUTt+3dIJ7NLaW7uU7X8py/ikMz6bb3clGSj0LLrhHlWXB/U2nq/mY63h7chPco+ji3DeCO2TnsuTdpq7zE9xX4jWxt73E0/E190vbrTyUpBTco1qqW1QXDjOegKZS3WbzajWtfoUX3Dvwdd5cB/f9sCpl8hTco2jj8S8Fd8jK6ojo3ZbZpAoNchDcx+I1sdhmlPu4oz/YyJ3Rlt4mDKU2zJXUymWWN6vZT0FDqU1BI/X0qoICDO7RzrLg/kb2DKtSJl/B/Wj45q4J7pCRTdm7LZWkfogcBPdCvEQ52+afqXbybJkX71hiDii4R9spfZxo/SCIKWgspR3JC2keehlicI8qNwT3/7kZVKVM3oJ7FF383WeCO2Ti7rrw3YbBxLa65SC4RzED5QftPiDc6dThKlfe+YHQkIJ7VOjqTmG5/cNaIHNQYSeFPaojPam+XQgyuEfNbsH9v05TK/Nnwf0t/vb1XwR3yMLwuPjdeqFMX2K/Qx6Ce0+8NpbbDxidOLzuH+P1d0fVoIL70dWw2+mTEi8NBzQJbXf8Y0wvx9LtUZjBPepfENz/YyOoSpk8BvcjD//4meAO6Wsoc2/VZIJpIA/BvRyvjXsJ5J7B5GP75vuesgIL7kcP1B0tIJlcKYQ1C2096GR3F6fT7k+gwT2qfnhPcP+3myFVyuQ0uEeFT794fE1wh7QdLIngrRVeJHkkRx6Ce8w2fpTE/4OVZN/qj1x+fwFPcME9Kkx3rIptfG8quFmosNKxkyG767XUH1NCDe5R1JgV3P9lP6RKmbwG9+Nb98tH314T3CFdq6+E8BbMJJp+8hDco3j/87sTiUl9CVaLTO6d9Jn78IJ7FI12XehIbN/sC3Iaqk50JLrP17N4Sgk3uBdqmyOC+7GNkCplchzcj/39q5/cF9wh1YSwY9H9tNbKmaxmZxvcYx66ndCbiKsJHQz5YOXkfYkhBvejG7OSeAXJ/OYH4c5DK4k/qUxm9HIh3OB+5LB4T3CP4tfKpFEpk/PgfuxX38/d/EZwh/RWu7o+Uup+ikXLYjnpl++5CO698RqZ2BmZ5fYLveefPo/zl8IM7kcOdpO8MRcmakHPQ4VmMckThV51ZXVQfdDBPYqGi8uCe+xamTQqZc5AcD928av9x78W3CEttecTz3o42Z2u4Q58yKXvSiyfZHqNXI3XyGfJ/cXmYDsJ48aLSsygundSnyqZDXpfb0LL7uMDz3MwDz2pryX0buHpcHY7cKdOvEnq2Q5z/+Xucx/cNwKqlDkjwf217x5+v3/99n3BHQhoXdAQpGe7p8U6rpEXQ0/OyBgc1hfaf0lUquWlu5/vtb0vd363XHWfvle1MjiSTXD/w/UTPUxlCOaux/Eolbbs3z7Rl/m6wD69+PCLR7/9zdz1b39x+/bNn4bpTyYCgMSNNgZO/bGBpd3S3TM1CIdDM/MtJ6zZp9O1fHV37NZg6x+YWP9Zuea2iWFqpTifQXDnHC1yeXoGOI+q5U8W44f2gYmxszgIo8+fzZz+7cNSceIwn7/5Vn1w8vRHtu+urLpfTnFRHfQWF1vL7Yu3DB8A8Hb9K08XTtq5uPRir9R/pkdhtbRXXItZ4nBl5lkj59VC/ZWemfV4+1XvrRfvNPvcJy14Uu4ZvBC7bube0qWnz6aHa9ZSAYD3qV3t2is+WPrRhtXx2UsDe13Pz0tsGz0s7+ztvrzw9jqH8dkHM5dvlceqZ6W71bHyTs/ux+vv6u6rmc2dxmHV7dHeRbXdHNoceLmw+PYEP7K08LJ4ubdysG2gAYCYjtf5Rp+MHTRK0xMTE5VSuXl1+9wu/hWmtoe3GqXXQ7FSOhqLrc+fVM92d5vnp7uZPR5vDx80m399PcxdpVKj2Rzuv2tYAAAAAAAAAAAAAAAAAAAAAAAAAAAAAAAAAAAAAAAAAAAAAAAAAAAAAAAAAAAAAAAAAAAAAAAAAAAAAAAAAAAAAAAAAAAAAAAAAAAAAAAAAAAAAAAAAAAAAAAAAAAAAAAAAAAAAAAAAAAAAAAAAAAAAAAAAAAAAAAAAAAAAAAAAAAAAAAAAAAAAAAAAAAAAAAAAAAAAAAAAAAAAAAAAAAAAAAAAAAAAAAAAAAAAAAAAAAAAAAAAAAAAAAAAAAAAAAAAAAAAAAAAAAAAAAAAAAAAAAAAAAAAAAAAAAAAAAAAAAAAAAAAAAAAAAAAAAAAAAAAAAAAAAAAAAAAAAAAPgne3AgAAAAAADk/9oIqqqqqqqqqqqqqqqqqqqqqqqqqqqqqqqqqqqqqqqqqqqqqqqqqqqqqqqqqqqqqqqqqqqqqqqqqqqqqqqqqqqqqqqqqqqqqqqqqqqqqqqqqqqqqqqqqqqqqqqqqqqqqqqqqqqqqqqqqqqqqqqqqqqqqqqqqqqqqqqqqqqqqqqqqqqqqqqqqqqqqqqqqqqqqqqqqqqqqqqqqqqqqqqqqqqqqqqqqqqqqqqqqqqqqqqqqqqqqqqqqqqqqqqqqqqqqqqqqqqqqqqqqqqqqqqqqqqqqqqqqqqqqqqqqqqqqqqqqqqqqqqqqqqqqqqqqqqqqqqqqqqqqqqqqqqqqqqqqqqqqqqqqqqqqqqqqqqqqqqqqqqqqqqqqqqqqqqqqqqqqqqqqqqqqqqqqqqqqqqqqqqqqqqqqqqqqqqqqqqqqqqqqqqqqqqqqqqqqqqqqqqqqqqqqqqqqqqqqqqqqqqqqqqqqqqqqqqqqqqqqqqqqqqqqqqqqqqqqqqqqqqqqqqqqqqqqqqqqqqqqqqqqqqqqqqqqqqqqqqqqqqqqqqqqqqqqqqqqqqqqqqqqqqqqqqqqqqqqqqqqqqqqqqqqqqqqqqqqqqqqqqqqqqqqqqqqqqqqqqqqqqqqqqqqqqqqqqqqqqqqqqqqqqqqqqqqqqqqqqqqqqqqqqqqqqqqqqqqqqqqirswYEAAAAAAJD/ayOoqqqqqqqqqqqqqqqqqqqqqqqqqqqqqqqqqqqqqqqqqqqqqqqqqqqqqqqqqqqqqqqqqqqqqqqqqqqqqqqqqqqqqqqqqqqqqqqqqqqqqqqqqqqqqqqqqqqqqqqqqqqqqqqqqqqqqqqqqqqqqqqqqqqqqqqqqqqqqqqqqqqqqqqqqqqqqqqqqqqqqqqqqqqqqqqqqqqqqqqqqqqqqqqqqqqqqqqqqqqqqqqqqqqqqqqqqqqqqqqqqqqqqqqqqqqqqqqqqqqqqqqqqqqqqqqqqqqqqqqqqqqqqqqqqqqqqqqqqqqqqqqqqqqqqqqqqqqqqqqqqqqqqqqqqqqqqqqqqqqqqqqqqqqqqqqqqqqqqqqqqqqqqqqqqqqqqqqqqqqqqqqqqqqqqqqqqqqqqqqqqqqqqqqqqqqqqqqqqqqqqqqqqqqqqqqqqqqqqqqqqqqqqqqqqqqqqqqqqqqqqqqqqqqqqqqqqqqqqqqqqqqqqqqqqqqqqqqqqqqqqqqqqqqqqqqqqqqqqqqqqqqqqqqqqqqqqqqqqqqqqqqqqqqqqqqqqqqqqqqqqqqqqqqqqqqqqqqqqqqqqqqqqqqqqqqqqqqqqqqqqqqqqqqqqqqqqqqqqqqqqqqqqqqqqqqqqqqqqqqqqqqqqqqqqqqqqqqqqqqqqqqqqqqqqqqqqqqqqqqqqrAHBwIAAAAAQP6vjaCqqqqqqqqqqqqqqqqqqqqqqqqqqqqqqqqqqqqqqqqqqqqqqqqqqqqqqqqqqqqqqqqqqqqqqqqqqqqqqqqqqqqqqqqqqqqqqqqqqqqqqqqqqqqqqqqqqqqqqqqqqqqqqqqqqqqqqqqqqqqqqqqqqqqqqqqqqqqqqqqqqqqqqqqqqqqqqqqqqqqqqqqqqqqqqqqqqqqqqqqqqqqqqqqqqqqqqqqqqqqqqqqqqqqqqqqqqqqqqqqqqqqqqqqqqqqqqqqqqqqqqqqqqqqqqqqqqqqqqqqqqqqqqqqqqqqqqqqqqqqqqqqqqqqqqqqqqqqqqqqqqqqqqqqqqqqqqqqqqqqqqqqqqqqqqqqqqqqqqqqqqqqqqqqqqqqqqqqqqqqqqqqqqqqqqqqqqqqqqqqqqqqqqqqqqqqqqqqqqqqqqqqqqqqqqqqqqqqqqqqqqqqqqqqqqqqqqqqqqqqqqqqqqqqqqqqqqqqqqqqqqqqqqqqqqqqqqqqqqqqqqqqqqqqqqqqqqqqqqqqqqqqqqqqqqqqqqqqqqqqqqqqqqqqqqqqqqqqqqqqqqqqqqqqqqqqqqqqqqqqqqqqqqqqqqqqqqqqqqqqqqqqqqqqqqqqqqqqqqqqqqqqqqqqqqqqqqqqqqqqqqqqqqqqqqqqqqqqqqqqqqqqqqqqqqqqqqqqqqqqqwh4cCAAAAAAA+b82gqqqqqqqqqqqqqqqqqqqqqqqqqqqqqqqqqqqqqqqqqqqqqqqqqqqqqqqqqqqqqqqqqqqqqqqqqqqqqqqqqqqqqqqqqqqqqqqqqqqqqqqqqqqqqqqqqqqqqqqqqqqqqqqqqqqqqqqqqqqqqqqqqqqqqqqqqqqqqqqqqqqqqqqqqqqqqqqqqqqqqqqqqqqqqqqqqqqqqqqqqqqqqqqqqqqqqqqqqqqqqqqqqqqqqqqqqqqqqqqqqqqqqqqqqqqqqqqqqqqqqqqqqqqqqqqqqqqqqqqqqqqqqqqqqqqqqqqqqqqqqqqqqqqqqqqqqqqqqqqqqqqqqqqqqqqqqqqqqqqqqqqqqqqqqqqqqqqqqqqqqqqqqqqqqqqqqqqqqqqqqqqqqqqqqqqqqqqqqqqqqqqqqqqqqqqqqqqqqqqqqqqqqqqqqqqqqqqqqqqqqqqqqqqqqqqqqqqqqqqqqqqqqqqqqqqqqqqqqqqqqqqqqqqqqqqqqqqqqqqqqqqqqqqqqqqqqqqqqqqqqqqqqqqqqqqqqqqqqqqqqqqqqqqqqqqqqqqqqqqqqqqqqqqqqqqqqqqqqqqqqqqqqqqqqqqqqqqqqqqqqqqqqqqqqqqqqqqqqqqqqqqqqqqqqqqqqqqqqqqqqqqqqqqqqqqqqqqqqqqqqqqqqqqqqqqqqqqqqqqqqpKe3AgAAAAACDI33qEBSoAAAAAAAAAAAAAAAAAAAAAAAAAAAAAAAAAAAAAAAAAAAAAAAAAAAAAAAAAAAAAAAAAAAAAAAAAAAAAAAAAAAAAAAAAAAAAAAAAAAAAAAAAAAAAAAAAAAAAAAAAAABgBPLMh16N66NvAAAAAElFTkSuQmCC" parent="1" vertex="1">
          <mxGeometry x="435" y="301.67" width="130" height="86.66" as="geometry" />
        </mxCell>
        <mxCell id="8wmx1nXhgL71GgYih72c-28" value="" style="endArrow=classic;html=1;rounded=0;" parent="1" edge="1">
          <mxGeometry width="50" height="50" relative="1" as="geometry">
            <mxPoint x="439" y="470" as="sourcePoint" />
            <mxPoint x="439" y="350" as="targetPoint" />
            <Array as="points">
              <mxPoint x="409" y="470" />
              <mxPoint x="409" y="350" />
            </Array>
          </mxGeometry>
        </mxCell>
        <mxCell id="GJEJqLTNuYXcX_cXsDa7-1" value="" style="endArrow=classic;html=1;rounded=0;entryX=1.033;entryY=0.15;entryDx=0;entryDy=0;entryPerimeter=0;" edge="1" parent="1" target="8wmx1nXhgL71GgYih72c-3">
          <mxGeometry width="50" height="50" relative="1" as="geometry">
            <mxPoint x="565" y="351.66999999999996" as="sourcePoint" />
            <mxPoint x="615" y="301.66999999999996" as="targetPoint" />
            <Array as="points">
              <mxPoint x="640" y="352" />
              <mxPoint x="640" y="470" />
            </Array>
          </mxGeometry>
        </mxCell>
        <mxCell id="GJEJqLTNuYXcX_cXsDa7-2" value="4. a) Parsing request object &amp;nbsp;MgEmailStatus or MgSmsStatus" style="text;html=1;strokeColor=none;fillColor=none;align=center;verticalAlign=middle;whiteSpace=wrap;rounded=0;fontSize=12;fontColor=#000000;" vertex="1" parent="1">
          <mxGeometry x="640" y="380" width="150" height="50" as="geometry" />
        </mxCell>
        <mxCell id="GJEJqLTNuYXcX_cXsDa7-3" value="" style="rhombus;whiteSpace=wrap;html=1;fillColor=#d5e8d4;strokeColor=#82b366;shadow=1;" vertex="1" parent="1">
          <mxGeometry x="605" y="422.5" width="80" height="80" as="geometry" />
        </mxCell>
        <mxCell id="GJEJqLTNuYXcX_cXsDa7-5" value="&lt;font style=&quot;font-size: 10px;&quot;&gt;Event &lt;br&gt;type&amp;nbsp;is the &lt;br&gt;suppression&lt;br&gt;type&lt;/font&gt;" style="text;html=1;strokeColor=none;fillColor=none;align=center;verticalAlign=middle;whiteSpace=wrap;rounded=0;fontSize=12;fontColor=#000000;" vertex="1" parent="1">
          <mxGeometry x="591" y="448" width="110" height="30" as="geometry" />
        </mxCell>
        <mxCell id="GJEJqLTNuYXcX_cXsDa7-6" value="" style="endArrow=classic;html=1;rounded=0;fontSize=10;" edge="1" parent="1">
          <mxGeometry width="50" height="50" relative="1" as="geometry">
            <mxPoint x="685" y="467.5" as="sourcePoint" />
            <mxPoint x="740" y="468" as="targetPoint" />
          </mxGeometry>
        </mxCell>
        <mxCell id="GJEJqLTNuYXcX_cXsDa7-7" value="&lt;font style=&quot;font-size: 12px;&quot;&gt;Process suppression event&lt;/font&gt;" style="text;html=1;strokeColor=none;fillColor=none;align=center;verticalAlign=middle;whiteSpace=wrap;rounded=0;fontSize=14;fontColor=#000000;" vertex="1" parent="1">
          <mxGeometry x="680" y="472.5" width="110" height="30" as="geometry" />
        </mxCell>
        <mxCell id="GJEJqLTNuYXcX_cXsDa7-8" value="" style="endArrow=classic;html=1;rounded=0;fontSize=12;exitX=0.1;exitY=1.05;exitDx=0;exitDy=0;exitPerimeter=0;" edge="1" parent="1">
          <mxGeometry width="50" height="50" relative="1" as="geometry">
            <mxPoint x="456" y="521" as="sourcePoint" />
            <mxPoint x="400" y="600" as="targetPoint" />
          </mxGeometry>
        </mxCell>
        <mxCell id="GJEJqLTNuYXcX_cXsDa7-9" value="" style="endArrow=classic;html=1;rounded=0;fontSize=12;exitX=0.167;exitY=1.033;exitDx=0;exitDy=0;exitPerimeter=0;" edge="1" parent="1">
          <mxGeometry width="50" height="50" relative="1" as="geometry">
            <mxPoint x="460.03999999999996" y="519.98" as="sourcePoint" />
            <mxPoint x="510" y="600" as="targetPoint" />
          </mxGeometry>
        </mxCell>
        <mxCell id="GJEJqLTNuYXcX_cXsDa7-10" value="Service 1" style="rounded=0;whiteSpace=wrap;html=1;fontSize=12;fillColor=#f5f5f5;fontColor=#333333;strokeColor=#666666;shadow=1;" vertex="1" parent="1">
          <mxGeometry x="340" y="600" width="80" height="32" as="geometry" />
        </mxCell>
        <mxCell id="GJEJqLTNuYXcX_cXsDa7-11" value="Service 2" style="rounded=0;whiteSpace=wrap;html=1;fontSize=12;shadow=1;fillColor=#f5f5f5;fontColor=#333333;strokeColor=#666666;" vertex="1" parent="1">
          <mxGeometry x="463" y="600" width="80" height="32" as="geometry" />
        </mxCell>
        <mxCell id="GJEJqLTNuYXcX_cXsDa7-12" value="&lt;font style=&quot;font-size: 12px;&quot;&gt;5. Send Events to&lt;br&gt;Down stream services&lt;br&gt;&lt;/font&gt;" style="text;html=1;strokeColor=none;fillColor=none;align=center;verticalAlign=middle;whiteSpace=wrap;rounded=0;fontSize=14;fontColor=#000000;" vertex="1" parent="1">
          <mxGeometry x="325" y="555" width="110" height="30" as="geometry" />
        </mxCell>
      </root>
    </mxGraphModel>
  </diagram>
</mxfile>
